{"glyphs":{"0":{"ha":846,"x_min":0,"x_max":0,"o":"m 335 -21 b 44 332 104 -21 6 118 l 104 669 b 507 1007 140 881 279 1007 b 801 656 735 1007 839 867 l 742 318 b 335 -21 704 104 557 -21 m 363 179 b 528 329 453 179 511 238 l 588 672 b 481 807 603 764 563 807 b 318 658 389 807 335 750 l 257 315 b 363 179 242 224 279 179 "},"1":{"ha":571,"x_min":0,"x_max":0,"o":"m 214 0 b 174 63 172 0 167 21 l 290 721 l 176 665 b 113 690 135 647 125 657 l 81 778 b 111 849 67 814 71 828 l 331 964 b 414 986 363 982 372 986 l 497 986 b 540 922 539 986 549 965 l 386 47 b 322 0 379 8 360 0 l 214 0 "},"2":{"ha":796,"x_min":0,"x_max":0,"o":"m 28 0 b -12 64 -15 0 -18 25 l 10 186 b 286 496 40 367 160 440 b 551 721 421 557 551 579 b 465 807 551 781 519 807 b 307 696 390 807 346 767 b 242 674 289 664 274 661 l 143 711 b 122 788 104 726 106 751 b 482 1007 182 922 285 1007 b 776 742 676 1007 776 893 b 438 347 776 531 650 433 b 256 222 333 306 276 269 b 249 200 251 215 250 208 l 625 200 b 668 138 668 200 675 176 l 651 53 b 596 0 644 14 632 0 l 28 0 "},"3":{"ha":818,"x_min":0,"x_max":0,"o":"m 344 -21 b 17 218 150 -21 44 64 b 49 285 8 258 13 274 l 157 318 b 215 272 194 331 207 314 b 356 178 228 206 272 178 b 506 318 454 178 506 236 b 404 403 506 369 476 403 l 319 403 b 281 464 276 403 274 429 l 294 547 b 350 596 303 589 311 596 l 407 596 b 553 732 499 596 553 646 b 456 808 553 778 519 808 b 297 696 375 808 332 767 b 229 676 281 661 265 661 l 139 707 b 114 788 97 722 96 750 b 475 1007 189 932 292 1007 b 774 769 658 1007 774 917 b 635 508 774 646 725 564 b 725 331 694 472 725 410 b 344 -21 725 118 575 -21 "},"4":{"ha":844,"x_min":0,"x_max":0,"o":"m 450 0 b 407 60 411 0 399 14 l 433 210 l 39 210 b -6 269 0 210 -14 224 l 6 339 b 39 415 14 376 18 392 l 525 951 b 606 986 554 983 567 986 l 722 986 b 763 922 761 986 771 965 l 669 396 l 736 396 b 779 335 775 396 786 376 l 767 258 b 710 210 760 217 749 210 l 636 210 l 610 53 b 551 0 603 17 590 0 l 450 0 m 465 396 l 521 693 l 263 396 "},"5":{"ha":790,"x_min":0,"x_max":0,"o":"m 325 -21 b 7 224 132 -21 47 68 b 42 282 -1 261 10 274 l 144 314 b 207 275 182 326 194 317 b 344 179 224 219 258 179 b 492 346 439 179 492 244 b 350 438 492 414 449 438 l 131 438 b 86 510 83 438 75 468 l 192 914 b 281 986 207 972 224 986 l 739 986 b 778 922 782 986 785 961 l 763 836 b 704 786 756 793 739 786 l 368 786 l 329 633 l 406 633 b 713 376 628 633 713 524 b 325 -21 713 133 563 -21 "},"6":{"ha":847,"x_min":0,"x_max":0,"o":"m 350 -21 b 38 261 144 -21 38 86 b 100 656 38 319 47 363 b 510 1007 140 885 283 1007 b 815 776 696 1007 789 924 b 783 717 821 742 814 725 l 672 688 b 617 731 631 676 625 697 b 500 807 601 783 567 807 b 318 651 397 807 342 760 l 304 592 b 465 615 347 603 406 615 b 758 376 672 615 758 535 b 350 -21 758 133 600 -21 m 364 178 b 542 346 478 178 542 244 b 428 426 542 400 513 426 b 274 400 361 426 310 413 b 254 278 258 328 254 299 b 364 178 254 210 286 178 "},"7":{"ha":722,"x_min":0,"x_max":0,"o":"m 83 0 b 57 63 43 0 36 28 l 500 786 l 139 786 b 97 850 100 786 90 808 l 113 938 b 178 986 121 979 139 986 l 731 986 b 771 922 771 986 778 965 l 760 860 b 735 782 754 826 753 814 l 286 43 b 200 0 263 4 247 0 l 83 0 "},"8":{"ha":839,"x_min":0,"x_max":0,"o":"m 335 -21 b 14 215 125 -21 14 63 b 190 513 14 332 71 440 b 124 699 149 553 122 613 b 490 1007 129 889 261 1007 b 796 772 685 1007 796 922 b 646 511 796 669 740 575 b 747 303 714 467 747 394 b 335 -21 747 103 594 -21 m 475 586 b 583 735 542 624 583 679 b 478 821 583 790 547 821 b 343 713 397 821 343 778 b 475 586 343 650 393 603 m 353 164 b 522 292 454 164 522 213 b 364 414 522 369 456 394 b 235 254 289 379 235 318 b 353 164 235 196 276 164 "},"9":{"ha":847,"x_min":0,"x_max":0,"o":"m 339 -21 b 32 210 157 -21 63 60 b 63 269 25 244 29 261 l 168 300 b 224 260 204 310 213 293 b 347 179 238 204 274 179 b 531 335 450 179 510 226 l 542 394 b 388 371 500 382 446 371 b 88 614 182 371 88 454 b 490 1007 89 854 239 1007 b 808 728 694 1007 810 903 b 747 331 808 668 799 624 b 339 -21 706 103 567 -21 m 419 561 b 575 586 485 561 536 572 b 593 708 589 653 593 686 b 478 808 593 776 554 808 b 306 644 364 808 306 747 b 419 561 306 592 338 561 "},"A":{"ha":885,"x_min":0,"x_max":0,"o":"m -29 0 b -61 63 -67 0 -79 25 l 396 947 b 464 986 415 985 428 986 l 582 986 b 639 935 617 986 633 971 l 786 49 b 744 0 792 13 783 0 l 632 0 b 556 56 575 0 560 18 l 542 185 l 231 185 l 167 43 b 78 0 149 4 135 0 l -29 0 m 518 365 l 499 593 b 499 790 493 658 490 707 l 489 790 b 415 579 479 746 457 672 l 318 365 "},"Á":{"ha":885,"x_min":0,"x_max":0,"o":"m 382 1099 b 388 1150 368 1118 369 1140 l 611 1267 b 690 1253 640 1283 669 1282 l 729 1197 b 721 1143 743 1176 744 1151 l 463 1053 b 404 1064 432 1042 415 1047 m -29 0 b -61 63 -67 0 -79 25 l 396 947 b 464 986 415 985 428 986 l 582 986 b 639 935 617 986 633 971 l 786 49 b 744 0 792 13 783 0 l 632 0 b 556 56 575 0 560 18 l 542 185 l 231 185 l 167 43 b 78 0 149 4 135 0 l -29 0 m 518 365 l 499 593 b 499 790 493 658 490 707 l 489 790 b 415 579 479 746 457 672 l 318 365 "},"Ă":{"ha":885,"x_min":0,"x_max":0,"o":"m 553 1053 b 354 1197 450 1053 379 1106 b 371 1243 346 1226 350 1236 l 444 1268 b 489 1246 468 1275 479 1271 b 560 1194 503 1213 525 1194 b 649 1254 600 1194 629 1217 b 696 1265 663 1275 669 1276 l 772 1235 b 786 1185 796 1225 800 1215 b 553 1053 746 1104 658 1053 m -29 0 b -61 63 -67 0 -79 25 l 396 947 b 464 986 415 985 428 986 l 582 986 b 639 935 617 986 633 971 l 786 49 b 744 0 792 13 783 0 l 632 0 b 556 56 575 0 560 18 l 542 185 l 231 185 l 167 43 b 78 0 149 4 135 0 l -29 0 m 518 365 l 499 593 b 499 790 493 658 490 707 l 489 790 b 415 579 479 746 457 672 l 318 365 "},"Â":{"ha":885,"x_min":0,"x_max":0,"o":"m 335 1051 b 310 1099 292 1051 288 1079 l 476 1240 b 546 1269 501 1261 515 1269 l 594 1269 b 664 1233 629 1269 640 1263 l 782 1089 b 761 1051 799 1069 799 1051 l 676 1051 b 607 1086 635 1051 626 1063 l 561 1142 l 490 1075 b 417 1051 464 1050 450 1051 l 335 1051 m -29 0 b -61 63 -67 0 -79 25 l 396 947 b 464 986 415 985 428 986 l 582 986 b 639 935 617 986 633 971 l 786 49 b 744 0 792 13 783 0 l 632 0 b 556 56 575 0 560 18 l 542 185 l 231 185 l 167 43 b 78 0 149 4 135 0 l -29 0 m 518 365 l 499 593 b 499 790 493 658 490 707 l 489 790 b 415 579 479 746 457 672 l 318 365 "},"Ä":{"ha":885,"x_min":0,"x_max":0,"o":"m 400 1064 b 325 1157 333 1064 314 1092 l 328 1171 b 422 1250 339 1236 356 1250 l 432 1250 b 508 1157 499 1250 521 1222 l 506 1142 b 410 1064 494 1078 475 1064 l 400 1064 m 685 1064 b 608 1157 618 1064 597 1092 l 611 1171 b 708 1250 622 1236 642 1250 l 718 1250 b 793 1157 783 1250 804 1222 l 790 1142 b 694 1064 778 1078 761 1064 l 685 1064 m -29 0 b -61 63 -67 0 -79 25 l 396 947 b 464 986 415 985 428 986 l 582 986 b 639 935 617 986 633 971 l 786 49 b 744 0 792 13 783 0 l 632 0 b 556 56 575 0 560 18 l 542 185 l 231 185 l 167 43 b 78 0 149 4 135 0 l -29 0 m 518 365 l 499 593 b 499 790 493 658 490 707 l 489 790 b 415 579 479 746 457 672 l 318 365 "},"À":{"ha":885,"x_min":0,"x_max":0,"o":"m 407 1149 b 401 1208 379 1160 375 1181 l 460 1264 b 547 1257 493 1297 519 1276 l 724 1142 b 726 1088 744 1129 750 1113 l 700 1060 b 633 1060 683 1043 664 1047 m -29 0 b -61 63 -67 0 -79 25 l 396 947 b 464 986 415 985 428 986 l 582 986 b 639 935 617 986 633 971 l 786 49 b 744 0 792 13 783 0 l 632 0 b 556 56 575 0 560 18 l 542 185 l 231 185 l 167 43 b 78 0 149 4 135 0 l -29 0 m 518 365 l 499 593 b 499 790 493 658 490 707 l 489 790 b 415 579 479 746 457 672 l 318 365 "},"Ā":{"ha":885,"x_min":0,"x_max":0,"o":"m 388 1085 b 346 1140 350 1085 340 1103 l 354 1183 b 417 1224 360 1221 385 1224 l 728 1224 b 769 1169 767 1224 776 1207 l 763 1128 b 707 1085 757 1093 736 1085 l 388 1085 m -29 0 b -61 63 -67 0 -79 25 l 396 947 b 464 986 415 985 428 986 l 582 986 b 639 935 617 986 633 971 l 786 49 b 744 0 792 13 783 0 l 632 0 b 556 56 575 0 560 18 l 542 185 l 231 185 l 167 43 b 78 0 149 4 135 0 l -29 0 m 518 365 l 499 593 b 499 790 493 658 490 707 l 489 790 b 415 579 479 746 457 672 l 318 365 "},"Ą":{"ha":885,"x_min":0,"x_max":0,"o":"m 604 -340 b 482 -240 535 -340 483 -317 b 633 1 481 -167 532 -82 b 556 56 585 0 561 17 l 542 185 l 229 185 l 167 43 b 76 0 149 4 135 0 l -29 0 b -61 63 -67 0 -79 25 l 396 947 b 465 986 415 985 429 986 l 582 986 b 639 935 618 986 635 971 l 786 47 b 775 -1 790 25 786 10 b 656 -182 688 -86 656 -146 b 672 -200 656 -192 660 -200 b 708 -190 685 -200 699 -194 b 732 -204 722 -183 729 -192 l 750 -267 b 738 -307 757 -289 750 -299 b 604 -340 694 -333 642 -340 m 518 365 l 499 593 b 499 790 493 658 490 707 l 489 790 b 415 579 479 746 457 672 l 318 365 "},"Å":{"ha":885,"x_min":0,"x_max":0,"o":"m -28 0 b -60 63 -65 0 -79 26 l 389 928 b 351 1053 361 961 346 1003 b 551 1231 361 1158 443 1229 b 721 1060 656 1232 726 1160 b 643 919 718 1004 693 958 l 786 49 b 747 0 792 11 781 0 l 635 0 b 556 57 576 0 560 17 l 540 185 l 231 185 l 168 43 b 78 0 151 6 142 0 l -28 0 m 528 985 b 611 1067 578 985 614 1019 b 551 1121 610 1101 588 1121 b 465 1043 501 1121 465 1089 b 528 985 465 1006 489 985 m 519 365 l 500 593 b 500 790 494 658 492 707 l 489 790 b 417 579 479 740 453 661 l 319 365 "},"Ǻ":{"ha":885,"x_min":0,"x_max":0,"o":"m 472 1201 b 428 1213 447 1194 438 1199 l 410 1239 b 421 1283 396 1258 397 1272 l 622 1368 b 683 1361 653 1381 667 1381 l 726 1308 b 713 1271 739 1294 739 1279 l 472 1201 m -28 0 b -60 63 -67 0 -79 26 l 393 926 b 372 1040 375 954 365 994 b 550 1182 383 1128 456 1182 b 696 1031 646 1182 699 1117 b 643 919 694 992 674 946 l 786 49 b 747 0 792 13 783 0 l 635 0 b 557 57 575 0 561 18 l 543 185 l 229 185 l 167 43 b 76 0 149 4 136 0 l -28 0 m 525 965 b 597 1035 565 965 597 990 b 543 1085 597 1067 575 1085 b 471 1024 501 1085 472 1061 b 525 965 468 996 486 965 m 519 365 l 500 593 b 500 790 494 658 492 707 l 489 790 b 417 579 481 746 458 672 l 319 365 "},"Ã":{"ha":885,"x_min":0,"x_max":0,"o":"m 350 1060 b 325 1114 326 1060 321 1074 b 456 1254 336 1211 379 1254 b 628 1183 558 1254 582 1183 b 667 1231 649 1183 663 1197 b 693 1254 669 1249 675 1254 l 758 1254 b 778 1203 781 1254 785 1240 b 650 1060 761 1101 724 1060 b 476 1131 550 1060 526 1131 b 436 1088 453 1131 439 1115 b 411 1060 435 1068 428 1060 l 350 1060 m -29 0 b -61 63 -67 0 -79 25 l 396 947 b 464 986 415 985 428 986 l 582 986 b 639 935 617 986 633 971 l 786 49 b 744 0 792 13 783 0 l 632 0 b 556 56 575 0 560 18 l 542 185 l 231 185 l 167 43 b 78 0 149 4 135 0 l -29 0 m 518 365 l 499 593 b 499 790 493 658 490 707 l 489 790 b 415 579 479 746 457 672 l 318 365 "},"Æ":{"ha":1169,"x_min":0,"x_max":0,"o":"m -42 0 b -74 61 -79 0 -94 25 l 615 946 b 688 986 643 979 650 986 l 1150 986 b 1188 922 1189 986 1194 965 l 1172 836 b 1114 786 1167 799 1149 786 l 829 786 l 797 599 l 1013 599 b 1053 536 1053 599 1061 578 l 1038 449 b 978 399 1032 413 1017 399 l 761 399 l 726 200 l 1015 200 b 1060 136 1063 200 1068 179 l 1044 49 b 988 0 1039 19 1028 0 l 542 0 b 496 64 501 0 489 21 l 517 185 l 263 185 l 167 43 b 65 0 142 7 131 0 l -42 0 m 549 358 l 606 651 l 403 358 "},"Ǽ":{"ha":1169,"x_min":0,"x_max":0,"o":"m 769 1099 b 775 1150 756 1118 757 1140 l 999 1267 b 1078 1253 1028 1283 1057 1282 l 1117 1197 b 1108 1143 1131 1176 1132 1151 l 850 1053 b 792 1064 819 1042 803 1047 m -42 0 b -74 61 -79 0 -94 25 l 615 946 b 688 986 643 979 650 986 l 1150 986 b 1188 922 1189 986 1194 965 l 1172 836 b 1114 786 1167 799 1149 786 l 829 786 l 797 599 l 1013 599 b 1053 536 1053 599 1061 578 l 1038 449 b 978 399 1032 413 1017 399 l 761 399 l 726 200 l 1015 200 b 1060 136 1063 200 1068 179 l 1044 49 b 988 0 1039 19 1028 0 l 542 0 b 496 64 501 0 489 21 l 517 185 l 263 185 l 167 43 b 65 0 142 7 131 0 l -42 0 m 549 358 l 606 651 l 403 358 "},"B":{"ha":864,"x_min":0,"x_max":0,"o":"m 63 0 b 17 64 13 0 11 22 l 171 938 b 228 986 178 972 196 986 l 551 986 b 821 753 725 986 821 901 b 686 515 821 649 778 574 l 685 510 b 779 325 749 471 779 418 b 419 0 779 128 640 0 l 63 0 m 483 590 b 601 694 551 590 597 625 b 513 793 607 760 578 793 l 364 793 l 328 590 m 419 194 b 568 326 507 194 568 247 b 474 408 568 379 536 408 l 296 408 l 257 194 "},"C":{"ha":849,"x_min":0,"x_max":0,"o":"m 367 -21 b 42 357 119 -21 1 126 l 93 643 b 513 1007 133 872 275 1007 b 849 761 708 1007 813 915 b 814 703 856 729 849 713 l 706 672 b 647 715 669 661 657 679 b 499 807 631 781 575 807 b 307 631 385 807 328 744 l 256 340 b 388 179 236 228 286 181 b 560 293 471 178 521 219 b 629 314 576 324 594 326 l 728 278 b 751 199 760 265 772 242 b 367 -21 681 53 551 -21 "},"Ć":{"ha":849,"x_min":0,"x_max":0,"o":"m 390 1099 b 396 1150 376 1118 378 1140 l 619 1267 b 699 1253 649 1283 678 1282 l 738 1197 b 729 1143 751 1176 753 1151 l 471 1053 b 413 1064 440 1042 424 1047 m 367 -21 b 42 357 119 -21 1 126 l 93 643 b 513 1007 133 872 275 1007 b 849 761 708 1007 813 915 b 814 703 856 729 849 713 l 706 672 b 647 715 669 661 657 679 b 499 807 631 781 575 807 b 307 631 385 807 328 744 l 256 340 b 388 179 236 228 286 181 b 560 293 471 178 521 219 b 629 314 576 324 594 326 l 728 278 b 751 199 760 265 772 242 b 367 -21 681 53 551 -21 "},"Č":{"ha":849,"x_min":0,"x_max":0,"o":"m 533 1050 b 456 1094 494 1050 481 1063 l 344 1229 b 367 1267 326 1250 325 1267 l 450 1267 b 517 1238 492 1267 499 1261 l 565 1175 l 636 1244 b 706 1267 661 1268 671 1267 l 790 1267 b 814 1219 833 1267 838 1239 l 658 1088 b 565 1050 621 1056 608 1050 l 533 1050 m 367 -21 b 42 357 119 -21 1 126 l 93 643 b 513 1007 133 872 275 1007 b 849 761 708 1007 813 915 b 814 703 856 729 849 713 l 706 672 b 647 715 669 661 657 679 b 499 807 631 781 575 807 b 307 631 385 807 328 744 l 256 340 b 388 179 236 228 286 181 b 560 293 471 178 521 219 b 629 314 576 324 594 326 l 728 278 b 751 199 760 265 772 242 b 367 -21 681 53 551 -21 "},"Ç":{"ha":849,"x_min":0,"x_max":0,"o":"m 289 -340 b 182 -317 239 -340 204 -328 b 161 -282 165 -310 158 -303 l 168 -229 b 190 -214 169 -214 179 -211 b 268 -231 215 -224 238 -231 b 335 -190 313 -231 335 -215 b 308 -165 336 -178 328 -168 b 261 -161 294 -161 278 -161 b 242 -117 235 -161 229 -137 l 307 -18 b 42 357 101 6 4 147 l 93 643 b 513 1007 133 872 275 1007 b 849 761 708 1007 813 915 b 814 703 856 729 849 713 l 706 672 b 647 715 669 661 657 679 b 499 807 631 781 575 807 b 307 631 385 807 328 744 l 256 340 b 388 179 236 228 286 181 b 560 293 471 178 521 219 b 629 314 576 324 594 326 l 728 278 b 751 199 760 265 772 242 b 424 -18 689 68 579 -6 l 389 -69 b 457 -87 415 -69 439 -76 b 503 -175 488 -106 503 -137 b 289 -340 503 -292 408 -340 "},"Ĉ":{"ha":849,"x_min":0,"x_max":0,"o":"m 342 1051 b 317 1099 299 1051 294 1079 l 483 1240 b 553 1269 508 1261 522 1269 l 601 1269 b 671 1233 636 1269 647 1263 l 789 1089 b 768 1051 806 1069 806 1051 l 683 1051 b 614 1086 642 1051 633 1063 l 568 1142 l 497 1075 b 424 1051 471 1050 457 1051 l 342 1051 m 367 -21 b 42 357 119 -21 1 126 l 93 643 b 513 1007 133 872 275 1007 b 849 761 708 1007 813 915 b 814 703 856 729 849 713 l 706 672 b 647 715 669 661 657 679 b 499 807 631 781 575 807 b 307 631 385 807 328 744 l 256 340 b 388 179 236 228 286 181 b 560 293 471 178 521 219 b 629 314 576 324 594 326 l 728 278 b 751 199 760 265 772 242 b 367 -21 681 53 551 -21 "},"Ċ":{"ha":849,"x_min":0,"x_max":0,"o":"m 550 1061 b 472 1158 481 1061 461 1089 l 475 1169 b 574 1251 488 1239 504 1251 l 582 1251 b 660 1156 651 1251 671 1224 l 658 1144 b 558 1061 646 1075 628 1061 l 550 1061 m 367 -21 b 42 357 119 -21 1 126 l 93 643 b 513 1007 133 872 275 1007 b 849 761 708 1007 813 915 b 814 703 856 729 849 713 l 706 672 b 647 715 669 661 657 679 b 499 807 631 781 575 807 b 307 631 385 807 328 744 l 256 340 b 388 179 236 228 286 181 b 560 293 471 178 521 219 b 629 314 576 324 594 326 l 728 278 b 751 199 760 265 772 242 b 367 -21 681 53 551 -21 "},"D":{"ha":892,"x_min":0,"x_max":0,"o":"m 60 0 b 17 63 18 0 10 17 l 171 938 b 236 986 178 976 200 986 l 521 986 b 846 608 761 986 886 838 l 803 364 b 368 0 763 135 615 0 l 60 0 m 383 200 b 589 378 497 200 568 260 l 632 624 b 503 786 651 732 614 786 l 361 786 l 258 200 "},"Ð":{"ha":897,"x_min":0,"x_max":0,"o":"m 61 0 b 22 64 21 0 15 22 l 86 429 l 47 429 b 15 475 10 429 11 449 l 29 551 b 65 579 33 578 42 579 l 114 579 l 176 938 b 239 986 185 979 206 986 l 528 986 b 851 608 768 986 892 838 l 808 364 b 369 0 768 135 614 0 l 61 0 m 390 200 b 594 378 503 200 572 261 l 636 624 b 507 786 657 733 619 786 l 367 786 l 331 579 l 449 579 b 478 540 478 579 483 567 l 464 457 b 426 429 460 433 451 429 l 304 429 l 264 200 "},"Ď":{"ha":892,"x_min":0,"x_max":0,"o":"m 504 1050 b 426 1094 465 1050 451 1063 l 315 1229 b 338 1267 297 1250 296 1267 l 421 1267 b 488 1238 463 1267 469 1261 l 536 1175 l 607 1244 b 676 1267 632 1268 642 1267 l 761 1267 b 785 1219 804 1267 808 1239 l 629 1088 b 536 1050 592 1056 579 1050 l 504 1050 m 60 0 b 17 63 18 0 10 17 l 171 938 b 236 986 178 976 200 986 l 521 986 b 846 608 761 986 886 838 l 803 364 b 368 0 763 135 615 0 l 60 0 m 383 200 b 589 378 497 200 568 260 l 632 624 b 503 786 651 732 614 786 l 361 786 l 258 200 "},"Đ":{"ha":897,"x_min":0,"x_max":0,"o":"m 61 0 b 22 64 21 0 15 22 l 86 429 l 47 429 b 15 475 10 429 11 449 l 29 551 b 65 579 33 578 42 579 l 114 579 l 176 938 b 239 986 185 979 206 986 l 528 986 b 851 608 768 986 892 838 l 808 364 b 369 0 768 135 614 0 l 61 0 m 390 200 b 594 378 503 200 572 261 l 636 624 b 507 786 657 733 619 786 l 367 786 l 331 579 l 449 579 b 478 540 478 579 483 567 l 464 457 b 426 429 460 433 451 429 l 304 429 l 264 200 "},"E":{"ha":768,"x_min":0,"x_max":0,"o":"m 58 0 b 17 60 18 0 10 18 l 171 936 b 239 986 178 978 199 986 l 744 986 b 786 924 789 986 793 965 l 771 836 b 714 786 764 799 750 786 l 361 786 l 329 599 l 608 599 b 653 542 649 599 660 583 l 636 450 b 581 399 629 413 615 399 l 294 399 l 258 200 l 613 200 b 660 140 658 200 667 182 l 643 49 b 586 0 636 10 618 0 l 58 0 "},"É":{"ha":768,"x_min":0,"x_max":0,"o":"m 344 1099 b 350 1150 331 1118 332 1140 l 574 1267 b 653 1253 603 1283 632 1282 l 692 1197 b 683 1143 706 1176 707 1151 l 425 1053 b 367 1064 394 1042 378 1047 m 58 0 b 17 60 18 0 10 18 l 171 936 b 239 986 178 978 199 986 l 744 986 b 786 924 789 986 793 965 l 771 836 b 714 786 764 799 750 786 l 361 786 l 329 599 l 608 599 b 653 542 649 599 660 583 l 636 450 b 581 399 629 413 615 399 l 294 399 l 258 200 l 613 200 b 660 140 658 200 667 182 l 643 49 b 586 0 636 10 618 0 l 58 0 "},"Ĕ":{"ha":768,"x_min":0,"x_max":0,"o":"m 514 1053 b 315 1197 411 1053 340 1106 b 332 1243 307 1226 311 1236 l 406 1268 b 450 1246 429 1275 440 1271 b 521 1194 464 1213 486 1194 b 610 1254 561 1194 590 1217 b 657 1265 624 1275 631 1276 l 733 1235 b 747 1185 757 1225 761 1215 b 514 1053 707 1104 619 1053 m 58 0 b 17 60 18 0 10 18 l 171 936 b 239 986 178 978 199 986 l 744 986 b 786 924 789 986 793 965 l 771 836 b 714 786 764 799 750 786 l 361 786 l 329 599 l 608 599 b 653 542 649 599 660 583 l 636 450 b 581 399 629 413 615 399 l 294 399 l 258 200 l 613 200 b 660 140 658 200 667 182 l 643 49 b 586 0 636 10 618 0 l 58 0 "},"Ě":{"ha":768,"x_min":0,"x_max":0,"o":"m 488 1050 b 410 1094 449 1050 435 1063 l 299 1229 b 321 1267 281 1250 279 1267 l 404 1267 b 471 1238 446 1267 453 1261 l 519 1175 l 590 1244 b 660 1267 615 1268 625 1267 l 744 1267 b 768 1219 788 1267 792 1239 l 613 1088 b 519 1050 575 1056 563 1050 l 488 1050 m 58 0 b 17 60 18 0 10 18 l 171 936 b 239 986 178 978 199 986 l 744 986 b 786 924 789 986 793 965 l 771 836 b 714 786 764 799 750 786 l 361 786 l 329 599 l 608 599 b 653 542 649 599 660 583 l 636 450 b 581 399 629 413 615 399 l 294 399 l 258 200 l 613 200 b 660 140 658 200 667 182 l 643 49 b 586 0 636 10 618 0 l 58 0 "},"Ê":{"ha":768,"x_min":0,"x_max":0,"o":"m 296 1051 b 271 1099 253 1051 249 1079 l 438 1240 b 507 1269 463 1261 476 1269 l 556 1269 b 625 1233 590 1269 601 1263 l 743 1089 b 722 1051 760 1069 760 1051 l 638 1051 b 568 1086 596 1051 588 1063 l 522 1142 l 451 1075 b 378 1051 425 1050 411 1051 l 296 1051 m 58 0 b 17 60 18 0 10 18 l 171 936 b 239 986 178 978 199 986 l 744 986 b 786 924 789 986 793 965 l 771 836 b 714 786 764 799 750 786 l 361 786 l 329 599 l 608 599 b 653 542 649 599 660 583 l 636 450 b 581 399 629 413 615 399 l 294 399 l 258 200 l 613 200 b 660 140 658 200 667 182 l 643 49 b 586 0 636 10 618 0 l 58 0 "},"Ë":{"ha":768,"x_min":0,"x_max":0,"o":"m 361 1064 b 286 1157 294 1064 275 1092 l 289 1171 b 383 1250 300 1236 317 1250 l 393 1250 b 469 1157 460 1250 482 1222 l 467 1142 b 371 1064 456 1078 436 1064 l 361 1064 m 646 1064 b 569 1157 579 1064 558 1092 l 572 1171 b 669 1250 583 1236 603 1250 l 679 1250 b 754 1157 744 1250 765 1222 l 751 1142 b 656 1064 739 1078 722 1064 l 646 1064 m 58 0 b 17 60 18 0 10 18 l 171 936 b 239 986 178 978 199 986 l 744 986 b 786 924 789 986 793 965 l 771 836 b 714 786 764 799 750 786 l 361 786 l 329 599 l 608 599 b 653 542 649 599 660 583 l 636 450 b 581 399 629 413 615 399 l 294 399 l 258 200 l 613 200 b 660 140 658 200 667 182 l 643 49 b 586 0 636 10 618 0 l 58 0 "},"Ė":{"ha":768,"x_min":0,"x_max":0,"o":"m 504 1061 b 426 1158 435 1061 415 1089 l 429 1169 b 528 1251 442 1239 458 1251 l 536 1251 b 614 1156 606 1251 625 1224 l 613 1144 b 513 1061 600 1075 582 1061 l 504 1061 m 58 0 b 17 60 18 0 10 18 l 171 936 b 239 986 178 978 199 986 l 744 986 b 786 924 789 986 793 965 l 771 836 b 714 786 764 799 750 786 l 361 786 l 329 599 l 608 599 b 653 542 649 599 660 583 l 636 450 b 581 399 629 413 615 399 l 294 399 l 258 200 l 613 200 b 660 140 658 200 667 182 l 643 49 b 586 0 636 10 618 0 l 58 0 "},"È":{"ha":768,"x_min":0,"x_max":0,"o":"m 369 1149 b 364 1208 342 1160 338 1181 l 422 1264 b 510 1257 456 1297 482 1276 l 686 1142 b 689 1088 707 1129 713 1113 l 663 1060 b 596 1060 646 1043 626 1047 m 58 0 b 17 60 18 0 10 18 l 171 936 b 239 986 178 978 199 986 l 744 986 b 786 924 789 986 793 965 l 771 836 b 714 786 764 799 750 786 l 361 786 l 329 599 l 608 599 b 653 542 649 599 660 583 l 636 450 b 581 399 629 413 615 399 l 294 399 l 258 200 l 613 200 b 660 140 658 200 667 182 l 643 49 b 586 0 636 10 618 0 l 58 0 "},"Ē":{"ha":768,"x_min":0,"x_max":0,"o":"m 349 1085 b 307 1140 311 1085 301 1103 l 315 1183 b 378 1224 321 1221 346 1224 l 689 1224 b 731 1169 728 1224 738 1207 l 724 1128 b 668 1085 718 1093 697 1085 l 349 1085 m 58 0 b 17 60 18 0 10 18 l 171 936 b 239 986 178 978 199 986 l 744 986 b 786 924 789 986 793 965 l 771 836 b 714 786 764 799 750 786 l 361 786 l 329 599 l 608 599 b 653 542 649 599 660 583 l 636 450 b 581 399 629 413 615 399 l 294 399 l 258 200 l 613 200 b 660 140 658 200 667 182 l 643 49 b 586 0 636 10 618 0 l 58 0 "},"Ę":{"ha":768,"x_min":0,"x_max":0,"o":"m 447 -340 b 326 -246 374 -340 331 -311 b 476 0 324 -171 376 -83 l 56 0 b 17 64 19 0 10 18 l 171 938 b 239 986 178 976 194 986 l 749 986 b 786 922 785 986 794 969 l 771 836 b 714 786 764 799 750 786 l 361 786 l 329 599 l 611 599 b 651 536 650 599 660 581 l 636 449 b 581 399 631 413 615 399 l 294 399 l 258 200 l 615 200 b 660 139 657 200 668 182 l 643 49 b 624 -1 639 26 638 11 b 500 -179 554 -69 501 -136 b 518 -200 500 -194 506 -200 b 553 -190 532 -200 544 -194 b 579 -207 565 -185 575 -189 l 593 -262 b 578 -310 599 -285 596 -297 b 447 -340 547 -329 496 -340 "},"F":{"ha":738,"x_min":0,"x_max":0,"o":"m 60 0 b 17 63 19 0 10 21 l 171 938 b 238 986 178 979 200 986 l 731 986 b 775 929 771 986 782 971 l 758 836 b 701 786 751 797 736 786 l 361 786 l 325 582 l 592 582 b 638 524 633 582 646 567 l 621 432 b 561 382 614 393 597 382 l 289 382 l 232 47 b 178 0 224 7 217 0 l 60 0 "},"G":{"ha":881,"x_min":0,"x_max":0,"o":"m 365 -21 b 42 357 122 -21 0 124 l 93 643 b 514 1007 135 876 279 1007 b 843 785 692 1007 804 931 b 814 703 858 733 851 714 l 703 671 b 649 717 675 664 660 676 b 503 807 631 778 582 807 b 307 631 390 807 329 749 l 256 342 b 394 179 238 233 285 179 b 582 307 499 179 569 228 l 592 367 l 443 367 b 399 429 404 367 390 386 l 413 513 b 478 561 419 550 433 561 l 782 561 b 825 497 819 561 833 544 l 790 300 b 365 -21 754 104 594 -21 "},"Ğ":{"ha":881,"x_min":0,"x_max":0,"o":"m 558 1067 b 360 1211 456 1067 385 1119 b 376 1257 351 1240 356 1250 l 450 1282 b 494 1260 474 1289 485 1285 b 565 1208 508 1226 531 1208 b 654 1268 606 1208 635 1231 b 701 1279 668 1289 675 1290 l 778 1249 b 792 1199 801 1239 806 1229 b 558 1067 751 1118 664 1067 m 365 -21 b 42 357 122 -21 0 124 l 93 643 b 514 1007 135 876 279 1007 b 843 785 692 1007 804 931 b 814 703 858 733 851 714 l 703 671 b 649 717 675 664 660 676 b 503 807 631 778 582 807 b 307 631 390 807 329 749 l 256 342 b 394 179 238 233 285 179 b 582 307 499 179 569 228 l 592 367 l 443 367 b 399 429 404 367 390 386 l 413 513 b 478 561 419 550 433 561 l 782 561 b 825 497 819 561 833 544 l 790 300 b 365 -21 754 104 594 -21 "},"Ĝ":{"ha":881,"x_min":0,"x_max":0,"o":"m 340 1065 b 315 1113 297 1065 293 1093 l 482 1254 b 551 1283 507 1275 521 1283 l 600 1283 b 669 1247 635 1283 646 1276 l 788 1103 b 767 1065 804 1083 804 1065 l 682 1065 b 613 1100 640 1065 632 1076 l 567 1156 l 496 1089 b 422 1065 469 1064 456 1065 l 340 1065 m 365 -21 b 42 357 122 -21 0 124 l 93 643 b 514 1007 135 876 279 1007 b 843 785 692 1007 804 931 b 814 703 858 733 851 714 l 703 671 b 649 717 675 664 660 676 b 503 807 631 778 582 807 b 307 631 390 807 329 749 l 256 342 b 394 179 238 233 285 179 b 582 307 499 179 569 228 l 592 367 l 443 367 b 399 429 404 367 390 386 l 413 513 b 478 561 419 550 433 561 l 782 561 b 825 497 819 561 833 544 l 790 300 b 365 -21 754 104 594 -21 "},"Ģ":{"ha":881,"x_min":0,"x_max":0,"o":"m 365 -21 b 42 357 122 -21 0 124 l 93 643 b 514 1007 135 876 279 1007 b 843 785 692 1007 804 931 b 814 703 858 733 851 714 l 703 671 b 649 717 675 664 660 676 b 503 807 631 778 582 807 b 307 631 390 807 329 749 l 256 342 b 394 179 238 233 285 179 b 582 307 499 179 569 228 l 592 367 l 443 367 b 399 429 404 367 390 386 l 413 513 b 478 561 419 550 433 561 l 782 561 b 825 497 819 561 833 544 l 790 300 b 365 -21 754 104 594 -21 m 210 -361 b 178 -318 181 -361 171 -344 l 235 -122 b 299 -76 247 -81 258 -76 l 392 -76 b 436 -136 439 -76 454 -101 l 338 -322 b 276 -361 319 -356 310 -361 l 210 -361 "},"Ġ":{"ha":881,"x_min":0,"x_max":0,"o":"m 549 1075 b 471 1172 479 1075 460 1103 l 474 1183 b 572 1265 486 1253 503 1265 l 581 1265 b 658 1169 650 1265 669 1238 l 657 1158 b 557 1075 644 1089 626 1075 l 549 1075 m 365 -21 b 42 357 122 -21 0 124 l 93 643 b 514 1007 135 876 279 1007 b 843 785 692 1007 804 931 b 814 703 858 733 851 714 l 703 671 b 649 717 675 664 660 676 b 503 807 631 778 582 807 b 307 631 390 807 329 749 l 256 342 b 394 179 238 233 285 179 b 582 307 499 179 569 228 l 592 367 l 443 367 b 399 429 404 367 390 386 l 413 513 b 478 561 419 550 433 561 l 782 561 b 825 497 819 561 833 544 l 790 300 b 365 -21 754 104 594 -21 "},"H":{"ha":914,"x_min":0,"x_max":0,"o":"m 63 0 b 17 64 22 0 8 11 l 171 935 b 235 986 178 978 197 986 l 340 986 b 386 925 388 986 393 967 l 329 599 l 622 599 l 682 936 b 750 986 689 978 710 986 l 854 986 b 897 925 896 986 904 967 l 744 57 b 685 0 738 17 724 0 l 574 0 b 528 60 529 0 519 14 l 588 400 l 294 400 l 232 49 b 175 0 225 17 214 0 l 63 0 "},"Ħ":{"ha":917,"x_min":0,"x_max":0,"o":"m 56 0 b 18 64 17 0 11 21 l 136 735 l 92 735 b 68 776 67 735 63 747 l 78 829 b 111 857 82 856 89 857 l 158 857 l 172 938 b 235 986 179 978 199 986 l 343 986 b 388 928 383 986 394 969 l 375 857 l 668 857 l 682 938 b 749 986 690 979 711 986 l 857 986 b 897 922 897 986 904 965 l 886 857 l 931 857 b 954 814 957 857 960 843 l 944 763 b 913 735 940 740 935 735 l 864 735 l 743 49 b 679 0 736 8 717 0 l 567 0 b 528 64 526 0 521 21 l 588 400 l 294 400 l 232 49 b 169 0 225 7 210 0 l 56 0 m 624 599 l 647 735 l 353 735 l 329 599 "},"Ĥ":{"ha":914,"x_min":0,"x_max":0,"o":"m 349 1051 b 324 1099 306 1051 301 1079 l 490 1240 b 560 1269 515 1261 529 1269 l 608 1269 b 678 1233 643 1269 654 1263 l 796 1089 b 775 1051 813 1069 813 1051 l 690 1051 b 621 1086 649 1051 640 1063 l 575 1142 l 504 1075 b 431 1051 478 1050 464 1051 l 349 1051 m 63 0 b 17 64 22 0 8 11 l 171 935 b 235 986 178 978 197 986 l 340 986 b 386 925 388 986 393 967 l 329 599 l 622 599 l 682 936 b 750 986 689 978 710 986 l 854 986 b 897 925 896 986 904 967 l 744 57 b 685 0 738 17 724 0 l 574 0 b 528 60 529 0 519 14 l 588 400 l 294 400 l 232 49 b 175 0 225 17 214 0 l 63 0 "},"I":{"ha":404,"x_min":0,"x_max":0,"o":"m 60 0 b 17 61 21 0 10 14 l 172 940 b 235 986 179 982 206 986 l 343 986 b 386 926 381 986 394 972 l 232 46 b 175 0 225 11 206 0 l 60 0 "},"Ĳ":{"ha":1158,"x_min":0,"x_max":0,"o":"m 60 0 b 17 61 21 0 10 14 l 172 940 b 235 986 179 982 206 986 l 343 986 b 386 926 381 986 394 972 l 232 46 b 175 0 225 11 206 0 l 60 0 m 654 -21 b 369 215 483 -21 401 72 b 401 275 361 249 369 265 l 510 310 b 571 269 543 321 560 314 b 676 179 588 208 618 179 b 826 339 763 179 808 235 l 933 939 b 993 986 940 979 964 986 l 1108 986 b 1147 925 1146 986 1154 965 l 1042 326 b 654 -21 1003 101 872 -21 "},"Í":{"ha":404,"x_min":0,"x_max":0,"o":"m 144 1099 b 150 1150 131 1118 132 1140 l 374 1267 b 453 1253 403 1283 432 1282 l 492 1197 b 483 1143 506 1176 507 1151 l 225 1053 b 167 1064 194 1042 178 1047 m 60 0 b 17 61 21 0 10 14 l 172 940 b 235 986 179 982 206 986 l 343 986 b 386 926 381 986 394 972 l 232 46 b 175 0 225 11 206 0 l 60 0 "},"Ĭ":{"ha":404,"x_min":0,"x_max":0,"o":"m 315 1053 b 117 1197 213 1053 142 1106 b 133 1243 108 1226 113 1236 l 207 1268 b 251 1246 231 1275 242 1271 b 322 1194 265 1213 288 1194 b 411 1254 363 1194 392 1217 b 458 1265 425 1275 432 1276 l 535 1235 b 549 1185 558 1225 563 1215 b 315 1053 508 1104 421 1053 m 60 0 b 17 61 21 0 10 14 l 172 940 b 235 986 179 982 206 986 l 343 986 b 386 926 381 986 394 972 l 232 46 b 175 0 225 11 206 0 l 60 0 "},"Î":{"ha":404,"x_min":0,"x_max":0,"o":"m 96 1051 b 71 1099 53 1051 49 1079 l 238 1240 b 307 1269 263 1261 276 1269 l 356 1269 b 425 1233 390 1269 401 1263 l 543 1089 b 522 1051 560 1069 560 1051 l 438 1051 b 368 1086 396 1051 388 1063 l 322 1142 l 251 1075 b 178 1051 225 1050 211 1051 l 96 1051 m 60 0 b 17 61 21 0 10 14 l 172 940 b 235 986 179 982 206 986 l 343 986 b 386 926 381 986 394 972 l 232 46 b 175 0 225 11 206 0 l 60 0 "},"Ï":{"ha":404,"x_min":0,"x_max":0,"o":"m 163 1064 b 88 1157 96 1064 76 1092 l 90 1171 b 185 1250 101 1236 118 1250 l 194 1250 b 271 1157 261 1250 283 1222 l 268 1142 b 172 1064 257 1078 238 1064 l 163 1064 m 447 1064 b 371 1157 381 1064 360 1092 l 374 1171 b 471 1250 385 1236 404 1250 l 481 1250 b 556 1157 546 1250 567 1222 l 553 1142 b 457 1064 540 1078 524 1064 l 447 1064 m 60 0 b 17 61 21 0 10 14 l 172 940 b 235 986 179 982 206 986 l 343 986 b 386 926 381 986 394 972 l 232 46 b 175 0 225 11 206 0 l 60 0 "},"İ":{"ha":404,"x_min":0,"x_max":0,"o":"m 304 1061 b 226 1158 235 1061 215 1089 l 229 1169 b 328 1251 242 1239 258 1251 l 336 1251 b 414 1156 406 1251 425 1224 l 413 1144 b 313 1061 400 1075 382 1061 l 304 1061 m 60 0 b 17 61 21 0 10 14 l 172 940 b 235 986 179 982 206 986 l 343 986 b 386 926 381 986 394 972 l 232 46 b 175 0 225 11 206 0 l 60 0 "},"Ì":{"ha":404,"x_min":0,"x_max":0,"o":"m 169 1149 b 164 1208 142 1160 138 1181 l 222 1264 b 310 1257 256 1297 282 1276 l 486 1142 b 489 1088 507 1129 513 1113 l 463 1060 b 396 1060 446 1043 426 1047 m 60 0 b 17 61 21 0 10 14 l 172 940 b 235 986 179 982 206 986 l 343 986 b 386 926 381 986 394 972 l 232 46 b 175 0 225 11 206 0 l 60 0 "},"Ī":{"ha":404,"x_min":0,"x_max":0,"o":"m 150 1085 b 108 1140 113 1085 103 1103 l 117 1183 b 179 1224 122 1221 147 1224 l 490 1224 b 532 1169 529 1224 539 1207 l 525 1128 b 469 1085 519 1093 499 1085 l 150 1085 m 60 0 b 17 61 21 0 10 14 l 172 940 b 235 986 179 982 206 986 l 343 986 b 386 926 381 986 394 972 l 232 46 b 175 0 225 11 206 0 l 60 0 "},"Į":{"ha":404,"x_min":0,"x_max":0,"o":"m 44 -340 b -78 -237 -32 -340 -78 -311 b 72 0 -78 -167 -31 -85 b 17 63 14 -1 10 21 l 172 938 b 240 986 179 979 199 986 l 344 986 b 385 924 386 986 392 965 l 233 49 b 214 -4 229 26 226 8 b 96 -186 139 -72 93 -147 b 114 -200 97 -196 104 -200 b 150 -190 126 -200 142 -193 b 174 -204 165 -183 169 -192 l 190 -264 b 183 -303 196 -285 194 -294 b 44 -340 158 -324 101 -340 "},"Ĩ":{"ha":404,"x_min":0,"x_max":0,"o":"m 113 1060 b 88 1114 89 1060 83 1074 b 218 1254 99 1211 142 1254 b 390 1183 321 1254 344 1183 b 429 1231 411 1183 425 1197 b 456 1254 432 1249 438 1254 l 521 1254 b 540 1203 543 1254 547 1240 b 413 1060 524 1101 486 1060 b 239 1131 313 1060 289 1131 b 199 1088 215 1131 201 1115 b 174 1060 197 1068 190 1060 l 113 1060 m 60 0 b 17 61 21 0 10 14 l 172 940 b 235 986 179 982 206 986 l 343 986 b 386 926 381 986 394 972 l 232 46 b 175 0 225 11 206 0 l 60 0 "},"J":{"ha":765,"x_min":0,"x_max":0,"o":"m 263 -21 b -24 215 90 -21 8 72 b 8 275 -31 249 -24 265 l 117 310 b 179 269 151 321 167 314 b 283 179 194 208 225 179 b 435 339 369 179 415 235 l 542 939 b 601 986 549 979 571 986 l 717 986 b 756 925 753 986 763 965 l 650 326 b 263 -21 610 101 479 -21 "},"Ĵ":{"ha":765,"x_min":0,"x_max":0,"o":"m 464 1051 b 439 1099 421 1051 417 1079 l 606 1240 b 675 1269 631 1261 644 1269 l 724 1269 b 793 1233 758 1269 769 1263 l 911 1089 b 890 1051 928 1069 928 1051 l 806 1051 b 736 1086 764 1051 756 1063 l 690 1142 l 619 1075 b 546 1051 593 1050 579 1051 l 464 1051 m 263 -21 b -24 215 90 -21 8 72 b 8 275 -31 249 -24 265 l 117 310 b 179 269 151 321 167 314 b 283 179 194 208 225 179 b 435 339 369 179 415 235 l 542 939 b 601 986 549 979 571 986 l 717 986 b 756 925 753 986 763 965 l 650 326 b 263 -21 610 101 479 -21 "},"K":{"ha":846,"x_min":0,"x_max":0,"o":"m 63 0 b 17 63 19 0 8 15 l 172 939 b 232 986 179 979 200 986 l 344 986 b 386 925 385 986 393 967 l 328 597 l 365 597 l 376 597 l 638 946 b 733 986 668 986 676 986 l 857 986 b 883 926 896 986 904 954 l 565 543 b 639 390 600 513 619 460 l 736 51 b 704 0 746 19 744 0 l 576 0 b 510 56 526 0 518 14 l 439 324 b 354 401 422 389 411 401 l 294 401 l 232 47 b 174 0 224 7 201 0 l 63 0 "},"Ķ":{"ha":846,"x_min":0,"x_max":0,"o":"m 63 0 b 17 63 19 0 8 15 l 172 939 b 232 986 179 979 200 986 l 344 986 b 386 925 385 986 393 967 l 328 597 l 365 597 l 376 597 l 638 946 b 733 986 668 986 676 986 l 857 986 b 883 926 896 986 904 954 l 565 543 b 639 390 600 513 619 460 l 736 51 b 704 0 746 19 744 0 l 576 0 b 510 56 526 0 518 14 l 439 324 b 354 401 422 389 411 401 l 294 401 l 232 47 b 174 0 224 7 201 0 l 63 0 m 211 -361 b 179 -318 182 -361 172 -344 l 236 -122 b 300 -76 249 -81 260 -76 l 393 -76 b 438 -136 440 -76 456 -101 l 339 -322 b 278 -361 321 -356 311 -361 l 211 -361 "},"L":{"ha":700,"x_min":0,"x_max":0,"o":"m 56 0 b 18 63 18 0 11 21 l 172 938 b 236 986 179 979 199 986 l 347 986 b 386 925 385 986 393 967 l 258 200 l 571 200 b 617 140 617 200 624 178 l 600 47 b 544 0 594 13 578 0 l 56 0 "},"Ĺ":{"ha":700,"x_min":0,"x_max":0,"o":"m 142 1099 b 147 1150 128 1118 129 1140 l 371 1267 b 450 1253 400 1283 429 1282 l 489 1197 b 481 1143 503 1176 504 1151 l 222 1053 b 164 1064 192 1042 175 1047 m 56 0 b 18 63 18 0 11 21 l 172 938 b 236 986 179 979 199 986 l 347 986 b 386 925 385 986 393 967 l 258 200 l 571 200 b 617 140 617 200 624 178 l 600 47 b 544 0 594 13 578 0 l 56 0 "},"Ľ":{"ha":700,"x_min":0,"x_max":0,"o":"m 56 0 b 17 63 18 0 10 21 l 172 938 b 236 986 179 979 197 986 l 347 986 b 386 925 385 986 393 967 l 257 200 l 571 200 b 617 140 617 200 624 178 l 600 47 b 544 0 594 13 576 0 l 56 0 m 481 665 b 450 710 451 665 442 682 l 515 940 b 581 986 528 982 538 986 l 668 986 b 714 924 718 986 732 958 l 603 704 b 536 665 583 667 575 665 l 481 665 "},"Ļ":{"ha":700,"x_min":0,"x_max":0,"o":"m 56 0 b 18 63 18 0 11 21 l 172 938 b 236 986 179 979 199 986 l 347 986 b 386 925 385 986 393 967 l 258 200 l 571 200 b 617 140 617 200 624 178 l 600 47 b 544 0 594 13 578 0 l 56 0 m 147 -361 b 115 -318 118 -361 108 -344 l 172 -122 b 236 -76 185 -81 196 -76 l 329 -76 b 374 -136 376 -76 392 -101 l 275 -322 b 214 -361 257 -356 247 -361 l 147 -361 "},"Ŀ":{"ha":700,"x_min":0,"x_max":0,"o":"m 56 0 b 18 63 18 0 11 21 l 172 938 b 236 986 179 979 199 986 l 347 986 b 386 925 385 986 393 967 l 258 200 l 571 200 b 617 140 617 200 624 178 l 600 47 b 544 0 594 13 578 0 l 56 0 m 483 433 b 396 543 407 433 382 465 l 400 564 b 513 658 414 640 436 658 l 531 658 b 619 550 608 658 633 626 l 615 529 b 501 433 601 451 579 433 l 483 433 "},"Ł":{"ha":729,"x_min":0,"x_max":0,"o":"m 90 0 b 47 60 49 0 40 18 l 97 340 l 57 322 b 7 347 24 308 14 324 l -14 408 b 3 453 -21 429 -18 444 l 125 501 l 203 938 b 267 986 210 979 224 986 l 374 986 b 415 922 415 986 422 965 l 358 599 l 507 667 b 557 643 539 681 553 664 l 579 578 b 561 535 585 557 583 544 l 331 439 l 288 200 l 601 200 b 646 136 643 200 653 182 l 629 49 b 568 0 622 11 610 0 l 90 0 "},"M":{"ha":1090,"x_min":0,"x_max":0,"o":"m 58 0 b 17 60 18 0 10 18 l 171 938 b 238 986 179 979 199 986 l 335 986 b 393 939 378 986 385 972 l 532 449 l 846 949 b 919 986 869 985 882 986 l 1032 986 b 1072 924 1074 986 1081 965 l 919 51 b 856 0 913 13 899 0 l 758 0 b 711 60 724 0 701 8 l 772 397 b 861 692 786 479 807 561 l 851 692 b 708 426 801 586 760 506 l 594 250 b 533 217 576 221 567 217 l 463 217 b 411 263 431 217 419 231 l 357 438 b 307 692 332 518 315 579 l 296 692 b 278 382 304 558 293 472 l 219 49 b 160 0 211 10 196 0 l 58 0 "},"N":{"ha":928,"x_min":0,"x_max":0,"o":"m 57 0 b 17 61 17 0 10 18 l 171 938 b 236 986 178 979 197 986 l 357 986 b 403 953 385 986 399 972 l 561 525 b 618 285 596 429 604 369 l 629 285 b 640 586 621 381 619 460 l 703 939 b 768 986 710 979 729 986 l 872 986 b 911 924 910 986 918 967 l 757 50 b 699 0 750 19 739 0 l 575 0 b 529 33 549 0 535 13 l 375 460 b 318 703 342 551 326 622 l 308 703 b 286 400 314 611 307 521 l 225 49 b 164 0 217 8 201 0 l 57 0 "},"Ń":{"ha":928,"x_min":0,"x_max":0,"o":"m 408 1099 b 414 1150 394 1118 396 1140 l 638 1267 b 717 1253 667 1283 696 1282 l 756 1197 b 747 1143 769 1176 771 1151 l 489 1053 b 431 1064 458 1042 442 1047 m 57 0 b 17 61 17 0 10 18 l 171 938 b 236 986 178 979 197 986 l 357 986 b 403 953 385 986 399 972 l 561 525 b 618 285 596 429 604 369 l 629 285 b 640 586 621 381 619 460 l 703 939 b 768 986 710 979 729 986 l 872 986 b 911 924 910 986 918 967 l 757 50 b 699 0 750 19 739 0 l 575 0 b 529 33 549 0 535 13 l 375 460 b 318 703 342 551 326 622 l 308 703 b 286 400 314 611 307 521 l 225 49 b 164 0 217 8 201 0 l 57 0 "},"Ň":{"ha":928,"x_min":0,"x_max":0,"o":"m 551 1050 b 474 1094 513 1050 499 1063 l 363 1229 b 385 1267 344 1250 343 1267 l 468 1267 b 535 1238 510 1267 517 1261 l 583 1175 l 654 1244 b 724 1267 679 1268 689 1267 l 808 1267 b 832 1219 851 1267 856 1239 l 676 1088 b 583 1050 639 1056 626 1050 l 551 1050 m 57 0 b 17 61 17 0 10 18 l 171 938 b 236 986 178 979 197 986 l 357 986 b 403 953 385 986 399 972 l 561 525 b 618 285 596 429 604 369 l 629 285 b 640 586 621 381 619 460 l 703 939 b 768 986 710 979 729 986 l 872 986 b 911 924 910 986 918 967 l 757 50 b 699 0 750 19 739 0 l 575 0 b 529 33 549 0 535 13 l 375 460 b 318 703 342 551 326 622 l 308 703 b 286 400 314 611 307 521 l 225 49 b 164 0 217 8 201 0 l 57 0 "},"Ņ":{"ha":928,"x_min":0,"x_max":0,"o":"m 57 0 b 17 61 17 0 10 18 l 171 938 b 236 986 178 979 197 986 l 357 986 b 403 953 385 986 399 972 l 561 525 b 618 285 596 429 604 369 l 629 285 b 640 586 621 381 619 460 l 703 939 b 768 986 710 979 729 986 l 872 986 b 911 924 910 986 918 967 l 757 50 b 699 0 750 19 739 0 l 575 0 b 529 33 549 0 535 13 l 375 460 b 318 703 342 551 326 622 l 308 703 b 286 400 314 611 307 521 l 225 49 b 164 0 217 8 201 0 l 57 0 m 239 -361 b 207 -318 210 -361 200 -344 l 264 -122 b 328 -76 276 -81 288 -76 l 421 -76 b 465 -136 468 -76 483 -101 l 367 -322 b 306 -361 349 -356 339 -361 l 239 -361 "},"Ŋ":{"ha":928,"x_min":0,"x_max":0,"o":"m 394 -319 b 343 -260 350 -319 336 -300 l 357 -181 b 407 -135 364 -140 372 -135 b 536 -6 504 -135 526 -81 l 539 8 l 375 460 b 318 703 343 550 328 618 l 308 701 b 286 400 313 619 307 521 l 225 49 b 164 0 217 8 201 0 l 56 0 b 17 64 15 0 10 21 l 171 938 b 235 986 178 979 194 986 l 357 986 b 403 953 385 986 399 972 l 561 525 b 618 285 596 429 606 369 l 629 285 b 640 586 621 381 619 460 l 703 938 b 767 986 711 979 728 986 l 872 986 b 911 922 913 986 918 964 l 739 -44 b 394 -319 704 -240 622 -319 "},"Ñ":{"ha":928,"x_min":0,"x_max":0,"o":"m 375 1060 b 350 1114 351 1060 346 1074 b 481 1254 361 1211 404 1254 b 653 1183 583 1254 607 1183 b 692 1231 674 1183 688 1197 b 718 1254 694 1249 700 1254 l 783 1254 b 803 1203 806 1254 810 1240 b 675 1060 786 1101 749 1060 b 501 1131 575 1060 551 1131 b 461 1088 478 1131 464 1115 b 436 1060 460 1068 453 1060 l 375 1060 m 57 0 b 17 61 17 0 10 18 l 171 938 b 236 986 178 979 197 986 l 357 986 b 403 953 385 986 399 972 l 561 525 b 618 285 596 429 604 369 l 629 285 b 640 586 621 381 619 460 l 703 939 b 768 986 710 979 729 986 l 872 986 b 911 924 910 986 918 967 l 757 50 b 699 0 750 19 739 0 l 575 0 b 529 33 549 0 535 13 l 375 460 b 318 703 342 551 326 622 l 308 703 b 286 400 314 611 307 521 l 225 49 b 164 0 217 8 201 0 l 57 0 "},"O":{"ha":893,"x_min":0,"x_max":0,"o":"m 369 -21 b 42 357 115 -21 1 128 l 93 643 b 521 1007 133 872 274 1007 b 850 629 761 1007 890 860 l 799 343 b 369 -21 760 114 611 -21 m 389 179 b 585 354 499 179 565 242 l 636 647 b 501 807 656 757 599 807 b 308 632 390 807 328 744 l 256 340 b 389 179 238 236 283 179 "},"Ó":{"ha":893,"x_min":0,"x_max":0,"o":"m 389 1113 b 394 1164 375 1132 376 1154 l 618 1281 b 697 1267 647 1297 676 1296 l 736 1211 b 728 1157 750 1190 751 1165 l 469 1067 b 411 1078 439 1056 422 1061 m 369 -21 b 42 357 115 -21 1 128 l 93 643 b 521 1007 133 872 274 1007 b 850 629 761 1007 890 860 l 799 343 b 369 -21 760 114 611 -21 m 389 179 b 585 354 499 179 565 242 l 636 647 b 501 807 656 757 599 807 b 308 632 390 807 328 744 l 256 340 b 389 179 238 236 283 179 "},"Ŏ":{"ha":893,"x_min":0,"x_max":0,"o":"m 558 1067 b 360 1211 456 1067 385 1119 b 376 1257 351 1240 356 1250 l 450 1282 b 494 1260 474 1289 485 1285 b 565 1208 508 1226 531 1208 b 654 1268 606 1208 635 1231 b 701 1279 668 1289 675 1290 l 778 1249 b 792 1199 801 1239 806 1229 b 558 1067 751 1118 664 1067 m 369 -21 b 42 357 115 -21 1 128 l 93 643 b 521 1007 133 872 274 1007 b 850 629 761 1007 890 860 l 799 343 b 369 -21 760 114 611 -21 m 389 179 b 585 354 499 179 565 242 l 636 647 b 501 807 656 757 599 807 b 308 632 390 807 328 744 l 256 340 b 389 179 238 236 283 179 "},"Ô":{"ha":893,"x_min":0,"x_max":0,"o":"m 340 1065 b 315 1113 297 1065 293 1093 l 482 1254 b 551 1283 507 1275 521 1283 l 600 1283 b 669 1247 635 1283 646 1276 l 788 1103 b 767 1065 804 1083 804 1065 l 682 1065 b 613 1100 640 1065 632 1076 l 567 1156 l 496 1089 b 422 1065 469 1064 456 1065 l 340 1065 m 369 -21 b 42 357 115 -21 1 128 l 93 643 b 521 1007 133 872 274 1007 b 850 629 761 1007 890 860 l 799 343 b 369 -21 760 114 611 -21 m 389 179 b 585 354 499 179 565 242 l 636 647 b 501 807 656 757 599 807 b 308 632 390 807 328 744 l 256 340 b 389 179 238 236 283 179 "},"Ö":{"ha":893,"x_min":0,"x_max":0,"o":"m 406 1078 b 331 1171 339 1078 319 1106 l 333 1185 b 428 1264 344 1250 361 1264 l 438 1264 b 514 1171 504 1264 526 1236 l 511 1156 b 415 1078 500 1092 481 1078 l 406 1078 m 690 1078 b 614 1171 624 1078 603 1106 l 617 1185 b 714 1264 628 1250 647 1264 l 724 1264 b 799 1171 789 1264 810 1236 l 796 1156 b 700 1078 783 1092 767 1078 l 690 1078 m 369 -21 b 42 357 115 -21 1 128 l 93 643 b 521 1007 133 872 274 1007 b 850 629 761 1007 890 860 l 799 343 b 369 -21 760 114 611 -21 m 389 179 b 585 354 499 179 565 242 l 636 647 b 501 807 656 757 599 807 b 308 632 390 807 328 744 l 256 340 b 389 179 238 236 283 179 "},"Ò":{"ha":893,"x_min":0,"x_max":0,"o":"m 414 1163 b 408 1222 386 1174 382 1194 l 467 1278 b 554 1271 500 1311 526 1290 l 731 1156 b 733 1101 751 1143 757 1126 l 707 1074 b 640 1074 690 1057 671 1061 m 369 -21 b 42 357 115 -21 1 128 l 93 643 b 521 1007 133 872 274 1007 b 850 629 761 1007 890 860 l 799 343 b 369 -21 760 114 611 -21 m 389 179 b 585 354 499 179 565 242 l 636 647 b 501 807 656 757 599 807 b 308 632 390 807 328 744 l 256 340 b 389 179 238 236 283 179 "},"Ő":{"ha":893,"x_min":0,"x_max":0,"o":"m 353 1082 b 338 1135 324 1092 319 1114 l 454 1267 b 526 1289 476 1293 493 1301 l 594 1265 b 608 1207 628 1253 635 1228 l 446 1086 b 389 1072 421 1068 407 1067 m 593 1082 b 578 1135 564 1092 560 1114 l 693 1267 b 767 1289 717 1293 733 1301 l 835 1265 b 847 1207 868 1253 875 1226 l 686 1086 b 629 1072 661 1068 647 1067 m 369 -21 b 42 357 115 -21 1 128 l 93 643 b 521 1007 133 872 274 1007 b 850 629 761 1007 890 860 l 799 343 b 369 -21 760 114 611 -21 m 389 179 b 585 354 499 179 565 242 l 636 647 b 501 807 656 757 599 807 b 308 632 390 807 328 744 l 256 340 b 389 179 238 236 283 179 "},"Ō":{"ha":893,"x_min":0,"x_max":0,"o":"m 393 1099 b 351 1154 356 1099 346 1117 l 360 1197 b 422 1238 365 1235 390 1238 l 733 1238 b 775 1183 772 1238 782 1221 l 768 1142 b 713 1099 763 1107 742 1099 l 393 1099 m 369 -21 b 42 357 115 -21 1 128 l 93 643 b 521 1007 133 872 274 1007 b 850 629 761 1007 890 860 l 799 343 b 369 -21 760 114 611 -21 m 389 179 b 585 354 499 179 565 242 l 636 647 b 501 807 656 757 599 807 b 308 632 390 807 328 744 l 256 340 b 389 179 238 236 283 179 "},"Ø":{"ha":893,"x_min":0,"x_max":0,"o":"m -25 -54 b -37 -28 -39 -54 -44 -37 l 75 110 b 42 357 36 174 25 257 l 93 643 b 521 1007 133 872 276 1007 b 715 964 601 1007 668 989 l 769 1036 b 804 1047 776 1046 785 1047 l 915 1047 b 929 1024 935 1047 938 1032 l 813 876 b 850 629 853 814 868 731 l 799 343 b 374 -21 760 114 613 -21 b 169 22 292 -21 218 -4 l 125 -39 b 86 -54 113 -54 110 -54 l -25 -54 m 590 786 b 501 807 569 800 538 807 b 308 633 390 807 328 743 l 274 438 b 256 343 268 406 261 374 m 389 179 b 585 354 501 179 565 243 l 622 561 b 638 653 626 592 632 622 l 297 201 b 389 179 321 186 354 179 "},"Ǿ":{"ha":893,"x_min":0,"x_max":0,"o":"m 415 1113 b 421 1164 401 1132 403 1154 l 644 1281 b 724 1267 674 1297 703 1296 l 763 1211 b 754 1157 776 1190 778 1165 l 496 1067 b 438 1078 465 1056 449 1061 m -25 -54 b -37 -28 -39 -54 -44 -37 l 75 110 b 42 357 36 174 25 257 l 93 643 b 521 1007 133 872 276 1007 b 715 964 601 1007 668 989 l 769 1036 b 804 1047 776 1046 785 1047 l 915 1047 b 929 1024 935 1047 938 1032 l 813 876 b 850 629 853 814 868 731 l 799 343 b 374 -21 760 114 613 -21 b 169 22 292 -21 218 -4 l 125 -39 b 86 -54 113 -54 110 -54 l -25 -54 m 590 786 b 501 807 569 800 538 807 b 308 633 390 807 328 743 l 274 438 b 256 343 268 406 261 374 m 389 179 b 585 354 501 179 565 243 l 622 561 b 638 653 626 592 632 622 l 297 201 b 389 179 321 186 354 179 "},"Õ":{"ha":893,"x_min":0,"x_max":0,"o":"m 357 1074 b 332 1128 333 1074 328 1088 b 463 1268 343 1225 386 1268 b 635 1197 565 1268 589 1197 b 674 1244 656 1197 669 1211 b 700 1268 676 1263 682 1268 l 765 1268 b 785 1217 788 1268 792 1254 b 657 1074 768 1115 731 1074 b 483 1144 557 1074 533 1144 b 443 1101 460 1144 446 1129 b 418 1074 442 1082 435 1074 l 357 1074 m 369 -21 b 42 357 115 -21 1 128 l 93 643 b 521 1007 133 872 274 1007 b 850 629 761 1007 890 860 l 799 343 b 369 -21 760 114 611 -21 m 389 179 b 585 354 499 179 565 242 l 636 647 b 501 807 656 757 599 807 b 308 632 390 807 328 744 l 256 340 b 389 179 238 236 283 179 "},"Œ":{"ha":1143,"x_min":0,"x_max":0,"o":"m 364 -21 b 42 357 114 -21 1 128 l 93 643 b 524 1007 133 872 278 1007 b 685 985 585 1007 643 999 l 1119 986 b 1158 922 1160 986 1165 965 l 1143 836 b 1086 786 1136 799 1122 786 l 797 786 l 765 599 l 976 599 b 1025 542 1019 599 1032 583 l 1010 449 b 956 400 1003 418 989 400 l 731 400 l 694 199 l 985 199 b 1032 139 1029 199 1040 181 l 1015 49 b 958 0 1008 13 992 0 l 518 -1 b 364 -21 468 -15 418 -21 m 383 179 b 483 197 422 179 457 185 l 599 796 b 506 807 575 806 535 807 b 308 632 388 807 328 743 l 256 339 b 383 179 236 229 288 179 "},"P":{"ha":843,"x_min":0,"x_max":0,"o":"m 61 0 b 17 60 14 0 11 19 l 172 939 b 240 986 179 976 194 986 l 528 986 b 836 701 733 986 836 885 b 458 325 836 474 688 325 l 282 325 l 232 51 b 172 0 225 13 208 0 l 61 0 m 451 525 b 618 678 557 525 618 578 b 501 786 618 751 583 786 l 361 786 l 317 525 "},"Þ":{"ha":826,"x_min":0,"x_max":0,"o":"m 63 0 b 17 60 18 0 10 15 l 171 938 b 235 986 178 974 194 986 l 346 986 b 386 924 383 986 394 968 l 371 839 l 506 839 b 788 510 697 839 806 713 b 408 158 769 292 628 158 l 251 158 l 232 47 b 172 0 225 11 210 0 l 63 0 m 417 354 b 575 525 518 354 574 419 b 467 644 575 603 543 644 l 338 644 l 286 354 "},"Q":{"ha":914,"x_min":0,"x_max":0,"o":"m 651 -108 b 583 -90 619 -129 603 -119 l 525 3 b 364 -21 476 -15 415 -21 b 42 357 114 -21 1 128 l 93 643 b 515 1007 133 872 276 1007 b 851 629 765 1007 892 858 l 800 343 b 701 117 785 254 753 178 l 756 24 b 742 -50 775 -10 778 -28 l 651 -108 m 388 179 b 586 354 500 179 567 243 l 638 647 b 500 807 658 757 603 807 b 308 632 388 807 328 743 l 256 339 b 388 179 238 229 286 179 "},"R":{"ha":869,"x_min":0,"x_max":0,"o":"m 56 0 b 17 64 13 0 11 26 l 171 938 b 238 986 179 979 199 986 l 567 986 b 839 722 731 986 839 883 b 626 399 839 569 768 458 b 653 335 639 382 649 353 l 731 51 b 697 0 742 11 731 0 l 582 0 b 504 58 519 0 513 15 l 446 275 b 361 360 428 347 421 360 l 288 360 l 232 53 b 171 0 225 10 208 0 l 56 0 m 481 550 b 621 701 567 550 621 613 b 521 786 621 753 579 786 l 361 786 l 321 550 "},"Ŕ":{"ha":869,"x_min":0,"x_max":0,"o":"m 374 1099 b 379 1150 360 1118 361 1140 l 603 1267 b 682 1253 632 1283 661 1282 l 721 1197 b 713 1143 735 1176 736 1151 l 454 1053 b 396 1064 424 1042 407 1047 m 56 0 b 17 64 13 0 11 26 l 171 938 b 238 986 179 979 199 986 l 567 986 b 839 722 731 986 839 883 b 626 399 839 569 768 458 b 653 335 639 382 649 353 l 731 51 b 697 0 742 11 731 0 l 582 0 b 504 58 519 0 513 15 l 446 275 b 361 360 428 347 421 360 l 288 360 l 232 53 b 171 0 225 10 208 0 l 56 0 m 481 550 b 621 701 567 550 621 613 b 521 786 621 753 579 786 l 361 786 l 321 550 "},"Ř":{"ha":869,"x_min":0,"x_max":0,"o":"m 517 1050 b 439 1094 478 1050 464 1063 l 328 1229 b 350 1267 310 1250 308 1267 l 433 1267 b 500 1238 475 1267 482 1261 l 549 1175 l 619 1244 b 689 1267 644 1268 654 1267 l 774 1267 b 797 1219 817 1267 821 1239 l 642 1088 b 549 1050 604 1056 592 1050 l 517 1050 m 56 0 b 17 64 13 0 11 26 l 171 938 b 238 986 179 979 199 986 l 567 986 b 839 722 731 986 839 883 b 626 399 839 569 768 458 b 653 335 639 382 649 353 l 731 51 b 697 0 742 11 731 0 l 582 0 b 504 58 519 0 513 15 l 446 275 b 361 360 428 347 421 360 l 288 360 l 232 53 b 171 0 225 10 208 0 l 56 0 m 481 550 b 621 701 567 550 621 613 b 521 786 621 753 579 786 l 361 786 l 321 550 "},"Ŗ":{"ha":869,"x_min":0,"x_max":0,"o":"m 56 0 b 17 64 13 0 11 26 l 171 938 b 238 986 179 979 199 986 l 567 986 b 839 722 731 986 839 883 b 626 399 839 569 768 458 b 653 335 639 382 649 353 l 731 51 b 697 0 742 11 731 0 l 582 0 b 504 58 519 0 513 15 l 446 275 b 361 360 428 347 421 360 l 288 360 l 232 53 b 171 0 225 10 208 0 l 56 0 m 481 550 b 621 701 567 550 621 613 b 521 786 621 753 579 786 l 361 786 l 321 550 m 225 -361 b 193 -318 196 -361 186 -344 l 250 -122 b 314 -76 263 -81 274 -76 l 407 -76 b 451 -136 454 -76 469 -101 l 353 -322 b 292 -361 335 -356 325 -361 l 225 -361 "},"S":{"ha":843,"x_min":0,"x_max":0,"o":"m 353 -21 b 15 196 171 -21 56 53 b 42 279 1 247 4 267 l 151 314 b 213 276 183 324 199 315 b 375 178 235 214 289 178 b 543 294 476 178 543 226 b 396 406 543 358 496 390 b 90 692 214 433 90 513 b 475 1007 90 889 243 1007 b 811 788 656 1007 768 931 b 783 717 825 743 818 728 l 675 682 b 618 710 644 672 628 681 b 463 806 597 776 542 806 b 311 703 369 806 311 771 b 458 594 311 636 360 613 b 765 319 664 557 765 482 b 353 -21 765 103 603 -21 "},"Ś":{"ha":843,"x_min":0,"x_max":0,"o":"m 367 1113 b 372 1164 353 1132 354 1154 l 596 1281 b 675 1267 625 1297 654 1296 l 714 1211 b 706 1157 728 1190 729 1165 l 447 1067 b 389 1078 417 1056 400 1061 m 353 -21 b 15 196 171 -21 56 53 b 42 279 1 247 4 267 l 151 314 b 213 276 183 324 199 315 b 375 178 235 214 289 178 b 543 294 476 178 543 226 b 396 406 543 358 496 390 b 90 692 214 433 90 513 b 475 1007 90 889 243 1007 b 811 788 656 1007 768 931 b 783 717 825 743 818 728 l 675 682 b 618 710 644 672 628 681 b 463 806 597 776 542 806 b 311 703 369 806 311 771 b 458 594 311 636 360 613 b 765 319 664 557 765 482 b 353 -21 765 103 603 -21 "},"Š":{"ha":843,"x_min":0,"x_max":0,"o":"m 510 1064 b 432 1108 471 1064 457 1076 l 321 1243 b 343 1281 303 1264 301 1281 l 426 1281 b 493 1251 468 1281 475 1275 l 542 1189 l 613 1258 b 682 1281 638 1282 647 1281 l 767 1281 b 790 1233 810 1281 814 1253 l 635 1101 b 542 1064 597 1069 585 1064 l 510 1064 m 353 -21 b 15 196 171 -21 56 53 b 42 279 1 247 4 267 l 151 314 b 213 276 183 324 199 315 b 375 178 235 214 289 178 b 543 294 476 178 543 226 b 396 406 543 358 496 390 b 90 692 214 433 90 513 b 475 1007 90 889 243 1007 b 811 788 656 1007 768 931 b 783 717 825 743 818 728 l 675 682 b 618 710 644 672 628 681 b 463 806 597 776 542 806 b 311 703 369 806 311 771 b 458 594 311 636 360 613 b 765 319 664 557 765 482 b 353 -21 765 103 603 -21 "},"Ş":{"ha":843,"x_min":0,"x_max":0,"o":"m 811 788 b 783 717 825 743 818 728 l 675 682 b 618 710 644 672 628 681 b 463 806 597 776 542 806 b 311 703 369 806 311 771 b 458 594 311 636 360 613 b 765 319 664 557 765 482 b 418 -18 765 122 631 3 l 383 -69 b 432 -78 401 -69 418 -72 b 496 -175 475 -94 496 -131 b 283 -340 496 -292 403 -340 b 175 -317 233 -340 197 -328 b 156 -282 160 -310 153 -303 l 163 -229 b 183 -214 164 -214 174 -211 b 263 -231 210 -224 231 -231 b 329 -190 306 -231 329 -215 b 297 -164 329 -176 319 -168 b 254 -161 286 -161 271 -161 b 236 -117 228 -161 222 -137 l 300 -18 b 15 196 149 -6 51 67 b 42 279 1 247 4 267 l 151 314 b 213 276 183 324 199 315 b 375 178 235 214 289 178 b 543 294 476 178 543 226 b 396 406 543 358 496 390 b 90 692 214 433 90 513 b 475 1007 90 889 243 1007 b 811 788 656 1007 768 931 "},"Ŝ":{"ha":843,"x_min":0,"x_max":0,"o":"m 318 1065 b 293 1113 275 1065 271 1093 l 460 1254 b 529 1283 485 1275 499 1283 l 578 1283 b 647 1247 613 1283 624 1276 l 765 1103 b 744 1065 782 1083 782 1065 l 660 1065 b 590 1100 618 1065 610 1076 l 544 1156 l 474 1089 b 400 1065 447 1064 433 1065 l 318 1065 m 353 -21 b 15 196 171 -21 56 53 b 42 279 1 247 4 267 l 151 314 b 213 276 183 324 199 315 b 375 178 235 214 289 178 b 543 294 476 178 543 226 b 396 406 543 358 496 390 b 90 692 214 433 90 513 b 475 1007 90 889 243 1007 b 811 788 656 1007 768 931 b 783 717 825 743 818 728 l 675 682 b 618 710 644 672 628 681 b 463 806 597 776 542 806 b 311 703 369 806 311 771 b 458 594 311 636 360 613 b 765 319 664 557 765 482 b 353 -21 765 103 603 -21 "},"Ș":{"ha":843,"x_min":0,"x_max":0,"o":"m 353 -21 b 15 196 171 -21 56 53 b 42 279 1 247 4 267 l 151 314 b 213 276 183 324 199 315 b 375 178 235 214 289 178 b 543 294 476 178 543 226 b 396 406 543 358 496 390 b 90 692 214 433 90 513 b 475 1007 90 889 243 1007 b 811 788 656 1007 768 931 b 783 717 825 743 818 728 l 675 682 b 618 710 644 672 628 681 b 463 806 597 776 542 806 b 311 703 369 806 311 771 b 458 594 311 636 360 613 b 765 319 664 557 765 482 b 353 -21 765 103 603 -21 m 201 -361 b 169 -318 172 -361 163 -344 l 226 -122 b 290 -76 239 -81 250 -76 l 383 -76 b 428 -136 431 -76 446 -101 l 329 -322 b 268 -361 311 -356 301 -361 l 201 -361 "},"ẞ":{"ha":865,"x_min":0,"x_max":0,"o":"m 786 986 b 832 929 828 986 838 964 l 814 831 b 776 765 810 804 796 789 l 617 590 b 779 283 760 571 811 465 b 408 0 743 82 604 0 l 338 0 b 292 57 304 0 286 18 l 307 140 b 372 194 311 171 338 194 l 428 194 b 567 306 485 194 551 222 b 489 419 581 390 540 419 l 425 419 b 382 475 394 419 375 439 l 396 553 b 428 617 401 581 414 599 l 561 792 l 364 792 l 233 57 b 167 0 226 15 204 0 l 63 0 b 15 57 21 0 8 15 l 171 929 b 236 986 178 972 194 986 l 786 986 "},"T":{"ha":756,"x_min":0,"x_max":0,"o":"m 238 0 b 193 61 193 0 186 21 l 321 786 l 133 786 b 88 850 92 786 79 804 l 103 938 b 169 986 111 979 129 986 l 765 986 b 807 922 807 986 815 967 l 792 836 b 729 786 783 793 769 786 l 538 786 l 407 47 b 349 0 400 10 382 0 l 238 0 "},"Ŧ":{"ha":756,"x_min":0,"x_max":0,"o":"m 240 0 b 192 56 200 0 185 14 l 249 375 l 133 375 b 104 417 108 375 99 386 l 118 494 b 150 524 124 521 128 524 l 275 524 l 321 786 l 133 786 b 86 846 92 786 79 803 l 103 938 b 163 986 110 979 132 986 l 769 986 b 807 922 808 986 814 965 l 792 836 b 735 786 786 799 772 786 l 538 786 l 492 524 l 607 524 b 638 483 632 524 643 513 l 624 406 b 590 375 619 381 614 375 l 465 375 l 407 47 b 343 0 400 7 381 0 l 240 0 "},"Ť":{"ha":756,"x_min":0,"x_max":0,"o":"m 463 1050 b 385 1094 424 1050 410 1063 l 274 1229 b 296 1267 256 1250 254 1267 l 379 1267 b 446 1238 421 1267 428 1261 l 494 1175 l 565 1244 b 635 1267 590 1268 600 1267 l 719 1267 b 743 1219 763 1267 767 1239 l 588 1088 b 494 1050 550 1056 538 1050 l 463 1050 m 238 0 b 193 61 193 0 186 21 l 321 786 l 133 786 b 88 850 92 786 79 804 l 103 938 b 169 986 111 979 129 986 l 765 986 b 807 922 807 986 815 967 l 792 836 b 729 786 783 793 769 786 l 538 786 l 407 47 b 349 0 400 10 382 0 l 238 0 "},"Ţ":{"ha":756,"x_min":0,"x_max":0,"o":"m 238 0 b 193 61 193 0 186 21 l 321 786 l 133 786 b 88 850 92 786 79 804 l 103 938 b 169 986 111 979 129 986 l 765 986 b 807 922 807 986 815 967 l 792 836 b 729 786 783 793 769 786 l 538 786 l 407 47 b 349 0 400 10 382 0 l 238 0 m 144 -361 b 113 -318 115 -361 106 -344 l 169 -122 b 233 -76 182 -81 193 -76 l 326 -76 b 371 -136 374 -76 389 -101 l 272 -322 b 211 -361 254 -356 244 -361 l 144 -361 "},"U":{"ha":917,"x_min":0,"x_max":0,"o":"m 375 -21 b 61 351 126 -21 19 118 l 165 939 b 229 986 172 979 193 986 l 336 986 b 379 925 379 986 386 967 l 276 333 b 396 179 257 229 301 179 b 588 349 507 179 568 235 l 692 939 b 758 986 700 982 725 986 l 865 986 b 907 925 904 986 914 967 l 803 338 b 375 -21 763 106 614 -21 "},"Ú":{"ha":917,"x_min":0,"x_max":0,"o":"m 399 1099 b 404 1150 385 1118 386 1140 l 628 1267 b 707 1253 657 1283 686 1282 l 746 1197 b 738 1143 760 1176 761 1151 l 479 1053 b 421 1064 449 1042 432 1047 m 375 -21 b 61 351 126 -21 19 118 l 165 939 b 229 986 172 979 193 986 l 336 986 b 379 925 379 986 386 967 l 276 333 b 396 179 257 229 301 179 b 588 349 507 179 568 235 l 692 939 b 758 986 700 982 725 986 l 865 986 b 907 925 904 986 914 967 l 803 338 b 375 -21 763 106 614 -21 "},"Ŭ":{"ha":917,"x_min":0,"x_max":0,"o":"m 569 1053 b 371 1197 467 1053 396 1106 b 388 1243 363 1226 367 1236 l 461 1268 b 506 1246 485 1275 496 1271 b 576 1194 519 1213 542 1194 b 665 1254 617 1194 646 1217 b 713 1265 679 1275 686 1276 l 789 1235 b 803 1185 813 1225 817 1215 b 569 1053 763 1104 675 1053 m 375 -21 b 61 351 126 -21 19 118 l 165 939 b 229 986 172 979 193 986 l 336 986 b 379 925 379 986 386 967 l 276 333 b 396 179 257 229 301 179 b 588 349 507 179 568 235 l 692 939 b 758 986 700 982 725 986 l 865 986 b 907 925 904 986 914 967 l 803 338 b 375 -21 763 106 614 -21 "},"Û":{"ha":917,"x_min":0,"x_max":0,"o":"m 350 1051 b 325 1099 307 1051 303 1079 l 492 1240 b 561 1269 517 1261 531 1269 l 610 1269 b 679 1233 644 1269 656 1263 l 797 1089 b 776 1051 814 1069 814 1051 l 692 1051 b 622 1086 650 1051 642 1063 l 576 1142 l 506 1075 b 432 1051 479 1050 465 1051 l 350 1051 m 375 -21 b 61 351 126 -21 19 118 l 165 939 b 229 986 172 979 193 986 l 336 986 b 379 925 379 986 386 967 l 276 333 b 396 179 257 229 301 179 b 588 349 507 179 568 235 l 692 939 b 758 986 700 982 725 986 l 865 986 b 907 925 904 986 914 967 l 803 338 b 375 -21 763 106 614 -21 "},"Ü":{"ha":917,"x_min":0,"x_max":0,"o":"m 417 1064 b 342 1157 350 1064 331 1092 l 344 1171 b 439 1250 356 1236 372 1250 l 449 1250 b 525 1157 515 1250 538 1222 l 522 1142 b 426 1064 511 1078 492 1064 l 417 1064 m 701 1064 b 625 1157 635 1064 614 1092 l 628 1171 b 725 1250 639 1236 658 1250 l 735 1250 b 810 1157 800 1250 821 1222 l 807 1142 b 711 1064 794 1078 778 1064 l 701 1064 m 375 -21 b 61 351 126 -21 19 118 l 165 939 b 229 986 172 979 193 986 l 336 986 b 379 925 379 986 386 967 l 276 333 b 396 179 257 229 301 179 b 588 349 507 179 568 235 l 692 939 b 758 986 700 982 725 986 l 865 986 b 907 925 904 986 914 967 l 803 338 b 375 -21 763 106 614 -21 "},"Ù":{"ha":917,"x_min":0,"x_max":0,"o":"m 424 1149 b 418 1208 396 1160 392 1181 l 476 1264 b 564 1257 510 1297 536 1276 l 740 1142 b 743 1088 761 1129 767 1113 l 717 1060 b 650 1060 700 1043 681 1047 m 375 -21 b 61 351 126 -21 19 118 l 165 939 b 229 986 172 979 193 986 l 336 986 b 379 925 379 986 386 967 l 276 333 b 396 179 257 229 301 179 b 588 349 507 179 568 235 l 692 939 b 758 986 700 982 725 986 l 865 986 b 907 925 904 986 914 967 l 803 338 b 375 -21 763 106 614 -21 "},"Ű":{"ha":917,"x_min":0,"x_max":0,"o":"m 363 1068 b 347 1121 333 1078 329 1100 l 464 1253 b 536 1275 486 1279 503 1288 l 604 1251 b 618 1193 638 1239 644 1214 l 456 1072 b 399 1058 431 1054 417 1053 m 603 1068 b 588 1121 574 1078 569 1100 l 703 1253 b 776 1275 726 1279 743 1288 l 844 1251 b 857 1193 878 1239 885 1213 l 696 1072 b 639 1058 671 1054 657 1053 m 375 -21 b 61 351 126 -21 19 118 l 165 939 b 229 986 172 979 193 986 l 336 986 b 379 925 379 986 386 967 l 276 333 b 396 179 257 229 301 179 b 588 349 507 179 568 235 l 692 939 b 758 986 700 982 725 986 l 865 986 b 907 925 904 986 914 967 l 803 338 b 375 -21 763 106 614 -21 "},"Ū":{"ha":917,"x_min":0,"x_max":0,"o":"m 404 1085 b 363 1140 367 1085 357 1103 l 371 1183 b 433 1224 376 1221 401 1224 l 744 1224 b 786 1169 783 1224 793 1207 l 779 1128 b 724 1085 774 1093 753 1085 l 404 1085 m 375 -21 b 61 351 126 -21 19 118 l 165 939 b 229 986 172 979 193 986 l 336 986 b 379 925 379 986 386 967 l 276 333 b 396 179 257 229 301 179 b 588 349 507 179 568 235 l 692 939 b 758 986 700 982 725 986 l 865 986 b 907 925 904 986 914 967 l 803 338 b 375 -21 763 106 614 -21 "},"Ų":{"ha":917,"x_min":0,"x_max":0,"o":"m 408 -340 b 290 -237 342 -340 290 -311 b 429 -14 290 -172 335 -92 b 372 -21 411 -21 388 -21 b 61 351 121 -21 21 125 l 165 939 b 232 986 172 979 193 986 l 339 986 b 379 925 378 986 386 967 l 276 333 b 396 179 257 231 299 179 b 588 347 511 179 568 239 l 692 939 b 753 986 700 982 725 986 l 864 986 b 907 925 904 986 914 967 l 803 338 b 638 51 781 213 735 121 b 464 -181 518 -36 464 -146 b 482 -200 464 -194 468 -200 b 519 -189 493 -200 508 -193 b 542 -206 531 -183 539 -193 l 560 -271 b 549 -306 564 -287 560 -297 b 408 -340 510 -332 451 -340 "},"Ů":{"ha":917,"x_min":0,"x_max":0,"o":"m 568 1039 b 422 1178 481 1039 422 1092 b 596 1344 422 1278 496 1344 b 742 1204 683 1344 742 1290 b 568 1039 742 1107 668 1039 m 576 1132 b 646 1200 615 1132 646 1160 b 593 1250 646 1231 626 1250 b 521 1186 553 1250 522 1224 b 576 1132 519 1154 542 1132 m 375 -21 b 61 351 126 -21 19 118 l 165 939 b 229 986 172 979 193 986 l 336 986 b 379 925 379 986 386 967 l 276 333 b 396 179 257 229 301 179 b 588 349 507 179 568 235 l 692 939 b 758 986 700 982 725 986 l 865 986 b 907 925 904 986 914 967 l 803 338 b 375 -21 763 106 614 -21 "},"Ũ":{"ha":917,"x_min":0,"x_max":0,"o":"m 367 1060 b 342 1114 343 1060 338 1074 b 472 1254 353 1211 396 1254 b 644 1183 575 1254 599 1183 b 683 1231 665 1183 679 1197 b 710 1254 686 1249 692 1254 l 775 1254 b 794 1203 797 1254 801 1240 b 667 1060 778 1101 740 1060 b 493 1131 567 1060 543 1131 b 453 1088 469 1131 456 1115 b 428 1060 451 1068 444 1060 l 367 1060 m 375 -21 b 61 351 126 -21 19 118 l 165 939 b 229 986 172 979 193 986 l 336 986 b 379 925 379 986 386 967 l 276 333 b 396 179 257 229 301 179 b 588 349 507 179 568 235 l 692 939 b 758 986 700 982 725 986 l 865 986 b 907 925 904 986 914 967 l 803 338 b 375 -21 763 106 614 -21 "},"V":{"ha":865,"x_min":0,"x_max":0,"o":"m 283 0 b 231 51 247 0 233 15 l 101 939 b 143 986 96 975 108 986 l 272 986 b 326 929 318 986 324 968 l 383 410 b 386 236 390 353 389 296 l 396 236 b 460 421 407 286 426 349 l 690 943 b 761 986 708 982 724 986 l 893 986 b 925 925 933 986 942 961 l 485 39 b 417 0 465 1 453 0 l 283 0 "},"W":{"ha":1229,"x_min":0,"x_max":0,"o":"m 222 0 b 164 51 186 0 165 14 l 113 939 b 156 986 110 976 117 986 l 283 986 b 339 929 329 986 339 971 l 342 490 b 325 288 342 433 335 354 l 336 288 b 401 506 351 361 376 446 l 581 944 b 654 986 599 985 615 986 l 751 986 b 815 931 792 986 815 971 l 832 490 b 824 288 835 425 831 350 l 835 288 b 893 506 847 358 871 443 l 1053 944 b 1117 986 1067 982 1075 986 l 1242 986 b 1274 924 1283 986 1289 963 l 911 39 b 842 0 896 0 876 0 l 719 0 b 661 51 683 0 663 15 l 644 521 b 656 696 643 576 644 635 l 644 696 b 589 508 633 636 611 564 l 406 39 b 335 0 390 0 371 0 l 222 0 "},"Ẃ":{"ha":1229,"x_min":0,"x_max":0,"o":"m 561 1099 b 567 1150 547 1118 549 1140 l 790 1267 b 869 1253 819 1283 849 1282 l 908 1197 b 900 1143 922 1176 924 1151 l 642 1053 b 583 1064 611 1042 594 1047 m 222 0 b 164 51 186 0 165 14 l 113 939 b 156 986 110 976 117 986 l 283 986 b 339 929 329 986 339 971 l 342 490 b 325 288 342 433 335 354 l 336 288 b 401 506 351 361 376 446 l 581 944 b 654 986 599 985 615 986 l 751 986 b 815 931 792 986 815 971 l 832 490 b 824 288 835 425 831 350 l 835 288 b 893 506 847 358 871 443 l 1053 944 b 1117 986 1067 982 1075 986 l 1242 986 b 1274 924 1283 986 1289 963 l 911 39 b 842 0 896 0 876 0 l 719 0 b 661 51 683 0 663 15 l 644 521 b 656 696 643 576 644 635 l 644 696 b 589 508 633 636 611 564 l 406 39 b 335 0 390 0 371 0 l 222 0 "},"Ŵ":{"ha":1229,"x_min":0,"x_max":0,"o":"m 514 1051 b 489 1099 471 1051 467 1079 l 656 1240 b 725 1269 681 1261 694 1269 l 774 1269 b 843 1233 808 1269 819 1263 l 961 1089 b 940 1051 978 1069 978 1051 l 856 1051 b 786 1086 814 1051 806 1063 l 740 1142 l 669 1075 b 596 1051 643 1050 629 1051 l 514 1051 m 222 0 b 164 51 186 0 165 14 l 113 939 b 156 986 110 976 117 986 l 283 986 b 339 929 329 986 339 971 l 342 490 b 325 288 342 433 335 354 l 336 288 b 401 506 351 361 376 446 l 581 944 b 654 986 599 985 615 986 l 751 986 b 815 931 792 986 815 971 l 832 490 b 824 288 835 425 831 350 l 835 288 b 893 506 847 358 871 443 l 1053 944 b 1117 986 1067 982 1075 986 l 1242 986 b 1274 924 1283 986 1289 963 l 911 39 b 842 0 896 0 876 0 l 719 0 b 661 51 683 0 663 15 l 644 521 b 656 696 643 576 644 635 l 644 696 b 589 508 633 636 611 564 l 406 39 b 335 0 390 0 371 0 l 222 0 "},"Ẅ":{"ha":1229,"x_min":0,"x_max":0,"o":"m 579 1064 b 504 1157 513 1064 493 1092 l 507 1171 b 601 1250 518 1236 535 1250 l 611 1250 b 688 1157 678 1250 700 1222 l 685 1142 b 589 1064 674 1078 654 1064 l 579 1064 m 864 1064 b 788 1157 797 1064 776 1092 l 790 1171 b 888 1250 801 1236 821 1250 l 897 1250 b 972 1157 963 1250 983 1222 l 969 1142 b 874 1064 957 1078 940 1064 l 864 1064 m 222 0 b 164 51 186 0 165 14 l 113 939 b 156 986 110 976 117 986 l 283 986 b 339 929 329 986 339 971 l 342 490 b 325 288 342 433 335 354 l 336 288 b 401 506 351 361 376 446 l 581 944 b 654 986 599 985 615 986 l 751 986 b 815 931 792 986 815 971 l 832 490 b 824 288 835 425 831 350 l 835 288 b 893 506 847 358 871 443 l 1053 944 b 1117 986 1067 982 1075 986 l 1242 986 b 1274 924 1283 986 1289 963 l 911 39 b 842 0 896 0 876 0 l 719 0 b 661 51 683 0 663 15 l 644 521 b 656 696 643 576 644 635 l 644 696 b 589 508 633 636 611 564 l 406 39 b 335 0 390 0 371 0 l 222 0 "},"Ẁ":{"ha":1229,"x_min":0,"x_max":0,"o":"m 586 1149 b 581 1208 558 1160 554 1181 l 639 1264 b 726 1257 672 1297 699 1276 l 903 1142 b 906 1088 924 1129 929 1113 l 879 1060 b 813 1060 863 1043 843 1047 m 222 0 b 164 51 186 0 165 14 l 113 939 b 156 986 110 976 117 986 l 283 986 b 339 929 329 986 339 971 l 342 490 b 325 288 342 433 335 354 l 336 288 b 401 506 351 361 376 446 l 581 944 b 654 986 599 985 615 986 l 751 986 b 815 931 792 986 815 971 l 832 490 b 824 288 835 425 831 350 l 835 288 b 893 506 847 358 871 443 l 1053 944 b 1117 986 1067 982 1075 986 l 1242 986 b 1274 924 1283 986 1289 963 l 911 39 b 842 0 896 0 876 0 l 719 0 b 661 51 683 0 663 15 l 644 521 b 656 696 643 576 644 635 l 644 696 b 589 508 633 636 611 564 l 406 39 b 335 0 390 0 371 0 l 222 0 "},"X":{"ha":858,"x_min":0,"x_max":0,"o":"m -31 0 b -51 63 -69 0 -76 29 l 293 506 l 122 939 b 151 986 111 968 117 986 l 292 986 b 364 933 342 986 350 978 l 456 672 l 646 946 b 726 986 674 988 686 986 l 871 986 b 899 926 910 986 918 956 l 567 507 l 750 50 b 708 0 763 21 747 0 l 576 0 b 503 56 528 0 517 10 l 401 342 l 203 44 b 114 0 179 6 154 0 l -31 0 "},"Y":{"ha":867,"x_min":0,"x_max":0,"o":"m 286 0 b 247 64 247 0 240 21 l 306 385 l 104 936 b 135 986 93 967 97 986 l 263 986 b 344 931 324 986 333 972 l 449 593 l 678 943 b 771 986 704 983 711 986 l 894 986 b 922 924 935 986 942 954 l 522 383 l 461 50 b 400 0 454 8 439 0 l 286 0 "},"Ý":{"ha":867,"x_min":0,"x_max":0,"o":"m 378 1099 b 383 1150 364 1118 365 1140 l 607 1267 b 686 1253 636 1283 665 1282 l 725 1197 b 717 1143 739 1176 740 1151 l 458 1053 b 400 1064 428 1042 411 1047 m 286 0 b 247 64 247 0 240 21 l 306 385 l 104 936 b 135 986 93 967 97 986 l 263 986 b 344 931 324 986 333 972 l 449 593 l 678 943 b 771 986 704 983 711 986 l 894 986 b 922 924 935 986 942 954 l 522 383 l 461 50 b 400 0 454 8 439 0 l 286 0 "},"Ŷ":{"ha":867,"x_min":0,"x_max":0,"o":"m 329 1051 b 304 1099 286 1051 282 1079 l 471 1240 b 540 1269 496 1261 510 1269 l 589 1269 b 658 1233 624 1269 635 1263 l 776 1089 b 756 1051 793 1069 793 1051 l 671 1051 b 601 1086 629 1051 621 1063 l 556 1142 l 485 1075 b 411 1051 458 1050 444 1051 l 329 1051 m 286 0 b 247 64 247 0 240 21 l 306 385 l 104 936 b 135 986 93 967 97 986 l 263 986 b 344 931 324 986 333 972 l 449 593 l 678 943 b 771 986 704 983 711 986 l 894 986 b 922 924 935 986 942 954 l 522 383 l 461 50 b 400 0 454 8 439 0 l 286 0 "},"Ÿ":{"ha":867,"x_min":0,"x_max":0,"o":"m 394 1064 b 319 1157 328 1064 308 1092 l 322 1171 b 417 1250 333 1236 350 1250 l 426 1250 b 503 1157 493 1250 515 1222 l 500 1142 b 404 1064 489 1078 469 1064 l 394 1064 m 679 1064 b 603 1157 613 1064 592 1092 l 606 1171 b 703 1250 617 1236 636 1250 l 713 1250 b 788 1157 778 1250 799 1222 l 785 1142 b 689 1064 772 1078 756 1064 l 679 1064 m 286 0 b 247 64 247 0 240 21 l 306 385 l 104 936 b 135 986 93 967 97 986 l 263 986 b 344 931 324 986 333 972 l 449 593 l 678 943 b 771 986 704 983 711 986 l 894 986 b 922 924 935 986 942 954 l 522 383 l 461 50 b 400 0 454 8 439 0 l 286 0 "},"Ỳ":{"ha":867,"x_min":0,"x_max":0,"o":"m 399 1149 b 393 1208 371 1160 367 1181 l 450 1264 b 539 1257 485 1297 511 1276 l 715 1142 b 718 1088 736 1129 742 1113 l 690 1060 b 625 1060 674 1043 654 1047 m 286 0 b 247 64 247 0 240 21 l 306 385 l 104 936 b 135 986 93 967 97 986 l 263 986 b 344 931 324 986 333 972 l 449 593 l 678 943 b 771 986 704 983 711 986 l 894 986 b 922 924 935 986 942 954 l 522 383 l 461 50 b 400 0 454 8 439 0 l 286 0 "},"Z":{"ha":790,"x_min":0,"x_max":0,"o":"m 22 0 b -24 60 -24 0 -31 17 l -10 143 b 13 199 -6 165 0 182 l 524 788 l 165 788 b 121 851 119 788 114 808 l 136 938 b 199 986 143 979 160 986 l 768 986 b 810 924 807 986 818 965 l 794 843 b 772 786 790 819 783 803 l 264 200 l 631 200 b 675 136 675 200 683 181 l 660 49 b 597 0 653 7 635 0 l 22 0 "},"Ź":{"ha":790,"x_min":0,"x_max":0,"o":"m 343 1099 b 349 1150 329 1118 331 1140 l 572 1267 b 651 1253 601 1283 631 1282 l 690 1197 b 682 1143 704 1176 706 1151 l 424 1053 b 365 1064 393 1042 376 1047 m 22 0 b -24 60 -24 0 -31 17 l -10 143 b 13 199 -6 165 0 182 l 524 788 l 165 788 b 121 851 119 788 114 808 l 136 938 b 199 986 143 979 160 986 l 768 986 b 810 924 807 986 818 965 l 794 843 b 772 786 790 819 783 803 l 264 200 l 631 200 b 675 136 675 200 683 181 l 660 49 b 597 0 653 7 635 0 l 22 0 "},"Ž":{"ha":790,"x_min":0,"x_max":0,"o":"m 486 1050 b 408 1094 447 1050 433 1063 l 297 1229 b 319 1267 279 1250 278 1267 l 403 1267 b 469 1238 444 1267 451 1261 l 518 1175 l 589 1244 b 658 1267 614 1268 624 1267 l 743 1267 b 767 1219 786 1267 790 1239 l 611 1088 b 518 1050 574 1056 561 1050 l 486 1050 m 22 0 b -24 60 -24 0 -31 17 l -10 143 b 13 199 -6 165 0 182 l 524 788 l 165 788 b 121 851 119 788 114 808 l 136 938 b 199 986 143 979 160 986 l 768 986 b 810 924 807 986 818 965 l 794 843 b 772 786 790 819 783 803 l 264 200 l 631 200 b 675 136 675 200 683 181 l 660 49 b 597 0 653 7 635 0 l 22 0 "},"Ż":{"ha":790,"x_min":0,"x_max":0,"o":"m 503 1061 b 425 1158 433 1061 414 1089 l 428 1169 b 526 1251 440 1239 457 1251 l 535 1251 b 613 1156 604 1251 624 1224 l 611 1144 b 511 1061 599 1075 581 1061 l 503 1061 m 22 0 b -24 60 -24 0 -31 17 l -10 143 b 13 199 -6 165 0 182 l 524 788 l 165 788 b 121 851 119 788 114 808 l 136 938 b 199 986 143 979 160 986 l 768 986 b 810 924 807 986 818 965 l 794 843 b 772 786 790 819 783 803 l 264 200 l 631 200 b 675 136 675 200 683 181 l 660 49 b 597 0 653 7 635 0 l 22 0 "},"a":{"ha":686,"x_min":0,"x_max":0,"o":"m 274 -21 b -3 185 50 -21 -4 72 b 322 436 0 372 128 436 b 418 429 361 436 392 433 l 426 469 b 356 569 440 539 411 569 b 246 514 307 569 274 550 b 185 494 225 486 214 482 l 110 528 b 93 601 76 543 69 565 b 392 743 156 692 242 743 b 624 451 565 743 657 643 l 561 101 b 497 18 553 51 540 35 b 274 -21 440 -4 368 -21 m 285 140 b 358 150 317 140 342 146 b 372 163 364 151 371 156 l 392 272 b 303 282 367 279 343 282 b 200 197 217 282 200 236 b 285 140 200 165 215 140 "},"á":{"ha":686,"x_min":0,"x_max":0,"o":"m 244 856 b 250 906 232 875 233 897 l 474 1024 b 553 1010 504 1040 533 1039 l 592 954 b 583 900 606 933 607 907 l 325 810 b 268 821 296 799 279 804 m 274 -21 b -3 185 50 -21 -4 72 b 322 436 0 372 128 436 b 418 429 361 436 392 433 l 426 469 b 356 569 440 539 411 569 b 246 514 307 569 274 550 b 185 494 225 486 214 482 l 110 528 b 93 601 76 543 69 565 b 392 743 156 692 242 743 b 624 451 565 743 657 643 l 561 101 b 497 18 553 51 540 35 b 274 -21 440 -4 368 -21 m 285 140 b 358 150 317 140 342 146 b 372 163 364 151 371 156 l 392 272 b 303 282 367 279 343 282 b 200 197 217 282 200 236 b 285 140 200 165 215 140 "},"ă":{"ha":686,"x_min":0,"x_max":0,"o":"m 415 808 b 215 953 311 808 240 861 b 232 999 208 982 211 992 l 306 1024 b 351 1001 331 1031 342 1025 b 421 950 365 968 388 950 b 510 1010 461 950 492 972 b 557 1021 524 1031 531 1032 l 633 990 b 647 940 657 981 661 971 b 415 808 607 858 519 808 m 274 -21 b -3 185 50 -21 -4 72 b 322 436 0 372 128 436 b 418 429 361 436 392 433 l 426 469 b 356 569 440 539 411 569 b 246 514 307 569 274 550 b 185 494 225 486 214 482 l 110 528 b 93 601 76 543 69 565 b 392 743 156 692 242 743 b 624 451 565 743 657 643 l 561 101 b 497 18 553 51 540 35 b 274 -21 440 -4 368 -21 m 285 140 b 358 150 317 140 342 146 b 372 163 364 151 371 156 l 392 272 b 303 282 367 279 343 282 b 200 197 217 282 200 236 b 285 140 200 165 215 140 "},"â":{"ha":686,"x_min":0,"x_max":0,"o":"m 196 808 b 171 856 153 808 149 836 l 338 996 b 407 1025 363 1018 376 1025 l 456 1025 b 525 990 492 1025 501 1018 l 644 846 b 622 808 660 826 660 808 l 538 808 b 468 842 496 808 488 819 l 422 899 l 351 832 b 278 808 325 807 311 808 l 196 808 m 274 -21 b -3 185 50 -21 -4 72 b 322 436 0 372 128 436 b 418 429 361 436 392 433 l 426 469 b 356 569 440 539 411 569 b 246 514 307 569 274 550 b 185 494 225 486 214 482 l 110 528 b 93 601 76 543 69 565 b 392 743 156 692 242 743 b 624 451 565 743 657 643 l 561 101 b 497 18 553 51 540 35 b 274 -21 440 -4 368 -21 m 285 140 b 358 150 317 140 342 146 b 372 163 364 151 371 156 l 392 272 b 303 282 367 279 343 282 b 200 197 217 282 200 236 b 285 140 200 165 215 140 "},"ä":{"ha":686,"x_min":0,"x_max":0,"o":"m 261 814 b 188 907 196 814 176 843 l 189 922 b 283 1001 200 988 217 1001 l 293 1001 b 371 908 360 1001 383 972 l 368 893 b 272 814 357 829 338 814 l 261 814 m 536 814 b 460 907 469 814 447 843 l 461 922 b 557 1001 472 988 492 1001 l 567 1001 b 643 908 633 1001 656 972 l 640 893 b 546 814 629 829 611 814 l 536 814 m 274 -21 b -3 185 50 -21 -4 72 b 322 436 0 372 128 436 b 418 429 361 436 392 433 l 426 469 b 356 569 440 539 411 569 b 246 514 307 569 274 550 b 185 494 225 486 214 482 l 110 528 b 93 601 76 543 69 565 b 392 743 156 692 242 743 b 624 451 565 743 657 643 l 561 101 b 497 18 553 51 540 35 b 274 -21 440 -4 368 -21 m 285 140 b 358 150 317 140 342 146 b 372 163 364 151 371 156 l 392 272 b 303 282 367 279 343 282 b 200 197 217 282 200 236 b 285 140 200 165 215 140 "},"à":{"ha":686,"x_min":0,"x_max":0,"o":"m 228 906 b 222 965 200 917 194 938 l 281 1021 b 368 1014 314 1053 340 1032 l 544 899 b 547 844 565 885 571 869 l 521 817 b 454 817 504 800 485 804 m 274 -21 b -3 185 50 -21 -4 72 b 322 436 0 372 128 436 b 418 429 361 436 392 433 l 426 469 b 356 569 440 539 411 569 b 246 514 307 569 274 550 b 185 494 225 486 214 482 l 110 528 b 93 601 76 543 69 565 b 392 743 156 692 242 743 b 624 451 565 743 657 643 l 561 101 b 497 18 553 51 540 35 b 274 -21 440 -4 368 -21 m 285 140 b 358 150 317 140 342 146 b 372 163 364 151 371 156 l 392 272 b 303 282 367 279 343 282 b 200 197 217 282 200 236 b 285 140 200 165 215 140 "},"ā":{"ha":686,"x_min":0,"x_max":0,"o":"m 251 842 b 210 896 213 842 204 860 l 217 940 b 281 981 224 976 247 981 l 592 981 b 633 925 631 981 640 964 l 625 885 b 571 842 619 850 600 842 l 251 842 m 274 -21 b -3 185 50 -21 -4 72 b 322 436 0 372 128 436 b 418 429 361 436 392 433 l 426 469 b 356 569 440 539 411 569 b 246 514 307 569 274 550 b 185 494 225 486 214 482 l 110 528 b 93 601 76 543 69 565 b 392 743 156 692 242 743 b 624 451 565 743 657 643 l 561 101 b 497 18 553 51 540 35 b 274 -21 440 -4 368 -21 m 285 140 b 358 150 317 140 342 146 b 372 163 364 151 371 156 l 392 272 b 303 282 367 279 343 282 b 200 197 217 282 200 236 b 285 140 200 165 215 140 "},"ą":{"ha":686,"x_min":0,"x_max":0,"o":"m 340 -340 b 219 -237 272 -340 217 -311 b 351 -12 221 -165 265 -89 b 264 -21 325 -19 294 -21 b -12 185 40 -21 -14 72 b 313 436 -10 372 118 436 b 408 428 354 436 386 433 l 417 469 b 346 569 429 539 400 569 b 236 514 296 569 263 550 b 175 494 215 486 204 482 l 99 528 b 83 601 67 543 60 565 b 381 743 144 692 231 743 b 613 451 554 743 646 643 b 557 131 594 346 576 238 b 524 33 549 85 542 50 b 392 -181 435 -57 393 -136 b 410 -200 392 -196 400 -200 b 444 -190 422 -200 433 -194 b 471 -207 461 -183 467 -193 l 486 -262 b 478 -304 493 -285 493 -294 b 340 -340 440 -331 385 -340 m 275 140 b 347 150 306 140 331 146 b 361 163 354 151 360 156 l 382 272 b 293 282 356 279 333 282 b 190 197 207 282 190 236 b 275 140 189 165 206 140 "},"å":{"ha":686,"x_min":0,"x_max":0,"o":"m 410 790 b 264 929 321 790 264 844 b 436 1097 264 1029 336 1097 b 583 957 524 1097 583 1042 b 410 790 583 860 508 790 m 417 885 b 486 951 457 885 486 913 b 433 1001 486 983 468 1001 b 361 939 393 1001 363 976 b 417 885 360 907 382 885 m 274 -21 b -3 185 50 -21 -4 72 b 322 436 0 372 128 436 b 418 429 361 436 392 433 l 426 469 b 356 569 440 539 411 569 b 246 514 307 569 274 550 b 185 494 225 486 214 482 l 110 528 b 93 601 76 543 69 565 b 392 743 156 692 242 743 b 624 451 565 743 657 643 l 561 101 b 497 18 553 51 540 35 b 274 -21 440 -4 368 -21 m 285 140 b 358 150 317 140 342 146 b 372 163 364 151 371 156 l 392 272 b 303 282 367 279 343 282 b 200 197 217 282 200 236 b 285 140 200 165 215 140 "},"ǻ":{"ha":675,"x_min":0,"x_max":0,"o":"m 286 1146 b 292 1183 275 1161 276 1176 l 501 1271 b 575 1260 529 1283 556 1282 l 611 1219 b 604 1179 625 1204 626 1185 l 363 1113 b 308 1121 333 1104 318 1108 m 404 781 b 258 919 317 781 258 835 b 431 1086 258 1018 332 1086 b 576 946 518 1086 576 1032 b 404 781 576 849 503 781 m 411 874 b 481 942 451 874 481 901 b 429 992 481 972 463 992 b 357 928 388 992 357 965 b 411 874 356 896 378 874 m 274 -21 b -3 185 50 -21 -4 72 b 322 436 0 372 128 436 b 418 429 361 436 392 433 l 426 469 b 356 569 440 539 411 569 b 246 514 307 569 274 550 b 185 494 225 486 214 482 l 110 528 b 93 601 76 543 69 565 b 392 743 156 692 242 743 b 624 451 565 743 657 643 l 561 101 b 497 18 553 51 540 35 b 274 -21 440 -4 368 -21 m 285 140 b 358 150 317 140 342 146 b 372 163 364 151 371 156 l 392 272 b 303 282 367 279 343 282 b 200 197 217 282 200 236 b 285 140 200 165 215 140 "},"ã":{"ha":686,"x_min":0,"x_max":0,"o":"m 213 822 b 189 876 190 822 185 835 b 318 1015 200 974 242 1015 b 492 944 422 1015 444 944 b 529 992 511 944 525 960 b 556 1015 533 1011 538 1015 l 622 1015 b 642 964 643 1015 649 1003 b 514 822 625 863 586 822 b 339 892 413 822 390 892 b 300 849 317 892 303 878 b 274 822 299 829 290 822 l 213 822 m 274 -21 b -3 185 50 -21 -4 72 b 322 436 0 372 128 436 b 418 429 361 436 392 433 l 426 469 b 356 569 440 539 411 569 b 246 514 307 569 274 550 b 185 494 225 486 214 482 l 110 528 b 93 601 76 543 69 565 b 392 743 156 692 242 743 b 624 451 565 743 657 643 l 561 101 b 497 18 553 51 540 35 b 274 -21 440 -4 368 -21 m 285 140 b 358 150 317 140 342 146 b 372 163 364 151 371 156 l 392 272 b 303 282 367 279 343 282 b 200 197 217 282 200 236 b 285 140 200 165 215 140 "},"æ":{"ha":1026,"x_min":0,"x_max":0,"o":"m 231 -21 b -11 192 61 -21 -15 72 b 300 438 -7 365 100 438 b 399 433 336 438 375 435 b 413 518 408 488 411 504 b 343 582 414 563 393 582 b 228 511 286 582 258 550 b 167 503 208 486 197 488 l 104 532 b 85 596 69 550 64 564 b 353 743 139 682 222 743 b 526 681 433 743 490 715 b 717 743 578 718 642 743 b 978 536 886 743 981 663 b 682 282 976 367 849 282 b 551 289 636 282 588 285 l 539 222 b 611 128 531 164 546 129 b 746 213 675 128 718 164 b 801 219 760 235 781 231 l 871 183 b 888 118 904 165 906 147 b 601 -21 829 28 749 -21 b 436 32 540 -21 469 6 b 231 -21 378 3 313 -21 m 664 415 b 782 528 738 415 782 460 b 707 596 782 578 754 596 b 583 468 640 596 600 560 l 575 418 b 664 415 603 417 632 415 m 264 138 b 358 160 315 138 343 154 b 364 229 357 178 360 208 l 374 286 b 294 290 353 288 326 290 b 185 207 221 290 185 258 b 264 138 183 168 210 138 "},"ǽ":{"ha":1026,"x_min":0,"x_max":0,"o":"m 399 856 b 404 906 386 875 388 897 l 628 1024 b 707 1010 658 1040 688 1039 l 746 954 b 738 900 760 933 761 907 l 479 810 b 422 821 450 799 433 804 m 231 -21 b -11 192 61 -21 -15 72 b 300 438 -7 365 100 438 b 399 433 336 438 375 435 b 413 518 408 488 411 504 b 343 582 414 563 393 582 b 228 511 286 582 258 550 b 167 503 208 486 197 488 l 104 532 b 85 596 69 550 64 564 b 353 743 139 682 222 743 b 526 681 433 743 490 715 b 717 743 578 718 642 743 b 978 536 886 743 981 663 b 682 282 976 367 849 282 b 551 289 636 282 588 285 l 539 222 b 611 128 531 164 546 129 b 746 213 675 128 718 164 b 801 219 760 235 781 231 l 871 183 b 888 118 904 165 906 147 b 601 -21 829 28 749 -21 b 436 32 540 -21 469 6 b 231 -21 378 3 313 -21 m 664 415 b 782 528 738 415 782 460 b 707 596 782 578 754 596 b 583 468 640 596 600 560 l 575 418 b 664 415 603 417 632 415 m 264 138 b 358 160 315 138 343 154 b 364 229 357 178 360 208 l 374 286 b 294 290 353 288 326 290 b 185 207 221 290 185 258 b 264 138 183 168 210 138 "},"b":{"ha":722,"x_min":0,"x_max":0,"o":"m 290 -21 b 46 33 178 -21 83 13 b 8 110 7 56 1 69 l 163 985 b 219 1028 168 1015 188 1028 l 324 1028 b 363 969 358 1028 369 1008 l 319 729 b 422 743 350 738 388 743 b 657 451 608 743 688 626 l 626 267 b 290 -21 594 76 479 -21 m 297 160 b 428 281 378 160 414 203 l 460 461 b 385 563 471 529 451 563 b 288 544 346 563 308 557 l 224 181 b 228 169 222 174 222 171 b 297 160 240 164 268 160 "},"c":{"ha":679,"x_min":0,"x_max":0,"o":"m 271 -21 b 17 272 69 -21 -18 85 l 51 464 b 371 743 83 650 186 743 b 643 544 531 743 626 664 b 606 488 647 510 640 499 l 518 463 b 463 497 486 453 471 460 b 371 568 451 544 424 568 b 250 453 301 568 264 529 l 215 256 b 292 154 203 189 228 154 b 392 222 357 154 378 192 b 467 260 414 269 428 272 l 556 232 b 568 142 589 221 593 193 b 271 -21 514 32 417 -21 "},"ć":{"ha":679,"x_min":0,"x_max":0,"o":"m 254 856 b 260 906 242 875 243 897 l 483 1024 b 563 1010 514 1040 543 1039 l 601 954 b 593 900 615 933 617 907 l 335 810 b 278 821 306 799 289 804 m 271 -21 b 17 272 69 -21 -18 85 l 51 464 b 371 743 83 650 186 743 b 643 544 531 743 626 664 b 606 488 647 510 640 499 l 518 463 b 463 497 486 453 471 460 b 371 568 451 544 424 568 b 250 453 301 568 264 529 l 215 256 b 292 154 203 189 228 154 b 392 222 357 154 378 192 b 467 260 414 269 428 272 l 556 232 b 568 142 589 221 593 193 b 271 -21 514 32 417 -21 "},"č":{"ha":679,"x_min":0,"x_max":0,"o":"m 386 806 b 308 851 347 806 333 819 l 197 986 b 219 1024 179 1006 178 1024 l 303 1024 b 369 993 344 1024 351 1017 l 418 932 l 489 1000 b 558 1024 514 1025 524 1024 l 643 1024 b 667 976 686 1024 690 996 l 511 844 b 418 806 474 813 461 806 l 386 806 m 271 -21 b 17 272 69 -21 -18 85 l 51 464 b 371 743 83 650 186 743 b 643 544 531 743 626 664 b 606 488 647 510 640 499 l 518 463 b 463 497 486 453 471 460 b 371 568 451 544 424 568 b 250 453 301 568 264 529 l 215 256 b 292 154 203 189 228 154 b 392 222 357 154 378 192 b 467 260 414 269 428 272 l 556 232 b 568 142 589 221 593 193 b 271 -21 514 32 417 -21 "},"ç":{"ha":679,"x_min":0,"x_max":0,"o":"m 193 -340 b 86 -317 143 -340 108 -328 b 65 -282 69 -310 63 -303 l 72 -229 b 94 -214 75 -214 83 -211 b 172 -231 119 -224 142 -231 b 239 -190 217 -231 239 -215 b 214 -165 240 -178 232 -168 b 165 -161 200 -161 183 -161 b 146 -117 139 -161 133 -137 l 211 -17 b 17 272 51 3 -14 104 l 51 464 b 371 743 83 650 186 743 b 643 544 531 743 626 664 b 606 488 647 510 640 499 l 518 463 b 463 497 486 453 471 460 b 371 568 451 544 424 568 b 250 453 301 568 264 529 l 215 256 b 292 154 203 189 228 154 b 392 222 357 154 378 192 b 467 260 414 269 428 272 l 556 232 b 568 142 589 221 593 193 b 328 -17 522 47 443 -6 l 293 -69 b 368 -96 325 -69 350 -81 b 407 -175 393 -112 407 -140 b 193 -340 407 -292 314 -340 "},"ĉ":{"ha":679,"x_min":0,"x_max":0,"o":"m 206 808 b 181 856 163 808 158 836 l 347 996 b 417 1025 372 1018 386 1025 l 465 1025 b 535 990 501 1025 511 1018 l 654 846 b 632 808 669 826 669 808 l 547 808 b 478 842 506 808 497 819 l 432 899 l 361 832 b 288 808 335 807 321 808 l 206 808 m 271 -21 b 17 272 69 -21 -18 85 l 51 464 b 371 743 83 650 186 743 b 643 544 531 743 626 664 b 606 488 647 510 640 499 l 518 463 b 463 497 486 453 471 460 b 371 568 451 544 424 568 b 250 453 301 568 264 529 l 215 256 b 292 154 203 189 228 154 b 392 222 357 154 378 192 b 467 260 414 269 428 272 l 556 232 b 568 142 589 221 593 193 b 271 -21 514 32 417 -21 "},"ċ":{"ha":679,"x_min":0,"x_max":0,"o":"m 386 828 b 325 922 328 828 314 853 l 329 946 b 413 1028 340 1014 354 1028 l 481 1028 b 543 932 539 1028 554 1000 l 539 908 b 456 828 528 839 514 828 l 386 828 m 271 -21 b 17 272 69 -21 -18 85 l 51 464 b 371 743 83 650 186 743 b 643 544 531 743 626 664 b 606 488 647 510 640 499 l 518 463 b 463 497 486 453 471 460 b 371 568 451 544 424 568 b 250 453 301 568 264 529 l 215 256 b 292 154 203 189 228 154 b 392 222 357 154 378 192 b 467 260 414 269 428 272 l 556 232 b 568 142 589 221 593 193 b 271 -21 514 32 417 -21 "},"d":{"ha":722,"x_min":0,"x_max":0,"o":"m 285 -21 b 21 288 78 -21 -15 89 l 53 465 b 365 743 86 649 190 743 b 485 726 408 743 454 736 l 531 983 b 589 1028 536 1015 556 1028 l 693 1028 b 731 969 725 1028 736 1010 l 575 96 b 518 17 567 50 557 32 b 285 -21 467 -4 369 -21 m 300 160 b 375 171 328 160 357 164 b 390 189 385 175 389 179 l 456 550 b 375 563 436 558 404 563 b 250 447 300 563 264 531 l 219 275 b 300 160 206 196 231 160 "},"ð":{"ha":722,"x_min":0,"x_max":0,"o":"m 282 -21 b 18 272 76 -21 -14 93 l 46 428 b 354 697 78 615 200 697 b 499 654 424 697 469 674 b 483 789 508 714 501 757 l 432 735 b 401 735 419 721 413 725 l 364 768 b 363 803 351 778 347 789 l 401 839 b 269 857 376 851 342 857 b 218 913 226 857 211 874 l 231 988 b 276 1033 238 1024 249 1033 b 549 986 399 1031 485 1017 l 599 1040 b 631 1042 610 1053 621 1051 l 672 1001 b 672 967 685 989 686 981 l 628 922 b 671 540 690 844 703 718 l 622 261 b 282 -21 590 82 478 -21 m 301 160 b 424 275 372 160 411 206 l 449 419 b 367 521 461 490 428 521 b 243 406 290 521 256 476 l 217 261 b 301 160 206 192 236 160 "},"ď":{"ha":838,"x_min":0,"x_max":0,"o":"m 285 -21 b 21 288 78 -21 -15 89 l 53 465 b 365 743 86 649 190 743 b 485 726 408 743 454 736 l 531 983 b 589 1028 536 1015 556 1028 l 693 1028 b 731 969 725 1028 736 1010 l 575 96 b 518 17 567 50 557 32 b 285 -21 467 -4 369 -21 m 793 742 b 763 783 765 742 754 756 l 819 982 b 881 1028 832 1022 840 1028 l 967 1028 b 1010 969 1011 1028 1029 1004 l 904 781 b 843 742 886 749 878 742 l 793 742 m 300 160 b 375 171 328 160 357 164 b 390 189 385 175 389 179 l 456 550 b 375 563 436 558 404 563 b 250 447 300 563 264 531 l 219 275 b 300 160 206 196 231 160 "},"đ":{"ha":703,"x_min":0,"x_max":0,"o":"m 285 -21 b 21 288 78 -21 -15 89 l 53 465 b 365 743 86 649 190 743 b 485 726 408 743 454 736 l 501 817 l 363 817 b 338 857 336 817 332 829 l 347 910 b 379 938 351 933 361 938 l 524 938 l 531 983 b 589 1028 536 1015 556 1028 l 693 1028 b 731 969 725 1028 736 1010 l 725 938 l 771 938 b 796 896 797 938 801 924 l 786 844 b 754 817 782 819 774 817 l 703 817 l 575 96 b 518 17 567 50 557 32 b 285 -21 467 -4 369 -21 m 300 160 b 375 171 328 160 357 164 b 390 189 385 175 389 179 l 456 550 b 375 563 436 558 404 563 b 250 447 300 563 264 531 l 219 275 b 300 160 206 196 231 160 "},"e":{"ha":657,"x_min":0,"x_max":0,"o":"m 388 743 b 649 539 554 743 650 665 b 351 285 649 376 532 285 b 221 290 303 285 260 286 l 210 222 b 283 128 199 156 228 128 b 415 211 346 128 388 164 b 471 221 429 233 446 233 l 543 182 b 556 115 576 164 575 143 b 269 -21 496 25 418 -21 b 13 224 78 -21 7 81 b 49 451 15 265 22 310 b 388 743 85 642 181 743 m 318 421 b 453 528 407 421 453 460 b 378 596 453 578 424 596 b 253 469 310 596 268 560 l 244 425 b 318 421 268 422 290 421 "},"é":{"ha":657,"x_min":0,"x_max":0,"o":"m 240 856 b 246 906 228 875 229 897 l 469 1024 b 549 1010 500 1040 529 1039 l 588 954 b 579 900 601 933 603 907 l 321 810 b 264 821 292 799 275 804 m 388 743 b 649 539 554 743 650 665 b 351 285 649 376 532 285 b 221 290 303 285 260 286 l 210 222 b 283 128 199 156 228 128 b 415 211 346 128 388 164 b 471 221 429 233 446 233 l 543 182 b 556 115 576 164 575 143 b 269 -21 496 25 418 -21 b 13 224 78 -21 7 81 b 49 451 15 265 22 310 b 388 743 85 642 181 743 m 318 421 b 453 528 407 421 453 460 b 378 596 453 578 424 596 b 253 469 310 596 268 560 l 244 425 b 318 421 268 422 290 421 "},"ĕ":{"ha":657,"x_min":0,"x_max":0,"o":"m 411 808 b 211 953 307 808 236 861 b 228 999 204 982 207 992 l 301 1024 b 347 1001 326 1031 338 1025 b 417 950 361 968 383 950 b 506 1010 457 950 488 972 b 553 1021 519 1031 526 1032 l 629 990 b 643 940 653 981 657 971 b 411 808 603 858 515 808 m 388 743 b 649 539 554 743 650 665 b 351 285 649 376 532 285 b 221 290 303 285 260 286 l 210 222 b 283 128 199 156 228 128 b 415 211 346 128 388 164 b 471 221 429 233 446 233 l 543 182 b 556 115 576 164 575 143 b 269 -21 496 25 418 -21 b 13 224 78 -21 7 81 b 49 451 15 265 22 310 b 388 743 85 642 181 743 m 318 421 b 453 528 407 421 453 460 b 378 596 453 578 424 596 b 253 469 310 596 268 560 l 244 425 b 318 421 268 422 290 421 "},"ě":{"ha":657,"x_min":0,"x_max":0,"o":"m 629 1024 b 653 976 672 1024 676 996 l 497 844 b 404 806 460 813 447 806 l 372 806 b 294 851 333 806 319 819 l 183 986 b 206 1024 165 1006 164 1024 l 289 1024 b 356 993 331 1024 338 1017 l 404 932 l 475 1000 b 544 1024 500 1025 510 1024 l 629 1024 m 388 743 b 649 539 554 743 650 665 b 351 285 649 376 532 285 b 221 290 303 285 260 286 l 210 222 b 283 128 199 156 228 128 b 415 211 346 128 388 164 b 471 221 429 233 446 233 l 543 182 b 556 115 576 164 575 143 b 269 -21 496 25 418 -21 b 13 224 78 -21 7 81 b 49 451 15 265 22 310 b 388 743 85 642 181 743 m 318 421 b 453 528 407 421 453 460 b 378 596 453 578 424 596 b 253 469 310 596 268 560 l 244 425 b 318 421 268 422 290 421 "},"ê":{"ha":657,"x_min":0,"x_max":0,"o":"m 192 808 b 167 856 149 808 144 836 l 333 996 b 403 1025 358 1018 372 1025 l 451 1025 b 521 990 488 1025 497 1018 l 640 846 b 618 808 656 826 656 808 l 533 808 b 464 842 492 808 483 819 l 418 899 l 347 832 b 274 808 321 807 307 808 l 192 808 m 388 743 b 649 539 554 743 650 665 b 351 285 649 376 532 285 b 221 290 303 285 260 286 l 210 222 b 283 128 199 156 228 128 b 415 211 346 128 388 164 b 471 221 429 233 446 233 l 543 182 b 556 115 576 164 575 143 b 269 -21 496 25 418 -21 b 13 224 78 -21 7 81 b 49 451 15 265 22 310 b 388 743 85 642 181 743 m 318 421 b 453 528 407 421 453 460 b 378 596 453 578 424 596 b 253 469 310 596 268 560 l 244 425 b 318 421 268 422 290 421 "},"ë":{"ha":657,"x_min":0,"x_max":0,"o":"m 257 814 b 183 907 192 814 172 843 l 185 922 b 279 1001 196 988 213 1001 l 289 1001 b 367 908 356 1001 379 972 l 364 893 b 268 814 353 829 333 814 l 257 814 m 532 814 b 456 907 465 814 443 843 l 457 922 b 553 1001 468 988 488 1001 l 563 1001 b 639 908 629 1001 651 972 l 636 893 b 542 814 625 829 607 814 l 532 814 m 388 743 b 649 539 554 743 650 665 b 351 285 649 376 532 285 b 221 290 303 285 260 286 l 210 222 b 283 128 199 156 228 128 b 415 211 346 128 388 164 b 471 221 429 233 446 233 l 543 182 b 556 115 576 164 575 143 b 269 -21 496 25 418 -21 b 13 224 78 -21 7 81 b 49 451 15 265 22 310 b 388 743 85 642 181 743 m 318 421 b 453 528 407 421 453 460 b 378 596 453 578 424 596 b 253 469 310 596 268 560 l 244 425 b 318 421 268 422 290 421 "},"ė":{"ha":657,"x_min":0,"x_max":0,"o":"m 372 828 b 311 922 314 828 300 853 l 315 946 b 399 1028 326 1014 340 1028 l 467 1028 b 529 932 525 1028 540 1000 l 525 908 b 442 828 514 839 500 828 l 372 828 m 388 743 b 649 539 554 743 650 665 b 351 285 649 376 532 285 b 221 290 303 285 260 286 l 210 222 b 283 128 199 156 228 128 b 415 211 346 128 388 164 b 471 221 429 233 446 233 l 543 182 b 556 115 576 164 575 143 b 269 -21 496 25 418 -21 b 13 224 78 -21 7 81 b 49 451 15 265 22 310 b 388 743 85 642 181 743 m 318 421 b 453 528 407 421 453 460 b 378 596 453 578 424 596 b 253 469 310 596 268 560 l 244 425 b 318 421 268 422 290 421 "},"è":{"ha":657,"x_min":0,"x_max":0,"o":"m 224 906 b 218 965 196 917 190 938 l 276 1021 b 364 1014 310 1053 336 1032 l 540 899 b 543 844 561 885 567 869 l 517 817 b 450 817 500 800 481 804 l 224 906 m 388 743 b 649 539 554 743 650 665 b 351 285 649 376 532 285 b 221 290 303 285 260 286 l 210 222 b 283 128 199 156 228 128 b 415 211 346 128 388 164 b 471 221 429 233 446 233 l 543 182 b 556 115 576 164 575 143 b 269 -21 496 25 418 -21 b 13 224 78 -21 7 81 b 49 451 15 265 22 310 b 388 743 85 642 181 743 m 318 421 b 453 528 407 421 453 460 b 378 596 453 578 424 596 b 253 469 310 596 268 560 l 244 425 b 318 421 268 422 290 421 "},"ē":{"ha":657,"x_min":0,"x_max":0,"o":"m 247 842 b 206 896 208 842 200 860 l 213 940 b 276 981 219 976 243 981 l 588 981 b 629 925 626 981 636 964 l 621 885 b 567 842 615 850 596 842 l 247 842 m 388 743 b 649 539 554 743 650 665 b 351 285 649 376 532 285 b 221 290 303 285 260 286 l 210 222 b 283 128 199 156 228 128 b 415 211 346 128 388 164 b 471 221 429 233 446 233 l 543 182 b 556 115 576 164 575 143 b 269 -21 496 25 418 -21 b 13 224 78 -21 7 81 b 49 451 15 265 22 310 b 388 743 85 642 181 743 m 318 421 b 453 528 407 421 453 460 b 378 596 453 578 424 596 b 253 469 310 596 268 560 l 244 425 b 318 421 268 422 290 421 "},"ę":{"ha":700,"x_min":0,"x_max":0,"o":"m 317 -340 b 196 -243 243 -340 197 -310 b 325 -18 194 -172 239 -97 b 271 -21 310 -19 290 -21 b 13 224 79 -21 7 81 b 49 451 15 265 22 310 b 389 743 85 642 182 743 b 649 539 556 743 650 665 b 351 285 649 376 533 285 b 224 303 306 285 261 290 l 210 222 b 283 128 199 156 228 128 b 415 211 347 128 388 164 b 472 221 429 233 447 233 l 544 182 b 563 126 571 167 575 150 b 369 -179 531 61 376 -85 b 388 -200 368 -196 378 -200 b 422 -190 400 -200 411 -196 b 449 -206 438 -183 444 -193 l 464 -267 b 456 -304 468 -281 469 -294 b 317 -340 417 -332 360 -340 m 335 421 b 453 528 408 421 453 460 b 379 596 453 578 425 596 b 253 469 311 596 271 560 l 247 435 b 335 421 271 426 304 421 "},"f":{"ha":475,"x_min":0,"x_max":0,"o":"m 500 1028 b 544 968 538 1028 550 1008 l 529 892 b 485 846 522 851 515 846 b 358 722 411 846 374 803 l 449 722 b 489 664 485 722 496 703 l 476 594 b 424 540 469 554 458 540 l 326 540 l 239 44 b 179 0 232 10 217 0 l 76 0 b 40 58 42 0 33 19 l 125 540 l 82 540 b 40 599 44 540 33 558 l 56 679 b 114 722 63 715 81 722 l 157 722 l 158 733 b 481 1028 193 926 308 1025 l 500 1028 "},"g":{"ha":721,"x_min":0,"x_max":0,"o":"m 226 -319 b -32 -179 93 -319 8 -269 b -14 -111 -49 -144 -44 -126 l 79 -67 b 131 -85 106 -54 115 -60 b 226 -143 156 -126 179 -143 b 353 -25 297 -143 335 -104 l 367 33 b 254 19 338 24 293 19 b 24 306 72 19 -8 124 l 49 453 b 388 743 83 656 185 743 b 629 696 481 743 575 722 b 665 618 664 679 674 663 l 551 -29 b 226 -319 518 -221 417 -319 m 304 200 b 393 211 333 200 365 204 l 451 535 b 440 554 454 544 451 550 b 372 563 422 560 397 563 b 246 436 294 563 263 529 l 222 301 b 304 200 210 226 235 200 "},"ğ":{"ha":721,"x_min":0,"x_max":0,"o":"m 435 808 b 235 953 331 808 260 861 b 251 999 228 982 231 992 l 325 1024 b 371 1001 350 1031 361 1025 b 440 950 385 968 407 950 b 529 1010 481 950 511 972 b 576 1021 543 1031 550 1032 l 653 990 b 667 940 676 981 681 971 b 435 808 626 858 539 808 m 226 -319 b -32 -179 93 -319 8 -269 b -14 -111 -49 -144 -44 -126 l 79 -67 b 131 -85 106 -54 115 -60 b 226 -143 156 -126 179 -143 b 353 -25 297 -143 335 -104 l 367 33 b 254 19 338 24 293 19 b 24 306 72 19 -8 124 l 49 453 b 388 743 83 656 185 743 b 629 696 481 743 575 722 b 665 618 664 679 674 663 l 551 -29 b 226 -319 518 -221 417 -319 m 304 200 b 393 211 333 200 365 204 l 451 535 b 440 554 454 544 451 550 b 372 563 422 560 397 563 b 246 436 294 563 263 529 l 222 301 b 304 200 210 226 235 200 "},"ĝ":{"ha":721,"x_min":0,"x_max":0,"o":"m 217 808 b 192 856 174 808 169 836 l 358 996 b 428 1025 383 1018 397 1025 l 476 1025 b 546 990 513 1025 522 1018 l 665 846 b 643 808 681 826 681 808 l 558 808 b 489 842 517 808 508 819 l 443 899 l 372 832 b 299 808 346 807 332 808 l 217 808 m 226 -319 b -32 -179 93 -319 8 -269 b -14 -111 -49 -144 -44 -126 l 79 -67 b 131 -85 106 -54 115 -60 b 226 -143 156 -126 179 -143 b 353 -25 297 -143 335 -104 l 367 33 b 254 19 338 24 293 19 b 24 306 72 19 -8 124 l 49 453 b 388 743 83 656 185 743 b 629 696 481 743 575 722 b 665 618 664 679 674 663 l 551 -29 b 226 -319 518 -221 417 -319 m 304 200 b 393 211 333 200 365 204 l 451 535 b 440 554 454 544 451 550 b 372 563 422 560 397 563 b 246 436 294 563 263 529 l 222 301 b 304 200 210 226 235 200 "},"ģ":{"ha":721,"x_min":0,"x_max":0,"o":"m 368 801 b 326 868 319 801 306 831 l 403 1001 b 468 1040 421 1036 431 1040 l 524 1040 b 557 996 554 1040 565 1025 l 517 853 b 447 801 504 808 490 801 l 368 801 m 226 -319 b -32 -179 93 -319 8 -269 b -14 -111 -49 -144 -44 -126 l 79 -67 b 131 -85 106 -54 115 -60 b 226 -143 156 -126 179 -143 b 353 -25 297 -143 335 -104 l 367 33 b 254 19 338 24 293 19 b 24 306 72 19 -8 124 l 49 453 b 388 743 83 656 185 743 b 629 696 481 743 575 722 b 665 618 664 679 674 663 l 551 -29 b 226 -319 518 -221 417 -319 m 304 200 b 393 211 333 200 365 204 l 451 535 b 440 554 454 544 451 550 b 372 563 422 560 397 563 b 246 436 294 563 263 529 l 222 301 b 304 200 210 226 235 200 "},"ġ":{"ha":721,"x_min":0,"x_max":0,"o":"m 397 828 b 336 922 339 828 325 853 l 340 946 b 424 1028 351 1014 365 1028 l 492 1028 b 554 932 550 1028 565 1000 l 550 908 b 467 828 539 839 525 828 l 397 828 m 226 -319 b -32 -179 93 -319 8 -269 b -14 -111 -49 -144 -44 -126 l 79 -67 b 131 -85 106 -54 115 -60 b 226 -143 156 -126 179 -143 b 353 -25 297 -143 335 -104 l 367 33 b 254 19 338 24 293 19 b 24 306 72 19 -8 124 l 49 453 b 388 743 83 656 185 743 b 629 696 481 743 575 722 b 665 618 664 679 674 663 l 551 -29 b 226 -319 518 -221 417 -319 m 304 200 b 393 211 333 200 365 204 l 451 535 b 440 554 454 544 451 550 b 372 563 422 560 397 563 b 246 436 294 563 263 529 l 222 301 b 304 200 210 226 235 200 "},"h":{"ha":733,"x_min":0,"x_max":0,"o":"m 43 0 b 4 56 7 0 -3 18 l 167 983 b 229 1028 174 1021 197 1028 l 328 1028 b 367 969 364 1028 374 1007 l 325 733 b 433 743 346 738 389 743 b 657 456 622 743 688 636 l 583 43 b 522 0 578 8 556 0 l 418 0 b 385 58 385 0 379 24 l 456 458 b 383 560 468 535 442 560 b 293 549 343 560 310 553 l 203 46 b 140 0 196 8 176 0 l 43 0 "},"ħ":{"ha":733,"x_min":0,"x_max":0,"o":"m 40 0 b 1 56 4 0 -6 18 l 136 822 l 101 822 b 71 858 76 822 67 833 l 82 911 b 117 939 86 938 94 939 l 157 939 l 165 983 b 226 1028 172 1021 194 1028 l 326 1028 b 364 969 361 1028 371 1007 l 360 939 l 507 939 b 532 896 532 939 538 924 l 524 851 b 489 822 518 822 508 822 l 338 822 l 322 733 b 431 743 343 738 386 743 b 654 456 621 743 685 636 l 581 43 b 519 0 575 8 553 0 l 415 0 b 382 58 382 0 376 24 l 453 458 b 381 560 465 535 439 560 b 290 549 340 560 307 553 l 200 46 b 139 0 193 8 174 0 l 40 0 "},"ĥ":{"ha":733,"x_min":0,"x_max":0,"o":"m 82 1074 b 57 1121 39 1074 35 1101 l 224 1263 b 293 1292 249 1283 263 1292 l 342 1292 b 411 1256 376 1292 388 1285 l 529 1111 b 508 1074 546 1092 546 1074 l 424 1074 b 354 1108 382 1074 374 1085 l 308 1164 l 238 1097 b 164 1074 211 1072 197 1074 l 82 1074 m 43 0 b 4 56 7 0 -3 18 l 167 983 b 229 1028 174 1021 197 1028 l 328 1028 b 367 969 364 1028 374 1007 l 325 733 b 433 743 346 738 389 743 b 657 456 622 743 688 636 l 583 43 b 522 0 578 8 556 0 l 418 0 b 385 58 385 0 379 24 l 456 458 b 383 560 468 535 442 560 b 293 549 343 560 310 553 l 203 46 b 140 0 196 8 176 0 l 43 0 "},"i":{"ha":356,"x_min":0,"x_max":0,"o":"m 207 828 b 146 922 149 828 133 853 l 149 946 b 232 1028 161 1014 175 1028 l 300 1028 b 364 932 360 1028 375 1000 l 360 908 b 276 828 349 839 335 828 l 207 828 m 33 0 b 1 57 4 0 -6 19 l 111 678 b 167 722 118 715 142 722 l 275 722 b 311 664 306 722 318 704 l 200 46 b 144 0 193 8 174 0 l 33 0 "},"ı":{"ha":357,"x_min":0,"x_max":0,"o":"m 39 0 b 1 58 1 0 -4 24 l 111 679 b 167 722 117 710 133 722 l 272 722 b 310 664 308 722 317 701 l 200 46 b 140 0 194 11 178 0 l 39 0 "},"í":{"ha":357,"x_min":0,"x_max":0,"o":"m 69 851 b 72 903 51 878 47 888 l 264 1019 b 353 1010 297 1040 331 1040 l 396 954 b 388 901 417 926 421 914 l 154 811 b 93 819 122 799 106 803 m 39 0 b 1 58 1 0 -4 24 l 111 679 b 167 722 117 710 133 722 l 272 722 b 310 664 308 722 317 701 l 200 46 b 140 0 194 11 178 0 l 39 0 "},"ĭ":{"ha":357,"x_min":0,"x_max":0,"o":"m 239 808 b 50 963 126 808 82 872 b 69 999 44 982 46 990 l 144 1024 b 196 993 175 1033 185 1021 b 250 951 207 961 219 951 b 333 1018 288 951 300 983 b 375 1019 346 1032 354 1028 l 444 992 b 464 936 468 982 481 965 b 239 808 417 856 340 808 m 39 0 b 1 58 1 0 -4 24 l 111 679 b 167 722 117 710 133 722 l 272 722 b 310 664 308 722 317 701 l 200 46 b 140 0 194 11 178 0 l 39 0 "},"î":{"ha":357,"x_min":0,"x_max":0,"o":"m 47 807 b 22 854 7 807 1 833 l 157 983 b 257 1019 197 1024 208 1019 l 279 1019 b 360 972 318 1019 335 1013 l 449 842 b 428 807 463 821 471 807 l 354 807 b 279 839 313 807 292 813 l 249 896 l 194 829 b 115 807 171 801 158 807 l 47 807 m 39 0 b 1 58 1 0 -4 24 l 111 679 b 167 722 117 710 133 722 l 272 722 b 310 664 308 722 317 701 l 200 46 b 140 0 194 11 178 0 l 39 0 "},"ï":{"ha":357,"x_min":0,"x_max":0,"o":"m 106 814 b 31 907 39 814 19 843 l 32 922 b 128 1001 43 988 61 1001 l 138 1001 b 215 908 204 1001 226 972 l 213 893 b 115 814 201 829 182 814 l 106 814 m 364 814 b 288 907 297 814 276 843 l 289 922 b 385 1001 300 988 319 1001 l 394 1001 b 471 908 461 1001 482 972 l 468 893 b 374 814 457 829 439 814 l 364 814 m 39 0 b 1 58 1 0 -4 24 l 111 679 b 167 722 117 710 133 722 l 272 722 b 310 664 308 722 317 701 l 200 46 b 140 0 194 11 178 0 l 39 0 "},"ì":{"ha":357,"x_min":0,"x_max":0,"o":"m 367 810 b 308 815 351 793 335 803 l 106 907 b 100 965 76 921 72 938 l 160 1021 b 247 1013 192 1051 222 1035 l 397 896 b 400 842 418 881 424 868 l 367 810 m 39 0 b 1 58 1 0 -4 24 l 111 679 b 167 722 117 710 133 722 l 272 722 b 310 664 308 722 317 701 l 200 46 b 140 0 194 11 178 0 l 39 0 "},"ĳ":{"ha":704,"x_min":0,"x_max":0,"o":"m 207 828 b 146 922 149 828 133 853 l 149 946 b 232 1028 161 1014 175 1028 l 300 1028 b 364 932 360 1028 375 1000 l 360 908 b 276 828 349 839 335 828 l 207 828 m 554 828 b 493 922 496 828 482 853 l 497 946 b 581 1028 508 1014 524 1028 l 649 1028 b 711 932 707 1028 722 1000 l 707 908 b 624 828 696 839 683 828 l 554 828 m 33 0 b 1 57 4 0 -6 19 l 111 678 b 167 722 118 715 142 722 l 275 722 b 311 664 306 722 318 704 l 200 46 b 144 0 193 8 174 0 l 33 0 m 210 -319 b 164 -260 169 -319 157 -300 l 178 -181 b 222 -135 185 -140 192 -135 b 333 4 304 -135 319 -78 l 453 678 b 511 722 458 711 476 722 l 615 722 b 651 664 650 722 658 703 l 531 -18 b 210 -319 497 -215 435 -319 "},"ī":{"ha":357,"x_min":0,"x_max":0,"o":"m 129 850 b 101 889 104 850 97 864 l 111 946 b 156 983 115 972 125 983 l 375 983 b 403 944 400 983 407 968 l 392 889 b 354 850 386 858 375 850 l 129 850 m 39 0 b 1 58 1 0 -4 24 l 111 679 b 167 722 117 710 133 722 l 272 722 b 310 664 308 722 317 701 l 200 46 b 140 0 194 11 178 0 l 39 0 "},"į":{"ha":357,"x_min":0,"x_max":0,"o":"m 207 828 b 146 922 149 828 133 853 l 149 946 b 232 1028 161 1014 175 1028 l 300 1028 b 364 932 360 1028 375 1000 l 360 908 b 276 828 349 839 335 828 l 207 828 m 33 -340 b -89 -240 -40 -340 -87 -314 b 51 0 -90 -171 -39 -87 b 1 54 6 -4 -6 15 l 111 679 b 169 722 117 708 133 722 l 272 722 b 311 664 311 722 317 699 l 200 43 b 185 -4 196 22 194 10 b 85 -179 111 -110 86 -146 b 103 -200 83 -193 88 -200 b 140 -189 114 -200 129 -193 b 163 -204 151 -183 160 -192 l 179 -267 b 169 -304 185 -283 185 -294 b 33 -340 131 -332 75 -340 "},"ĩ":{"ha":357,"x_min":0,"x_max":0,"o":"m 76 828 b 54 874 57 828 50 846 b 174 1025 75 996 117 1025 b 300 956 258 1025 265 956 b 343 1008 318 956 336 971 b 365 1025 346 1022 347 1025 l 415 1025 b 439 981 436 1025 443 1008 b 315 828 418 858 379 828 b 194 893 239 828 229 893 b 151 846 176 893 158 883 b 129 828 149 832 146 828 l 76 828 m 39 0 b 1 58 1 0 -4 24 l 111 679 b 167 722 117 710 133 722 l 272 722 b 310 664 308 722 317 701 l 200 46 b 140 0 194 11 178 0 l 39 0 "},"j":{"ha":349,"x_min":0,"x_max":0,"o":"m 210 828 b 149 922 151 828 138 853 l 153 946 b 236 1028 164 1014 178 1028 l 304 1028 b 367 932 363 1028 378 1000 l 363 908 b 279 828 351 839 338 828 l 210 828 m -136 -319 b -182 -260 -175 -319 -189 -300 l -168 -181 b -124 -135 -161 -140 -153 -135 b -11 4 -42 -135 -26 -78 l 107 678 b 165 722 114 711 131 722 l 269 722 b 306 664 304 722 313 703 l 185 -18 b -136 -319 151 -215 89 -319 "},"ȷ":{"ha":349,"x_min":0,"x_max":0,"o":"m -136 -319 b -182 -260 -175 -319 -189 -300 l -168 -181 b -124 -135 -161 -140 -153 -135 b -11 4 -42 -135 -26 -78 l 107 678 b 165 722 114 711 131 722 l 269 722 b 306 664 304 722 313 703 l 185 -18 b -136 -319 151 -215 89 -319 "},"ĵ":{"ha":349,"x_min":0,"x_max":0,"o":"m 33 807 b 7 854 -8 807 -12 833 l 158 982 b 260 1019 201 1019 211 1019 l 281 1019 b 363 974 321 1019 332 1013 l 468 843 b 447 807 483 822 490 807 l 371 807 b 296 839 328 807 311 815 l 251 896 l 183 829 b 104 807 156 806 147 807 l 33 807 m -136 -319 b -182 -260 -176 -319 -189 -300 l -168 -181 b -124 -135 -161 -140 -154 -135 b -12 4 -42 -135 -26 -78 l 107 678 b 165 722 113 711 131 722 l 269 722 b 306 664 304 722 313 703 l 185 -18 b -136 -319 151 -215 89 -319 "},"k":{"ha":699,"x_min":0,"x_max":0,"o":"m 38 0 b 3 60 3 0 -4 19 l 165 983 b 222 1028 172 1021 199 1028 l 329 1028 b 365 969 361 1028 372 1008 l 274 457 l 297 457 l 310 457 l 475 689 b 542 722 496 717 503 722 l 665 722 b 688 656 711 722 715 690 l 485 406 b 524 300 503 385 513 349 l 586 54 b 544 0 597 10 593 0 l 443 0 b 381 51 396 0 388 13 l 344 225 b 296 276 336 264 326 276 l 242 276 l 201 46 b 142 0 194 7 174 0 l 38 0 "},"ķ":{"ha":699,"x_min":0,"x_max":0,"o":"m 38 0 b 3 60 3 0 -4 19 l 165 983 b 222 1028 172 1021 199 1028 l 329 1028 b 365 969 361 1028 372 1008 l 274 457 l 297 457 l 310 457 l 475 689 b 542 722 496 717 503 722 l 665 722 b 688 656 711 722 715 690 l 485 406 b 524 300 503 385 513 349 l 586 54 b 544 0 597 10 593 0 l 443 0 b 381 51 396 0 388 13 l 344 225 b 296 276 336 264 326 276 l 242 276 l 201 46 b 142 0 194 7 174 0 l 38 0 m 132 -361 b 100 -318 103 -361 93 -344 l 157 -122 b 221 -76 169 -81 181 -76 l 314 -76 b 358 -136 361 -76 376 -101 l 260 -322 b 199 -361 242 -356 232 -361 l 132 -361 "},"ĸ":{"ha":683,"x_min":0,"x_max":0,"o":"m 38 0 b 0 61 1 0 -7 19 l 108 678 b 168 722 115 714 133 722 l 268 722 b 308 663 306 722 315 703 l 268 442 l 461 686 b 544 722 492 725 497 722 l 653 722 b 676 657 699 722 707 694 l 461 413 l 569 56 b 531 0 582 17 581 0 l 439 0 b 367 49 382 0 376 11 l 304 264 l 224 185 l 199 46 b 140 0 192 8 174 0 l 38 0 "},"l":{"ha":364,"x_min":0,"x_max":0,"o":"m 40 0 b 6 58 6 0 -1 19 l 168 983 b 228 1028 175 1019 199 1028 l 329 1028 b 368 969 365 1028 375 1008 l 204 44 b 147 0 197 10 179 0 l 40 0 "},"ĺ":{"ha":364,"x_min":0,"x_max":0,"o":"m 128 1115 b 131 1167 111 1142 106 1153 l 322 1271 b 404 1258 356 1290 383 1290 l 450 1197 b 443 1143 471 1168 476 1156 l 215 1068 b 156 1078 183 1057 167 1060 m 40 0 b 6 58 6 0 -1 19 l 168 983 b 228 1028 175 1019 199 1028 l 329 1028 b 368 969 365 1028 375 1008 l 204 44 b 147 0 197 10 179 0 l 40 0 "},"ľ":{"ha":381,"x_min":0,"x_max":0,"o":"m 40 0 b 6 58 6 0 -1 19 l 168 983 b 228 1028 175 1019 199 1028 l 329 1028 b 368 969 365 1028 375 1008 l 204 44 b 147 0 197 10 179 0 l 40 0 m 432 742 b 401 783 404 742 393 756 l 460 982 b 521 1028 472 1022 481 1028 l 607 1028 b 650 969 651 1028 669 1004 l 543 781 b 483 742 526 749 517 742 l 432 742 "},"ļ":{"ha":364,"x_min":0,"x_max":0,"o":"m 40 0 b 6 58 6 0 -1 19 l 168 983 b 228 1028 175 1019 199 1028 l 329 1028 b 368 969 365 1028 375 1008 l 204 44 b 147 0 197 10 179 0 l 40 0 m -46 -361 b -78 -318 -75 -361 -85 -344 l -21 -122 b 43 -76 -8 -81 3 -76 l 136 -76 b 181 -136 183 -76 199 -101 l 82 -322 b 21 -361 64 -356 54 -361 l -46 -361 "},"ŀ":{"ha":597,"x_min":0,"x_max":0,"o":"m 40 0 b 6 58 6 0 -1 19 l 168 983 b 228 1028 175 1019 199 1028 l 329 1028 b 368 969 365 1028 375 1008 l 204 44 b 147 0 197 10 179 0 l 40 0 m 429 417 b 346 519 357 417 333 447 l 350 539 b 457 629 363 613 383 629 l 474 629 b 557 526 546 629 569 599 l 553 506 b 446 417 540 433 519 417 l 429 417 "},"ł":{"ha":474,"x_min":0,"x_max":0,"o":"m 96 0 b 57 58 58 0 50 19 l 115 382 l 85 368 b 36 389 54 354 43 367 l 13 444 b 28 490 6 467 7 481 l 143 543 l 219 983 b 283 1028 226 1017 244 1028 l 381 1028 b 419 969 418 1028 426 1008 l 363 651 l 401 669 b 450 654 426 681 444 676 l 474 594 b 461 550 482 572 483 560 l 336 493 l 256 43 b 196 0 250 11 232 0 l 96 0 "},"m":{"ha":1106,"x_min":0,"x_max":0,"o":"m 36 0 b 0 58 0 0 -7 19 l 99 621 b 153 693 104 657 115 676 b 410 743 214 721 306 743 b 574 701 479 743 540 724 b 789 743 633 725 701 743 b 1026 450 981 743 1060 638 l 956 43 b 890 0 949 6 928 0 l 792 0 b 756 58 756 0 749 18 l 826 458 b 757 560 838 529 815 560 b 661 535 718 560 690 550 b 647 450 660 511 653 482 l 576 43 b 515 0 571 10 549 0 l 413 0 b 378 57 376 0 372 22 l 449 460 b 381 560 460 529 436 560 b 294 546 344 560 314 556 b 285 531 286 542 286 538 l 199 43 b 135 0 192 7 169 0 l 36 0 "},"n":{"ha":731,"x_min":0,"x_max":0,"o":"m 35 0 b 0 58 3 0 -7 17 l 99 621 b 158 694 106 663 121 679 b 406 743 221 721 314 743 b 651 450 607 743 686 643 l 581 43 b 521 0 575 13 558 0 l 417 0 b 382 58 383 0 374 17 l 451 458 b 379 560 464 528 440 560 b 301 549 347 560 321 554 b 286 535 290 544 286 542 l 199 43 b 140 0 193 13 176 0 l 35 0 "},"ń":{"ha":731,"x_min":0,"x_max":0,"o":"m 254 856 b 260 906 242 875 243 897 l 483 1024 b 563 1010 514 1040 543 1039 l 601 954 b 593 900 615 933 617 907 l 335 810 b 278 821 306 799 289 804 m 35 0 b 0 58 3 0 -7 17 l 99 621 b 158 694 106 663 121 679 b 406 743 221 721 314 743 b 651 450 607 743 686 643 l 581 43 b 521 0 575 13 558 0 l 417 0 b 382 58 383 0 374 17 l 451 458 b 379 560 464 528 440 560 b 301 549 347 560 321 554 b 286 535 290 544 286 542 l 199 43 b 140 0 193 13 176 0 l 35 0 "},"ŉ":{"ha":731,"x_min":0,"x_max":0,"o":"m 40 749 b 15 788 13 749 3 763 l 119 989 b 182 1028 138 1022 142 1028 l 281 1028 b 313 971 325 1028 336 1001 l 157 778 b 93 749 135 750 128 749 l 40 749 m 35 0 b 0 58 3 0 -7 17 l 99 621 b 158 694 106 663 121 679 b 406 743 221 721 314 743 b 651 450 607 743 686 643 l 581 43 b 521 0 575 13 558 0 l 417 0 b 382 58 383 0 374 17 l 451 458 b 379 560 464 528 440 560 b 301 549 347 560 321 554 b 286 535 290 544 286 542 l 199 43 b 140 0 193 13 176 0 l 35 0 "},"ň":{"ha":731,"x_min":0,"x_max":0,"o":"m 386 806 b 308 851 347 806 333 819 l 197 986 b 219 1024 179 1006 178 1024 l 303 1024 b 369 993 344 1024 351 1017 l 418 932 l 489 1000 b 558 1024 514 1025 524 1024 l 643 1024 b 667 976 686 1024 690 996 l 511 844 b 418 806 474 813 461 806 l 386 806 m 35 0 b 0 58 3 0 -7 17 l 99 621 b 158 694 106 663 121 679 b 406 743 221 721 314 743 b 651 450 607 743 686 643 l 581 43 b 521 0 575 13 558 0 l 417 0 b 382 58 383 0 374 17 l 451 458 b 379 560 464 528 440 560 b 301 549 347 560 321 554 b 286 535 290 544 286 542 l 199 43 b 140 0 193 13 176 0 l 35 0 "},"ņ":{"ha":731,"x_min":0,"x_max":0,"o":"m 35 0 b 0 58 3 0 -7 17 l 99 621 b 158 694 106 663 121 679 b 406 743 221 721 314 743 b 651 450 607 743 686 643 l 581 43 b 521 0 575 13 558 0 l 417 0 b 382 58 383 0 374 17 l 451 458 b 379 560 464 528 440 560 b 301 549 347 560 321 554 b 286 535 290 544 286 542 l 199 43 b 140 0 193 13 176 0 l 35 0 m 147 -361 b 115 -318 118 -361 108 -344 l 172 -122 b 236 -76 185 -81 196 -76 l 329 -76 b 374 -136 376 -76 392 -101 l 275 -322 b 214 -361 257 -356 247 -361 l 147 -361 "},"ŋ":{"ha":738,"x_min":0,"x_max":0,"o":"m 232 -319 b 182 -262 189 -319 175 -301 l 197 -185 b 243 -142 203 -146 211 -142 b 369 -7 339 -142 354 -89 l 451 458 b 379 560 464 528 440 560 b 301 549 347 560 321 554 b 286 535 290 546 288 542 l 199 43 b 140 0 193 13 175 0 l 35 0 b 0 58 3 0 -7 17 l 99 621 b 158 694 106 663 121 679 b 403 743 221 722 313 743 b 651 450 604 743 686 643 l 568 -28 b 232 -319 535 -218 444 -319 "},"ñ":{"ha":731,"x_min":0,"x_max":0,"o":"m 221 822 b 197 876 199 822 193 835 b 326 1015 208 974 250 1015 b 500 944 431 1015 453 944 b 538 992 519 944 533 960 b 564 1015 542 1011 546 1015 l 631 1015 b 650 964 651 1015 657 1003 b 522 822 633 863 594 822 b 347 892 421 822 399 892 b 308 849 325 892 311 878 b 282 822 307 829 299 822 l 221 822 m 35 0 b 0 58 3 0 -7 17 l 99 621 b 158 694 106 663 121 679 b 406 743 221 721 314 743 b 651 450 607 743 686 643 l 581 43 b 521 0 575 13 558 0 l 417 0 b 382 58 383 0 374 17 l 451 458 b 379 560 464 528 440 560 b 301 549 347 560 321 554 b 286 535 290 544 286 542 l 199 43 b 140 0 193 13 176 0 l 35 0 "},"o":{"ha":718,"x_min":0,"x_max":0,"o":"m 276 -21 b 18 276 72 -21 -12 99 l 50 460 b 388 743 82 646 194 743 b 653 446 593 743 685 622 l 621 261 b 276 -21 589 79 472 -21 m 299 160 b 422 275 372 160 410 206 l 456 461 b 372 563 468 532 435 563 b 249 447 301 563 263 518 l 215 261 b 299 160 204 193 238 160 "},"ó":{"ha":718,"x_min":0,"x_max":0,"o":"m 256 856 b 261 906 243 875 244 897 l 485 1024 b 564 1010 515 1040 544 1039 l 603 954 b 594 900 617 933 618 907 l 336 810 b 279 821 307 799 290 804 m 276 -21 b 18 276 72 -21 -12 99 l 50 460 b 388 743 82 646 194 743 b 653 446 593 743 685 622 l 621 261 b 276 -21 589 79 472 -21 m 299 160 b 422 275 372 160 410 206 l 456 461 b 372 563 468 532 435 563 b 249 447 301 563 263 518 l 215 261 b 299 160 204 193 238 160 "},"ŏ":{"ha":718,"x_min":0,"x_max":0,"o":"m 426 808 b 226 953 322 808 251 861 b 243 999 219 982 222 992 l 317 1024 b 363 1001 342 1031 353 1025 b 432 950 376 968 399 950 b 521 1010 472 950 503 972 b 568 1021 535 1031 542 1032 l 644 990 b 658 940 668 981 672 971 b 426 808 618 858 531 808 m 276 -21 b 18 276 72 -21 -12 99 l 50 460 b 388 743 82 646 194 743 b 653 446 593 743 685 622 l 621 261 b 276 -21 589 79 472 -21 m 299 160 b 422 275 372 160 410 206 l 456 461 b 372 563 468 532 435 563 b 249 447 301 563 263 518 l 215 261 b 299 160 204 193 238 160 "},"ô":{"ha":718,"x_min":0,"x_max":0,"o":"m 208 808 b 183 856 165 808 161 836 l 350 996 b 419 1025 375 1018 389 1025 l 468 1025 b 538 990 504 1025 514 1018 l 657 846 b 635 808 672 826 672 808 l 550 808 b 481 842 508 808 500 819 l 435 899 l 364 832 b 290 808 338 807 324 808 l 208 808 m 276 -21 b 18 276 72 -21 -12 99 l 50 460 b 388 743 82 646 194 743 b 653 446 593 743 685 622 l 621 261 b 276 -21 589 79 472 -21 m 299 160 b 422 275 372 160 410 206 l 456 461 b 372 563 468 532 435 563 b 249 447 301 563 263 518 l 215 261 b 299 160 204 193 238 160 "},"ö":{"ha":718,"x_min":0,"x_max":0,"o":"m 272 814 b 199 907 207 814 188 843 l 200 922 b 294 1001 211 988 228 1001 l 304 1001 b 382 908 371 1001 394 972 l 379 893 b 283 814 368 829 349 814 l 272 814 m 547 814 b 471 907 481 814 458 843 l 472 922 b 568 1001 483 988 503 1001 l 578 1001 b 654 908 644 1001 667 972 l 651 893 b 557 814 640 829 622 814 l 547 814 m 276 -21 b 18 276 72 -21 -12 99 l 50 460 b 388 743 82 646 194 743 b 653 446 593 743 685 622 l 621 261 b 276 -21 589 79 472 -21 m 299 160 b 422 275 372 160 410 206 l 456 461 b 372 563 468 532 435 563 b 249 447 301 563 263 518 l 215 261 b 299 160 204 193 238 160 "},"ò":{"ha":718,"x_min":0,"x_max":0,"o":"m 239 906 b 233 965 211 917 206 938 l 292 1021 b 379 1014 325 1053 351 1032 l 556 899 b 558 844 576 885 582 869 l 532 817 b 465 817 515 800 496 804 m 276 -21 b 18 276 72 -21 -12 99 l 50 460 b 388 743 82 646 194 743 b 653 446 593 743 685 622 l 621 261 b 276 -21 589 79 472 -21 m 299 160 b 422 275 372 160 410 206 l 456 461 b 372 563 468 532 435 563 b 249 447 301 563 263 518 l 215 261 b 299 160 204 193 238 160 "},"ő":{"ha":718,"x_min":0,"x_max":0,"o":"m 219 815 b 204 868 190 825 186 847 l 321 1000 b 393 1022 343 1026 360 1035 l 461 999 b 475 940 494 986 501 961 l 313 819 b 256 806 288 801 274 800 m 460 815 b 444 868 431 825 426 847 l 560 1000 b 633 1022 583 1026 600 1035 l 701 999 b 714 940 735 986 742 960 l 553 819 b 496 806 528 801 514 800 m 276 -21 b 18 276 72 -21 -12 99 l 50 460 b 388 743 82 646 194 743 b 653 446 593 743 685 622 l 621 261 b 276 -21 589 79 472 -21 m 299 160 b 422 275 372 160 410 206 l 456 461 b 372 563 468 532 435 563 b 249 447 301 563 263 518 l 215 261 b 299 160 204 193 238 160 "},"ō":{"ha":718,"x_min":0,"x_max":0,"o":"m 263 842 b 221 896 224 842 215 860 l 228 940 b 292 981 235 976 258 981 l 603 981 b 644 925 642 981 651 964 l 636 885 b 582 842 631 850 611 842 l 263 842 m 276 -21 b 18 276 72 -21 -12 99 l 50 460 b 388 743 82 646 194 743 b 653 446 593 743 685 622 l 621 261 b 276 -21 589 79 472 -21 m 299 160 b 422 275 372 160 410 206 l 456 461 b 372 563 468 532 435 563 b 249 447 301 563 263 518 l 215 261 b 299 160 204 193 238 160 "},"ø":{"ha":718,"x_min":0,"x_max":0,"o":"m -11 -50 b -19 -24 -32 -50 -29 -36 l 54 67 b 18 276 17 117 3 189 l 50 460 b 388 743 82 644 194 743 b 542 713 451 743 504 729 l 576 757 b 608 768 585 768 593 768 l 683 768 b 697 743 703 768 706 754 l 617 651 b 653 446 653 600 668 531 l 621 261 b 278 -21 590 82 472 -21 b 135 6 217 -21 171 -10 l 101 -37 b 65 -50 93 -50 82 -50 l -11 -50 m 428 550 b 372 563 414 561 390 563 b 249 447 301 563 261 518 b 229 336 240 399 233 364 b 218 274 219 285 219 278 m 299 160 b 422 275 368 160 410 206 b 438 364 429 313 433 340 b 453 438 449 425 449 428 l 246 169 b 299 160 258 163 275 160 "},"ǿ":{"ha":718,"x_min":0,"x_max":0,"o":"m 257 856 b 263 906 244 875 246 897 l 486 1024 b 565 1010 517 1040 546 1039 l 604 954 b 596 900 618 933 619 907 l 338 810 b 281 821 308 799 292 804 m -11 -50 b -19 -24 -32 -50 -29 -36 l 54 67 b 18 276 17 117 3 189 l 50 460 b 388 743 82 644 194 743 b 542 713 451 743 504 729 l 576 757 b 608 768 585 768 593 768 l 683 768 b 697 743 703 768 706 754 l 617 651 b 653 446 653 600 668 531 l 621 261 b 278 -21 590 82 472 -21 b 135 6 217 -21 171 -10 l 101 -37 b 65 -50 93 -50 82 -50 l -11 -50 m 428 550 b 372 563 414 561 390 563 b 249 447 301 563 261 518 b 229 336 240 399 233 364 b 218 274 219 285 219 278 m 299 160 b 422 275 368 160 410 206 b 438 364 429 313 433 340 b 453 438 449 425 449 428 l 246 169 b 299 160 258 163 275 160 "},"õ":{"ha":718,"x_min":0,"x_max":0,"o":"m 224 822 b 200 876 201 822 196 835 b 329 1015 211 974 253 1015 b 503 944 433 1015 456 944 b 540 992 522 944 536 960 b 567 1015 544 1011 549 1015 l 633 1015 b 653 964 654 1015 660 1003 b 525 822 636 863 597 822 b 350 892 424 822 401 892 b 311 849 328 892 314 878 b 285 822 310 829 301 822 l 224 822 m 276 -21 b 18 276 72 -21 -12 99 l 50 460 b 388 743 82 646 194 743 b 653 446 593 743 685 622 l 621 261 b 276 -21 589 79 472 -21 m 299 160 b 422 275 372 160 410 206 l 456 461 b 372 563 468 532 435 563 b 249 447 301 563 263 518 l 215 261 b 299 160 204 193 238 160 "},"œ":{"ha":1060,"x_min":0,"x_max":0,"o":"m 267 -21 b 18 276 72 -21 -14 99 l 50 460 b 372 743 83 647 193 743 b 560 672 456 743 524 711 b 763 743 613 717 683 743 b 1024 539 929 743 1024 665 b 728 285 1022 376 908 285 b 599 303 681 285 638 292 l 586 222 b 660 128 575 156 604 128 b 790 211 719 128 763 164 b 846 221 804 233 819 233 l 917 182 b 931 115 951 164 949 143 b 646 -21 872 26 793 -21 b 458 46 560 -21 499 4 b 267 -21 404 -1 338 -21 m 710 421 b 826 528 782 421 826 460 b 753 596 826 578 799 596 b 629 469 686 596 646 560 l 624 435 b 710 421 646 426 679 421 m 294 158 b 406 271 364 158 393 201 l 440 463 b 368 564 454 535 424 564 b 247 446 296 564 261 518 l 214 261 b 294 158 201 190 242 158 "},"p":{"ha":722,"x_min":0,"x_max":0,"o":"m -18 -306 b -54 -247 -53 -306 -61 -286 l 96 614 b 143 690 104 660 111 674 b 399 743 192 715 296 743 b 654 438 621 743 689 633 l 624 258 b 301 -21 593 86 482 -21 b 189 -4 261 -21 217 -12 l 144 -262 b 89 -306 139 -289 121 -306 l -18 -306 m 297 160 b 425 275 374 160 413 201 l 456 450 b 379 563 471 532 449 563 b 294 549 344 563 314 557 b 283 531 288 546 285 540 l 221 171 b 297 160 244 163 274 160 "},"þ":{"ha":717,"x_min":0,"x_max":0,"o":"m -15 -306 b -51 -247 -51 -306 -58 -286 l 164 982 b 225 1028 171 1019 192 1028 l 326 1028 b 364 968 361 1028 371 1007 l 322 736 b 413 743 351 740 383 743 b 658 449 608 743 692 642 l 628 267 b 299 -21 594 75 482 -21 b 192 -4 263 -21 218 -12 l 147 -257 b 90 -306 140 -294 121 -306 l -15 -306 m 301 160 b 429 286 376 160 415 197 l 461 463 b 385 563 472 532 449 563 b 289 546 342 563 310 556 l 222 171 b 301 160 247 164 269 160 "},"q":{"ha":722,"x_min":0,"x_max":0,"o":"m 351 -306 b 315 -247 317 -306 308 -286 l 357 -7 b 258 -21 326 -15 292 -21 b 18 275 78 -21 -11 103 l 50 451 b 385 743 83 649 178 743 b 633 694 497 743 594 715 b 667 613 672 674 675 657 l 514 -261 b 456 -306 508 -296 488 -306 l 351 -306 m 301 160 b 389 174 324 160 365 167 l 453 533 b 442 556 454 544 456 551 b 375 563 425 561 399 563 b 247 438 288 563 261 519 l 218 263 b 301 160 207 194 235 160 "},"r":{"ha":465,"x_min":0,"x_max":0,"o":"m 33 0 b 0 58 0 0 -7 19 l 97 613 b 150 690 106 657 111 676 b 340 721 201 707 271 718 b 447 722 379 724 418 725 b 481 665 483 719 488 704 l 465 586 b 419 542 458 547 451 542 b 351 539 394 542 372 540 b 300 531 332 538 314 535 b 282 514 290 528 285 525 l 199 43 b 139 0 193 11 172 0 l 33 0 "},"ŕ":{"ha":465,"x_min":0,"x_max":0,"o":"m 140 856 b 146 906 128 875 129 897 l 369 1024 b 449 1010 400 1040 429 1039 l 488 954 b 479 900 501 933 503 907 l 221 810 b 164 821 192 799 175 804 m 33 0 b 0 58 0 0 -7 19 l 97 613 b 150 690 106 657 111 676 b 340 721 201 707 271 718 b 447 722 379 724 418 725 b 481 665 483 719 488 704 l 465 586 b 419 542 458 547 451 542 b 351 539 394 542 372 540 b 300 531 332 538 314 535 b 282 514 290 528 285 525 l 199 43 b 139 0 193 11 172 0 l 33 0 "},"ř":{"ha":465,"x_min":0,"x_max":0,"o":"m 272 806 b 194 851 233 806 219 819 l 83 986 b 106 1024 65 1006 64 1024 l 189 1024 b 256 993 231 1024 238 1017 l 304 932 l 375 1000 b 444 1024 400 1025 410 1024 l 529 1024 b 553 976 572 1024 576 996 l 397 844 b 304 806 360 813 347 806 l 272 806 m 33 0 b 0 58 0 0 -7 19 l 97 613 b 150 690 106 657 111 676 b 340 721 201 707 271 718 b 447 722 379 724 418 725 b 481 665 483 719 488 704 l 465 586 b 419 542 458 547 451 542 b 351 539 394 542 372 540 b 300 531 332 538 314 535 b 282 514 290 528 285 525 l 199 43 b 139 0 193 11 172 0 l 33 0 "},"ŗ":{"ha":465,"x_min":0,"x_max":0,"o":"m 33 0 b 0 58 0 0 -7 19 l 97 613 b 150 690 106 657 111 676 b 340 721 201 707 271 718 b 447 722 379 724 418 725 b 481 665 483 719 488 704 l 465 586 b 419 542 458 547 451 542 b 351 539 394 542 372 540 b 300 531 332 538 314 535 b 282 514 290 528 285 525 l 199 43 b 139 0 193 11 172 0 l 33 0 m -29 -361 b -61 -318 -58 -361 -68 -344 l -4 -122 b 60 -76 8 -81 19 -76 l 153 -76 b 197 -136 200 -76 215 -101 l 99 -322 b 38 -361 81 -356 71 -361 l -29 -361 "},"s":{"ha":668,"x_min":0,"x_max":0,"o":"m 264 -21 b -3 143 115 -21 29 32 b 22 213 -15 186 -7 204 l 122 242 b 172 218 150 250 163 244 b 282 154 190 174 224 154 b 385 224 347 154 385 178 b 276 292 385 263 351 282 b 54 503 129 310 53 379 b 350 742 54 653 163 742 b 621 581 501 742 600 685 b 593 519 628 544 629 531 l 503 490 b 449 514 467 478 461 490 b 343 567 431 551 400 567 b 249 507 278 567 249 547 b 349 442 249 469 276 450 b 582 231 508 422 582 350 b 264 -21 582 69 461 -21 "},"ś":{"ha":668,"x_min":0,"x_max":0,"o":"m 229 856 b 235 906 217 875 218 897 l 458 1024 b 538 1010 489 1040 518 1039 l 576 954 b 568 900 590 933 592 907 l 310 810 b 253 821 281 799 264 804 m 264 -21 b -3 143 115 -21 29 32 b 22 213 -15 186 -7 204 l 122 242 b 172 218 150 250 163 244 b 282 154 190 174 224 154 b 385 224 347 154 385 178 b 276 292 385 263 351 282 b 54 503 129 310 53 379 b 350 742 54 653 163 742 b 621 581 501 742 600 685 b 593 519 628 544 629 531 l 503 490 b 449 514 467 478 461 490 b 343 567 431 551 400 567 b 249 507 278 567 249 547 b 349 442 249 469 276 450 b 582 231 508 422 582 350 b 264 -21 582 69 461 -21 "},"š":{"ha":668,"x_min":0,"x_max":0,"o":"m 361 806 b 283 851 322 806 308 819 l 172 986 b 194 1024 154 1006 153 1024 l 278 1024 b 344 993 319 1024 326 1017 l 393 932 l 464 1000 b 533 1024 489 1025 499 1024 l 618 1024 b 642 976 661 1024 665 996 l 486 844 b 393 806 449 813 436 806 l 361 806 m 264 -21 b -3 143 115 -21 29 32 b 22 213 -15 186 -7 204 l 122 242 b 172 218 150 250 163 244 b 282 154 190 174 224 154 b 385 224 347 154 385 178 b 276 292 385 263 351 282 b 54 503 129 310 53 379 b 350 742 54 653 163 742 b 621 581 501 742 600 685 b 593 519 628 544 629 531 l 503 490 b 449 514 467 478 461 490 b 343 567 431 551 400 567 b 249 507 278 567 249 547 b 349 442 249 469 276 450 b 582 231 508 422 582 350 b 264 -21 582 69 461 -21 "},"ş":{"ha":668,"x_min":0,"x_max":0,"o":"m 183 -340 b 75 -317 133 -340 99 -328 b 56 -282 60 -310 53 -303 l 63 -229 b 85 -214 64 -214 74 -211 b 163 -231 110 -224 132 -231 b 229 -190 207 -231 229 -215 b 206 -167 229 -178 224 -169 b 156 -161 193 -161 175 -161 b 136 -117 128 -161 122 -137 l 201 -18 b -4 143 90 -4 24 49 b 22 213 -17 186 -8 204 l 121 242 b 172 218 149 250 161 244 b 281 154 189 174 224 154 b 385 224 346 154 385 178 b 275 292 385 263 350 282 b 53 504 128 310 51 379 b 349 742 54 654 161 742 b 619 581 500 742 599 685 b 593 519 628 544 628 531 l 501 490 b 447 514 465 478 460 490 b 342 567 429 551 399 567 b 247 507 278 567 247 547 b 349 442 247 469 275 450 b 581 231 507 422 581 350 b 318 -18 581 85 482 -3 l 283 -69 b 342 -83 307 -69 326 -75 b 396 -175 378 -101 396 -133 b 183 -340 396 -292 303 -340 "},"ŝ":{"ha":668,"x_min":0,"x_max":0,"o":"m 181 808 b 156 856 138 808 133 836 l 322 996 b 392 1025 347 1018 361 1025 l 440 1025 b 510 990 476 1025 486 1018 l 629 846 b 607 808 644 826 644 808 l 522 808 b 453 842 481 808 472 819 l 407 899 l 336 832 b 263 808 310 807 296 808 l 181 808 m 264 -21 b -3 143 115 -21 29 32 b 22 213 -15 186 -7 204 l 122 242 b 172 218 150 250 163 244 b 282 154 190 174 224 154 b 385 224 347 154 385 178 b 276 292 385 263 351 282 b 54 503 129 310 53 379 b 350 742 54 653 163 742 b 621 581 501 742 600 685 b 593 519 628 544 629 531 l 503 490 b 449 514 467 478 461 490 b 343 567 431 551 400 567 b 249 507 278 567 249 547 b 349 442 249 469 276 450 b 582 231 508 422 582 350 b 264 -21 582 69 461 -21 "},"ș":{"ha":668,"x_min":0,"x_max":0,"o":"m 264 -21 b -3 143 115 -21 29 32 b 22 213 -15 186 -7 204 l 122 242 b 172 218 150 250 163 244 b 282 154 190 174 224 154 b 385 224 347 154 385 178 b 276 292 385 263 351 282 b 54 503 129 310 53 379 b 350 742 54 653 163 742 b 621 581 501 742 600 685 b 593 519 628 544 629 531 l 503 490 b 449 514 467 478 461 490 b 343 567 431 551 400 567 b 249 507 278 567 249 547 b 349 442 249 469 276 450 b 582 231 508 422 582 350 b 264 -21 582 69 461 -21 m 117 -361 b 85 -318 88 -361 78 -344 l 142 -122 b 206 -76 154 -81 165 -76 l 299 -76 b 343 -136 346 -76 361 -101 l 244 -322 b 183 -361 226 -356 217 -361 l 117 -361 "},"ß":{"ha":743,"x_min":0,"x_max":0,"o":"m 39 0 b 4 64 -3 0 -1 31 l 122 740 b 458 1042 157 947 271 1042 b 711 818 622 1042 711 954 b 578 542 711 708 667 600 l 578 538 b 665 361 628 511 665 460 b 343 0 665 150 553 0 l 294 0 b 250 46 263 0 246 15 l 267 153 b 319 200 274 190 282 200 b 343 201 328 200 336 200 b 465 356 422 204 465 278 b 389 431 465 401 443 429 l 369 431 b 326 478 336 431 321 447 l 343 575 b 385 624 350 617 361 624 b 424 629 401 624 410 625 b 513 778 481 644 511 713 b 439 847 513 821 488 847 b 321 725 369 847 336 803 l 203 49 b 142 0 196 10 179 0 l 39 0 "},"ſ":{"ha":386,"x_min":0,"x_max":0,"o":"m 78 0 b 42 58 42 0 35 19 l 126 540 l 85 540 b 40 596 49 540 32 554 l 56 679 b 117 722 61 717 81 722 l 158 722 l 161 738 b 497 1028 193 922 307 1029 b 544 968 539 1028 551 1008 l 531 892 b 485 846 524 851 517 846 b 360 722 407 846 372 792 l 240 43 b 176 0 233 6 213 0 l 78 0 "},"t":{"ha":503,"x_min":0,"x_max":0,"o":"m 342 0 b 88 292 136 -7 51 78 l 131 540 l 81 540 b 38 599 44 540 29 556 l 53 679 b 111 722 58 715 79 722 l 163 722 l 183 844 b 247 889 190 882 214 889 l 343 889 b 383 831 382 889 390 869 l 364 722 l 456 722 b 497 664 493 722 504 703 l 483 588 b 429 540 476 550 461 540 l 332 540 l 288 286 b 367 189 271 199 304 189 b 404 138 401 189 410 172 l 389 46 b 342 0 382 7 374 1 "},"ŧ":{"ha":503,"x_min":0,"x_max":0,"o":"m 331 0 b 83 272 139 -7 46 54 l 92 317 l 40 317 b 15 360 15 317 11 332 l 25 421 b 63 449 29 442 40 449 l 114 449 l 131 540 l 78 540 b 38 599 42 540 31 561 l 53 679 b 110 722 58 715 78 722 l 163 722 l 183 844 b 243 889 190 882 215 889 l 343 889 b 383 831 379 889 390 869 l 364 722 l 457 722 b 497 664 493 722 504 703 l 482 585 b 429 540 476 551 461 540 l 332 540 l 317 449 l 400 449 b 424 406 426 449 429 436 l 413 346 b 375 317 408 319 397 317 l 293 317 l 286 279 b 360 189 272 206 296 186 b 404 138 403 189 410 171 l 389 46 b 331 0 382 7 374 1 "},"ť":{"ha":504,"x_min":0,"x_max":0,"o":"m 475 771 b 444 813 447 771 436 786 l 488 986 b 549 1032 497 1028 508 1032 l 635 1032 b 678 972 679 1032 697 1006 l 585 810 b 526 771 568 778 560 771 l 475 771 m 342 0 b 88 292 136 -7 51 78 l 131 540 l 81 540 b 38 599 44 540 29 556 l 53 679 b 111 722 58 715 79 722 l 163 722 l 183 844 b 247 889 190 882 214 889 l 343 889 b 383 831 382 889 390 869 l 364 722 l 456 722 b 497 664 493 722 504 703 l 483 588 b 429 540 476 550 461 540 l 332 540 l 288 286 b 367 189 271 199 304 189 b 404 138 401 189 410 172 l 389 46 b 342 0 382 7 374 1 "},"ţ":{"ha":503,"x_min":0,"x_max":0,"o":"m 456 722 b 497 664 493 722 504 703 l 483 588 b 429 540 476 550 461 540 l 332 540 l 288 286 b 367 189 271 199 304 189 b 404 138 401 189 410 172 l 389 46 b 342 0 382 7 374 1 l 328 0 l 281 -69 b 321 -76 296 -69 310 -72 b 394 -175 369 -90 394 -128 b 182 -340 394 -292 301 -340 b 74 -317 132 -340 96 -328 b 54 -282 57 -310 51 -303 l 61 -229 b 82 -214 63 -214 71 -211 b 160 -231 107 -222 129 -231 b 228 -190 204 -231 226 -215 b 192 -162 228 -175 215 -165 b 153 -161 181 -161 167 -161 b 133 -117 126 -161 121 -137 l 217 11 b 88 292 103 40 60 128 l 131 540 l 81 540 b 38 599 44 540 29 556 l 53 679 b 111 722 58 715 79 722 l 163 722 l 183 844 b 247 889 190 882 214 889 l 343 889 b 383 831 382 889 390 869 l 364 722 l 456 722 "},"ț":{"ha":503,"x_min":0,"x_max":0,"o":"m 342 0 b 88 292 136 -7 51 78 l 131 540 l 81 540 b 38 599 44 540 29 556 l 53 679 b 111 722 58 715 79 722 l 163 722 l 183 844 b 247 889 190 882 214 889 l 343 889 b 383 831 382 889 390 869 l 364 722 l 456 722 b 497 664 493 722 504 703 l 483 588 b 429 540 476 550 461 540 l 332 540 l 288 286 b 367 189 271 199 304 189 b 404 138 401 189 410 172 l 389 46 b 342 0 382 7 374 1 m 101 -361 b 69 -318 72 -361 63 -344 l 126 -122 b 190 -76 139 -81 150 -76 l 283 -76 b 328 -136 331 -76 346 -101 l 229 -322 b 168 -361 211 -356 201 -361 l 101 -361 "},"u":{"ha":731,"x_min":0,"x_max":0,"o":"m 275 -21 b 32 272 82 -21 0 90 l 104 678 b 164 722 110 714 133 722 l 267 722 b 304 664 303 722 311 703 l 232 264 b 306 161 219 189 240 161 b 386 174 335 161 367 167 b 403 196 394 176 400 181 l 488 679 b 542 722 493 710 511 722 l 646 722 b 688 664 688 722 694 703 l 589 103 b 532 22 581 58 575 40 b 275 -21 476 -4 397 -21 "},"ú":{"ha":731,"x_min":0,"x_max":0,"o":"m 261 856 b 267 906 249 875 250 897 l 490 1024 b 569 1010 521 1040 550 1039 l 608 954 b 600 900 622 933 624 907 l 342 810 b 285 821 313 799 296 804 m 275 -21 b 32 272 82 -21 0 90 l 104 678 b 164 722 110 714 133 722 l 267 722 b 304 664 303 722 311 703 l 232 264 b 306 161 219 189 240 161 b 386 174 335 161 367 167 b 403 196 394 176 400 181 l 488 679 b 542 722 493 710 511 722 l 646 722 b 688 664 688 722 694 703 l 589 103 b 532 22 581 58 575 40 b 275 -21 476 -4 397 -21 "},"ŭ":{"ha":731,"x_min":0,"x_max":0,"o":"m 432 808 b 232 953 328 808 257 861 b 249 999 225 982 228 992 l 322 1024 b 368 1001 347 1031 358 1025 b 438 950 382 968 404 950 b 526 1010 478 950 508 972 b 574 1021 540 1031 547 1032 l 650 990 b 664 940 674 981 678 971 b 432 808 624 858 536 808 m 275 -21 b 32 272 82 -21 0 90 l 104 678 b 164 722 110 714 133 722 l 267 722 b 304 664 303 722 311 703 l 232 264 b 306 161 219 189 240 161 b 386 174 335 161 367 167 b 403 196 394 176 400 181 l 488 679 b 542 722 493 710 511 722 l 646 722 b 688 664 688 722 694 703 l 589 103 b 532 22 581 58 575 40 b 275 -21 476 -4 397 -21 "},"û":{"ha":731,"x_min":0,"x_max":0,"o":"m 213 808 b 188 856 169 808 165 836 l 354 996 b 424 1025 379 1018 393 1025 l 472 1025 b 542 990 508 1025 518 1018 l 661 846 b 639 808 676 826 676 808 l 554 808 b 485 842 513 808 504 819 l 439 899 l 368 832 b 294 808 342 807 328 808 l 213 808 m 275 -21 b 32 272 82 -21 0 90 l 104 678 b 164 722 110 714 133 722 l 267 722 b 304 664 303 722 311 703 l 232 264 b 306 161 219 189 240 161 b 386 174 335 161 367 167 b 403 196 394 176 400 181 l 488 679 b 542 722 493 710 511 722 l 646 722 b 688 664 688 722 694 703 l 589 103 b 532 22 581 58 575 40 b 275 -21 476 -4 397 -21 "},"ü":{"ha":731,"x_min":0,"x_max":0,"o":"m 278 814 b 204 907 213 814 193 843 l 206 922 b 300 1001 217 988 233 1001 l 310 1001 b 388 908 376 1001 400 972 l 385 893 b 289 814 374 829 354 814 l 278 814 m 553 814 b 476 907 486 814 464 843 l 478 922 b 574 1001 489 988 508 1001 l 583 1001 b 660 908 650 1001 672 972 l 657 893 b 563 814 646 829 628 814 l 553 814 m 275 -21 b 32 272 82 -21 0 90 l 104 678 b 164 722 110 714 133 722 l 267 722 b 304 664 303 722 311 703 l 232 264 b 306 161 219 189 240 161 b 386 174 335 161 367 167 b 403 196 394 176 400 181 l 488 679 b 542 722 493 710 511 722 l 646 722 b 688 664 688 722 694 703 l 589 103 b 532 22 581 58 575 40 b 275 -21 476 -4 397 -21 "},"ù":{"ha":731,"x_min":0,"x_max":0,"o":"m 244 906 b 239 965 217 917 211 938 l 297 1021 b 385 1014 331 1053 357 1032 l 561 899 b 564 844 582 885 588 869 l 538 817 b 471 817 521 800 501 804 m 275 -21 b 32 272 82 -21 0 90 l 104 678 b 164 722 110 714 133 722 l 267 722 b 304 664 303 722 311 703 l 232 264 b 306 161 219 189 240 161 b 386 174 335 161 367 167 b 403 196 394 176 400 181 l 488 679 b 542 722 493 710 511 722 l 646 722 b 688 664 688 722 694 703 l 589 103 b 532 22 581 58 575 40 b 275 -21 476 -4 397 -21 "},"ű":{"ha":731,"x_min":0,"x_max":0,"o":"m 224 815 b 208 868 194 825 190 847 l 325 1000 b 397 1022 347 1026 364 1035 l 465 999 b 479 940 499 986 506 961 l 317 819 b 260 806 292 801 278 800 m 464 815 b 449 868 435 825 431 847 l 564 1000 b 638 1022 588 1026 604 1035 l 706 999 b 718 940 739 986 746 960 l 557 819 b 500 806 532 801 518 800 m 275 -21 b 32 272 82 -21 0 90 l 104 678 b 164 722 110 714 133 722 l 267 722 b 304 664 303 722 311 703 l 232 264 b 306 161 219 189 240 161 b 386 174 335 161 367 167 b 403 196 394 176 400 181 l 488 679 b 542 722 493 710 511 722 l 646 722 b 688 664 688 722 694 703 l 589 103 b 532 22 581 58 575 40 b 275 -21 476 -4 397 -21 "},"ū":{"ha":731,"x_min":0,"x_max":0,"o":"m 268 842 b 226 896 229 842 221 860 l 233 940 b 297 981 240 976 264 981 l 608 981 b 650 925 647 981 657 964 l 642 885 b 588 842 636 850 617 842 l 268 842 m 275 -21 b 32 272 82 -21 0 90 l 104 678 b 164 722 110 714 133 722 l 267 722 b 304 664 303 722 311 703 l 232 264 b 306 161 219 189 240 161 b 386 174 335 161 367 167 b 403 196 394 176 400 181 l 488 679 b 542 722 493 710 511 722 l 646 722 b 688 664 688 722 694 703 l 589 103 b 532 22 581 58 575 40 b 275 -21 476 -4 397 -21 "},"ų":{"ha":733,"x_min":0,"x_max":0,"o":"m 374 -340 b 253 -242 306 -340 253 -314 b 394 -7 253 -168 299 -87 b 267 -21 358 -18 313 -21 b 31 272 76 -21 0 96 l 103 675 b 161 722 110 713 126 722 l 267 722 b 303 664 303 722 310 703 l 232 264 b 303 161 218 189 238 161 b 383 174 332 161 365 167 b 401 196 394 178 400 185 l 486 679 b 546 722 492 714 517 722 l 649 722 b 686 664 683 722 693 703 l 586 100 b 561 28 582 75 578 44 b 426 -183 471 -75 426 -143 b 443 -200 426 -194 432 -200 b 481 -189 457 -200 469 -194 b 504 -204 492 -183 500 -190 l 521 -267 b 514 -303 526 -283 524 -294 b 374 -340 476 -332 413 -340 "},"ů":{"ha":731,"x_min":0,"x_max":0,"o":"m 426 774 b 281 913 338 774 281 828 b 453 1081 281 1013 353 1081 b 600 940 542 1081 600 1025 b 426 774 600 842 525 774 m 433 867 b 503 935 474 867 503 896 b 451 985 503 967 485 985 b 378 921 410 985 379 960 b 433 867 376 890 400 867 m 275 -21 b 32 272 82 -21 0 90 l 104 678 b 164 722 110 714 133 722 l 267 722 b 304 664 303 722 311 703 l 232 264 b 306 161 219 189 240 161 b 386 174 335 161 367 167 b 403 196 394 176 400 181 l 488 679 b 542 722 493 710 511 722 l 646 722 b 688 664 688 722 694 703 l 589 103 b 532 22 581 58 575 40 b 275 -21 476 -4 397 -21 "},"ũ":{"ha":731,"x_min":0,"x_max":0,"o":"m 229 822 b 206 876 207 822 201 835 b 335 1015 217 974 258 1015 b 508 944 439 1015 461 944 b 546 992 528 944 542 960 b 572 1015 550 1011 554 1015 l 639 1015 b 658 964 660 1015 665 1003 b 531 822 642 863 603 822 b 356 892 429 822 407 892 b 317 849 333 892 319 878 b 290 822 315 829 307 822 l 229 822 m 275 -21 b 32 272 82 -21 0 90 l 104 678 b 164 722 110 714 133 722 l 267 722 b 304 664 303 722 311 703 l 232 264 b 306 161 219 189 240 161 b 386 174 335 161 367 167 b 403 196 394 176 400 181 l 488 679 b 542 722 493 710 511 722 l 646 722 b 688 664 688 722 694 703 l 589 103 b 532 22 581 58 575 40 b 275 -21 476 -4 397 -21 "},"v":{"ha":686,"x_min":0,"x_max":0,"o":"m 204 0 b 149 53 169 0 154 17 l 57 668 b 100 722 50 713 57 722 l 200 722 b 260 664 251 722 256 706 l 288 389 b 293 218 292 340 297 274 l 303 218 b 365 403 318 279 339 344 l 486 678 b 556 722 504 718 514 722 l 663 722 b 694 656 708 722 718 701 l 381 39 b 314 0 364 6 339 0 l 204 0 "},"w":{"ha":988,"x_min":0,"x_max":0,"o":"m 168 0 b 110 53 133 0 113 17 l 64 671 b 111 722 61 717 65 722 l 224 722 b 274 664 269 722 274 707 l 275 417 b 263 235 275 358 269 294 l 271 235 b 324 431 282 297 303 374 l 419 678 b 489 722 435 718 446 722 l 579 722 b 633 667 619 722 632 710 l 646 417 b 639 235 647 357 646 293 l 647 235 b 696 431 658 297 672 367 l 783 678 b 843 722 797 721 803 722 l 960 722 b 986 656 997 722 1006 703 l 721 38 b 654 0 706 3 690 0 l 561 0 b 500 53 525 0 501 15 l 494 346 b 499 500 493 396 494 449 l 493 500 b 439 331 479 446 461 385 l 325 38 b 260 0 313 4 294 0 l 168 0 "},"ẃ":{"ha":988,"x_min":0,"x_max":0,"o":"m 394 856 b 400 906 382 875 383 897 l 624 1024 b 703 1010 654 1040 683 1039 l 742 954 b 733 900 756 933 757 907 l 475 810 b 418 821 446 799 429 804 m 168 0 b 110 53 133 0 113 17 l 64 671 b 111 722 61 717 65 722 l 224 722 b 274 664 269 722 274 707 l 275 417 b 263 235 275 358 269 294 l 271 235 b 324 431 282 297 303 374 l 419 678 b 489 722 435 718 446 722 l 579 722 b 633 667 619 722 632 710 l 646 417 b 639 235 647 357 646 293 l 647 235 b 696 431 658 297 672 367 l 783 678 b 843 722 797 721 803 722 l 960 722 b 986 656 997 722 1006 703 l 721 38 b 654 0 706 3 690 0 l 561 0 b 500 53 525 0 501 15 l 494 346 b 499 500 493 396 494 449 l 493 500 b 439 331 479 446 461 385 l 325 38 b 260 0 313 4 294 0 l 168 0 "},"ŵ":{"ha":988,"x_min":0,"x_max":0,"o":"m 346 808 b 321 856 303 808 299 836 l 488 996 b 557 1025 513 1018 526 1025 l 606 1025 b 675 990 642 1025 651 1018 l 794 846 b 772 808 810 826 810 808 l 688 808 b 618 842 646 808 638 819 l 572 899 l 501 832 b 428 808 475 807 461 808 l 346 808 m 168 0 b 110 53 133 0 113 17 l 64 671 b 111 722 61 717 65 722 l 224 722 b 274 664 269 722 274 707 l 275 417 b 263 235 275 358 269 294 l 271 235 b 324 431 282 297 303 374 l 419 678 b 489 722 435 718 446 722 l 579 722 b 633 667 619 722 632 710 l 646 417 b 639 235 647 357 646 293 l 647 235 b 696 431 658 297 672 367 l 783 678 b 843 722 797 721 803 722 l 960 722 b 986 656 997 722 1006 703 l 721 38 b 654 0 706 3 690 0 l 561 0 b 500 53 525 0 501 15 l 494 346 b 499 500 493 396 494 449 l 493 500 b 439 331 479 446 461 385 l 325 38 b 260 0 313 4 294 0 l 168 0 "},"ẅ":{"ha":988,"x_min":0,"x_max":0,"o":"m 411 814 b 338 907 346 814 326 843 l 339 922 b 433 1001 350 988 367 1001 l 443 1001 b 521 908 510 1001 533 972 l 518 893 b 422 814 507 829 488 814 l 411 814 m 686 814 b 610 907 619 814 597 843 l 611 922 b 707 1001 622 988 642 1001 l 717 1001 b 793 908 783 1001 806 972 l 790 893 b 696 814 779 829 761 814 l 686 814 m 168 0 b 110 53 133 0 113 17 l 64 671 b 111 722 61 717 65 722 l 224 722 b 274 664 269 722 274 707 l 275 417 b 263 235 275 358 269 294 l 271 235 b 324 431 282 297 303 374 l 419 678 b 489 722 435 718 446 722 l 579 722 b 633 667 619 722 632 710 l 646 417 b 639 235 647 357 646 293 l 647 235 b 696 431 658 297 672 367 l 783 678 b 843 722 797 721 803 722 l 960 722 b 986 656 997 722 1006 703 l 721 38 b 654 0 706 3 690 0 l 561 0 b 500 53 525 0 501 15 l 494 346 b 499 500 493 396 494 449 l 493 500 b 439 331 479 446 461 385 l 325 38 b 260 0 313 4 294 0 l 168 0 "},"ẁ":{"ha":988,"x_min":0,"x_max":0,"o":"m 378 906 b 372 965 350 917 344 938 l 431 1021 b 518 1014 464 1053 490 1032 l 694 899 b 697 844 715 885 721 869 l 671 817 b 604 817 654 800 635 804 m 168 0 b 110 53 133 0 113 17 l 64 671 b 111 722 61 717 65 722 l 224 722 b 274 664 269 722 274 707 l 275 417 b 263 235 275 358 269 294 l 271 235 b 324 431 282 297 303 374 l 419 678 b 489 722 435 718 446 722 l 579 722 b 633 667 619 722 632 710 l 646 417 b 639 235 647 357 646 293 l 647 235 b 696 431 658 297 672 367 l 783 678 b 843 722 797 721 803 722 l 960 722 b 986 656 997 722 1006 703 l 721 38 b 654 0 706 3 690 0 l 561 0 b 500 53 525 0 501 15 l 494 346 b 499 500 493 396 494 449 l 493 500 b 439 331 479 446 461 385 l 325 38 b 260 0 313 4 294 0 l 168 0 "},"x":{"ha":683,"x_min":0,"x_max":0,"o":"m -12 0 b -44 67 -68 0 -75 26 l 188 371 l 76 668 b 114 722 63 703 60 722 l 213 722 b 288 672 264 722 279 710 l 342 506 l 456 685 b 536 722 482 724 488 722 l 642 722 b 672 656 690 722 700 694 l 456 372 l 571 54 b 533 0 586 13 585 0 l 431 0 b 358 50 379 0 369 11 l 301 236 l 174 38 b 89 0 149 -3 138 0 l -12 0 "},"y":{"ha":733,"x_min":0,"x_max":0,"o":"m 239 -319 b -22 -176 97 -319 17 -265 b -6 -112 -36 -144 -32 -125 l 89 -67 b 138 -78 106 -58 121 -53 b 236 -143 160 -112 172 -143 b 365 -25 308 -143 346 -104 l 378 33 b 265 19 349 26 311 19 b 38 314 85 19 6 132 l 103 678 b 167 722 110 715 133 722 l 264 722 b 303 664 300 722 310 703 l 238 306 b 311 201 225 231 244 201 b 404 214 351 201 382 207 l 486 679 b 547 722 493 717 517 722 l 647 722 b 686 664 683 722 693 703 l 564 -21 b 239 -319 532 -204 443 -319 "},"ý":{"ha":733,"x_min":0,"x_max":0,"o":"m 261 856 b 267 906 249 875 250 897 l 490 1024 b 569 1010 521 1040 550 1039 l 608 954 b 600 900 622 933 624 907 l 342 810 b 285 821 313 799 296 804 m 239 -319 b -22 -176 97 -319 17 -265 b -6 -112 -36 -144 -32 -125 l 89 -67 b 138 -78 106 -58 121 -53 b 236 -143 160 -112 172 -143 b 365 -25 308 -143 346 -104 l 378 33 b 265 19 349 26 311 19 b 38 314 85 19 6 132 l 103 678 b 167 722 110 715 133 722 l 264 722 b 303 664 300 722 310 703 l 238 306 b 311 201 225 231 244 201 b 404 214 351 201 382 207 l 486 679 b 547 722 493 717 517 722 l 647 722 b 686 664 683 722 693 703 l 564 -21 b 239 -319 532 -204 443 -319 "},"ŷ":{"ha":733,"x_min":0,"x_max":0,"o":"m 213 808 b 188 856 169 808 165 836 l 354 996 b 424 1025 379 1018 393 1025 l 472 1025 b 542 990 508 1025 518 1018 l 661 846 b 639 808 676 826 676 808 l 554 808 b 485 842 513 808 504 819 l 439 899 l 368 832 b 294 808 342 807 328 808 l 213 808 m 239 -319 b -22 -176 97 -319 17 -265 b -6 -112 -36 -144 -32 -125 l 89 -67 b 138 -78 106 -58 121 -53 b 236 -143 160 -112 172 -143 b 365 -25 308 -143 346 -104 l 378 33 b 265 19 349 26 311 19 b 38 314 85 19 6 132 l 103 678 b 167 722 110 715 133 722 l 264 722 b 303 664 300 722 310 703 l 238 306 b 311 201 225 231 244 201 b 404 214 351 201 382 207 l 486 679 b 547 722 493 717 517 722 l 647 722 b 686 664 683 722 693 703 l 564 -21 b 239 -319 532 -204 443 -319 "},"ÿ":{"ha":733,"x_min":0,"x_max":0,"o":"m 278 814 b 204 907 213 814 193 843 l 206 922 b 300 1001 217 988 233 1001 l 310 1001 b 388 908 376 1001 400 972 l 385 893 b 289 814 374 829 354 814 l 278 814 m 553 814 b 476 907 486 814 464 843 l 478 922 b 574 1001 489 988 508 1001 l 583 1001 b 660 908 650 1001 672 972 l 657 893 b 563 814 646 829 628 814 l 553 814 m 239 -319 b -22 -176 97 -319 17 -265 b -6 -112 -36 -144 -32 -125 l 89 -67 b 138 -78 106 -58 121 -53 b 236 -143 160 -112 172 -143 b 365 -25 308 -143 346 -104 l 378 33 b 265 19 349 26 311 19 b 38 314 85 19 6 132 l 103 678 b 167 722 110 715 133 722 l 264 722 b 303 664 300 722 310 703 l 238 306 b 311 201 225 231 244 201 b 404 214 351 201 382 207 l 486 679 b 547 722 493 717 517 722 l 647 722 b 686 664 683 722 693 703 l 564 -21 b 239 -319 532 -204 443 -319 "},"ỳ":{"ha":733,"x_min":0,"x_max":0,"o":"m 244 906 b 239 965 217 917 211 938 l 297 1021 b 385 1014 331 1053 357 1032 l 561 899 b 564 844 582 885 588 869 l 538 817 b 471 817 521 800 501 804 m 239 -319 b -22 -176 97 -319 17 -265 b -6 -112 -36 -144 -32 -125 l 89 -67 b 138 -78 106 -58 121 -53 b 236 -143 160 -112 172 -143 b 365 -25 308 -143 346 -104 l 378 33 b 265 19 349 26 311 19 b 38 314 85 19 6 132 l 103 678 b 167 722 110 715 133 722 l 264 722 b 303 664 300 722 310 703 l 238 306 b 311 201 225 231 244 201 b 404 214 351 201 382 207 l 486 679 b 547 722 493 717 517 722 l 647 722 b 686 664 683 722 693 703 l 564 -21 b 239 -319 532 -204 443 -319 "},"z":{"ha":622,"x_min":0,"x_max":0,"o":"m 7 0 b -31 58 -28 0 -37 19 l -17 135 b 4 185 -12 161 -11 168 l 328 543 l 113 543 b 72 600 75 543 65 563 l 88 679 b 146 722 93 715 113 722 l 558 722 b 600 664 596 722 607 703 l 586 588 b 560 532 582 563 575 551 l 231 179 l 469 179 b 511 122 508 179 518 160 l 497 43 b 444 0 492 11 479 0 l 7 0 "},"ź":{"ha":622,"x_min":0,"x_max":0,"o":"m 213 856 b 218 906 200 875 201 897 l 442 1024 b 521 1010 472 1040 501 1039 l 560 954 b 551 900 574 933 575 907 l 293 810 b 236 821 264 799 247 804 m 7 0 b -31 58 -28 0 -37 19 l -17 135 b 4 185 -12 161 -11 168 l 328 543 l 113 543 b 72 600 75 543 65 563 l 88 679 b 146 722 93 715 113 722 l 558 722 b 600 664 596 722 607 703 l 586 588 b 560 532 582 563 575 551 l 231 179 l 469 179 b 511 122 508 179 518 160 l 497 43 b 444 0 492 11 479 0 l 7 0 "},"ž":{"ha":622,"x_min":0,"x_max":0,"o":"m 344 806 b 267 851 306 806 292 819 l 156 986 b 178 1024 138 1006 136 1024 l 261 1024 b 328 993 303 1024 310 1017 l 376 932 l 447 1000 b 517 1024 472 1025 482 1024 l 601 1024 b 625 976 644 1024 649 996 l 469 844 b 376 806 432 813 419 806 l 344 806 m 7 0 b -31 58 -28 0 -37 19 l -17 135 b 4 185 -12 161 -11 168 l 328 543 l 113 543 b 72 600 75 543 65 563 l 88 679 b 146 722 93 715 113 722 l 558 722 b 600 664 596 722 607 703 l 586 588 b 560 532 582 563 575 551 l 231 179 l 469 179 b 511 122 508 179 518 160 l 497 43 b 444 0 492 11 479 0 l 7 0 "},"ż":{"ha":622,"x_min":0,"x_max":0,"o":"m 344 828 b 283 922 286 828 272 853 l 288 946 b 371 1028 299 1014 313 1028 l 439 1028 b 501 932 497 1028 513 1000 l 497 908 b 414 828 486 839 472 828 l 344 828 m 7 0 b -31 58 -28 0 -37 19 l -17 135 b 4 185 -12 161 -11 168 l 328 543 l 113 543 b 72 600 75 543 65 563 l 88 679 b 146 722 93 715 113 722 l 558 722 b 600 664 596 722 607 703 l 586 588 b 560 532 582 563 575 551 l 231 179 l 469 179 b 511 122 508 179 518 160 l 497 43 b 444 0 492 11 479 0 l 7 0 "},"ﬁ":{"ha":779,"x_min":0,"x_max":0,"o":"m 76 0 b 39 58 39 0 32 19 l 124 540 l 83 540 b 40 599 47 540 33 561 l 56 679 b 114 722 63 714 79 722 l 156 722 l 158 735 b 497 1028 192 921 299 1028 l 749 1028 b 793 968 786 1028 799 1008 l 779 893 b 729 849 772 854 765 849 l 486 849 b 358 726 415 849 372 801 l 357 722 l 703 722 b 740 664 738 722 747 703 l 629 43 b 568 0 622 7 604 0 l 467 0 b 431 58 432 0 424 19 l 515 540 l 325 540 l 238 43 b 175 0 231 6 211 0 l 76 0 "},"ﬂ":{"ha":789,"x_min":0,"x_max":0,"o":"m 76 0 b 39 58 39 0 32 19 l 124 540 l 82 540 b 40 599 46 540 32 558 l 56 679 b 117 722 63 717 81 722 l 156 722 l 158 738 b 496 1028 193 926 306 1028 l 749 1028 b 792 969 792 1028 799 1008 l 629 43 b 571 0 622 10 607 0 l 467 0 b 431 58 432 0 424 19 l 569 846 l 485 846 b 360 733 415 846 372 811 l 357 722 l 413 722 b 453 664 449 722 460 703 l 439 585 b 386 540 433 551 418 540 l 325 540 l 238 43 b 178 0 232 10 215 0 l 76 0 "},"ª":{"ha":481,"x_min":0,"x_max":0,"o":"m 249 492 b 86 610 147 492 86 531 b 264 756 86 715 160 756 b 307 753 282 756 297 754 l 311 779 b 279 811 314 803 299 811 b 224 786 257 811 239 803 b 186 788 210 772 200 778 l 147 815 b 139 857 126 831 128 842 b 306 932 175 906 228 932 b 457 760 410 932 475 869 b 422 572 447 706 438 651 b 374 515 417 539 406 528 b 249 492 342 503 300 492 m 253 603 b 272 604 261 603 267 603 b 281 613 276 606 279 607 l 288 653 b 264 654 281 654 274 654 b 228 624 246 654 228 646 b 253 603 228 610 239 603 "},"º":{"ha":483,"x_min":0,"x_max":0,"o":"m 251 493 b 94 672 128 493 75 563 l 111 765 b 307 932 131 875 197 932 b 468 753 432 932 486 861 l 451 658 b 251 493 433 550 363 493 m 264 628 b 304 667 290 628 301 646 l 321 763 b 294 797 325 785 317 797 b 257 758 269 797 260 779 l 240 663 b 264 628 236 640 243 628 "},"А":{"ha":885,"x_min":0,"x_max":0,"o":"m -29 0 b -61 63 -67 0 -79 25 l 396 947 b 464 986 415 985 428 986 l 582 986 b 639 935 617 986 633 971 l 786 49 b 744 0 792 13 783 0 l 632 0 b 556 56 575 0 560 18 l 542 185 l 231 185 l 167 43 b 78 0 149 4 135 0 l -29 0 m 518 365 l 499 593 b 499 790 493 658 490 707 l 489 790 b 415 579 479 746 457 672 l 318 365 "},"Б":{"ha":842,"x_min":0,"x_max":0,"o":"m 56 0 b 17 61 14 0 10 24 l 171 938 b 238 986 178 978 199 986 l 768 986 b 815 928 815 986 822 967 l 800 839 b 743 789 793 799 776 789 l 363 789 l 331 611 l 506 611 b 771 361 682 611 776 524 b 394 0 765 147 635 0 l 56 0 m 414 194 b 556 338 518 194 556 261 b 464 426 556 393 533 426 l 299 426 l 257 194 "},"В":{"ha":864,"x_min":0,"x_max":0,"o":"m 63 0 b 17 64 13 0 11 22 l 171 938 b 228 986 178 972 196 986 l 551 986 b 821 753 725 986 821 901 b 686 515 821 649 778 574 l 685 510 b 779 325 749 471 779 418 b 419 0 779 128 640 0 l 63 0 m 483 590 b 601 694 551 590 597 625 b 513 793 607 760 578 793 l 364 793 l 328 590 m 419 194 b 568 326 507 194 568 247 b 474 408 568 379 536 408 l 296 408 l 257 194 "},"Г":{"ha":688,"x_min":0,"x_max":0,"o":"m 57 0 b 17 64 18 0 10 21 l 171 938 b 231 986 178 975 194 986 l 700 986 b 740 925 739 986 747 967 l 725 836 b 669 788 717 797 703 788 l 361 788 l 232 49 b 168 0 224 8 206 0 l 57 0 "},"Д":{"ha":979,"x_min":0,"x_max":0,"o":"m -42 -212 b -81 -149 -83 -212 -87 -192 l -28 150 b 35 200 -21 192 0 200 l 51 200 b 240 643 115 244 190 351 l 292 936 b 353 986 297 971 313 986 l 881 986 b 922 922 922 986 929 965 l 794 200 l 844 200 b 888 136 889 200 896 179 l 835 -160 b 776 -212 829 -196 813 -212 l 667 -212 b 625 -153 625 -212 618 -193 l 651 0 l 158 0 l 129 -162 b 68 -212 122 -204 104 -212 l -42 -212 m 578 200 l 681 786 l 475 786 l 447 631 b 304 200 410 407 368 289 "},"Е":{"ha":768,"x_min":0,"x_max":0,"o":"m 58 0 b 17 60 18 0 10 18 l 171 936 b 239 986 178 978 199 986 l 744 986 b 786 924 789 986 793 965 l 771 836 b 714 786 764 799 750 786 l 361 786 l 329 599 l 608 599 b 653 542 649 599 660 583 l 636 450 b 581 399 629 413 615 399 l 294 399 l 258 200 l 613 200 b 660 140 658 200 667 182 l 643 49 b 586 0 636 10 618 0 l 58 0 "},"Ё":{"ha":768,"x_min":0,"x_max":0,"o":"m 361 1064 b 286 1157 294 1064 275 1092 l 289 1171 b 383 1250 300 1236 317 1250 l 393 1250 b 469 1157 460 1250 482 1222 l 467 1142 b 371 1064 456 1078 436 1064 l 361 1064 m 646 1064 b 569 1157 579 1064 558 1092 l 572 1171 b 669 1250 583 1236 603 1250 l 679 1250 b 754 1157 744 1250 765 1222 l 751 1142 b 656 1064 739 1078 722 1064 l 646 1064 m 58 0 b 17 60 18 0 10 18 l 171 936 b 239 986 178 978 199 986 l 744 986 b 786 924 789 986 793 965 l 771 836 b 714 786 764 799 750 786 l 361 786 l 329 599 l 608 599 b 653 542 649 599 660 583 l 636 450 b 581 399 629 413 615 399 l 294 399 l 258 200 l 613 200 b 660 140 658 200 667 182 l 643 49 b 586 0 636 10 618 0 l 58 0 "},"Ж":{"ha":1249,"x_min":0,"x_max":0,"o":"m -22 0 b -47 64 -64 0 -68 32 l 174 403 b 286 532 210 458 244 500 l 126 938 b 157 986 115 967 121 986 l 299 986 b 365 933 347 986 351 974 l 486 597 l 519 597 l 536 597 l 596 938 b 654 986 603 976 619 986 l 769 986 b 810 925 810 986 817 967 l 751 597 l 758 597 b 792 596 767 597 779 597 l 1036 944 b 1119 986 1063 981 1076 986 l 1258 986 b 1285 926 1297 986 1307 954 l 972 524 b 1038 390 1000 494 1021 447 l 1136 51 b 1100 0 1144 19 1144 0 l 981 0 b 906 56 924 0 917 11 l 836 325 b 750 401 818 392 804 401 l 718 401 l 656 49 b 596 0 647 7 631 0 l 478 0 b 440 64 440 0 433 22 l 500 401 l 475 401 b 358 314 422 401 397 381 l 194 44 b 103 0 169 3 154 0 l -22 0 "},"З":{"ha":850,"x_min":0,"x_max":0,"o":"m 357 -21 b 6 222 142 -21 44 71 b 36 285 -4 263 7 276 l 144 319 b 203 285 179 331 194 319 b 374 178 221 217 265 178 b 547 313 486 178 547 235 b 443 403 547 368 521 403 l 319 403 b 276 464 278 403 269 428 l 290 547 b 347 596 297 589 308 596 l 449 596 b 586 721 542 596 586 647 b 478 808 586 775 547 808 b 288 697 382 808 322 769 b 217 676 272 664 254 663 l 131 707 b 106 788 92 722 86 746 b 494 1007 175 933 290 1007 b 807 763 683 1007 807 914 b 668 506 807 636 760 563 b 763 329 733 468 763 411 b 357 -21 763 113 604 -21 "},"И":{"ha":932,"x_min":0,"x_max":0,"o":"m 58 0 b 17 60 18 0 10 21 l 171 938 b 236 986 178 975 194 986 l 344 986 b 386 922 388 986 393 965 l 329 597 b 242 275 306 471 289 397 l 251 275 b 404 565 306 393 338 472 l 688 964 b 744 986 701 983 717 986 l 869 986 b 913 928 913 986 919 968 l 758 50 b 699 0 753 15 736 0 l 583 0 b 543 60 544 0 536 18 l 603 389 b 697 708 624 504 647 589 l 688 708 b 532 425 629 585 593 510 l 243 21 b 190 0 228 1 217 0 l 58 0 "},"Й":{"ha":921,"x_min":0,"x_max":0,"o":"m 551 1076 b 325 1229 433 1076 353 1132 b 344 1276 315 1260 319 1269 l 428 1303 b 479 1281 456 1311 468 1306 b 558 1225 494 1246 519 1225 b 660 1289 604 1225 638 1250 b 714 1300 675 1311 683 1311 l 800 1268 b 815 1217 826 1257 832 1247 b 551 1076 769 1129 669 1076 m 58 0 b 17 60 18 0 10 21 l 171 938 b 236 986 178 975 194 986 l 344 986 b 386 922 388 986 393 965 l 329 597 b 242 275 306 471 289 397 l 251 275 b 404 565 306 393 338 472 l 688 964 b 744 986 701 983 717 986 l 869 986 b 913 928 913 986 919 968 l 758 50 b 699 0 753 15 736 0 l 583 0 b 543 60 544 0 536 18 l 603 389 b 697 708 624 504 647 589 l 688 708 b 532 425 629 585 593 510 l 243 21 b 190 0 228 1 217 0 l 58 0 "},"К":{"ha":846,"x_min":0,"x_max":0,"o":"m 63 0 b 17 63 19 0 8 15 l 172 939 b 232 986 179 979 200 986 l 344 986 b 386 925 385 986 393 967 l 328 597 l 365 597 l 376 597 l 638 946 b 733 986 668 986 676 986 l 857 986 b 883 926 896 986 904 954 l 565 543 b 639 390 600 513 619 460 l 736 51 b 704 0 746 19 744 0 l 576 0 b 510 56 526 0 518 14 l 439 324 b 354 401 422 389 411 401 l 294 401 l 232 47 b 174 0 224 7 201 0 l 63 0 "},"Л":{"ha":901,"x_min":0,"x_max":0,"o":"m 64 -15 b -4 21 21 -35 10 -11 l -42 108 b -24 182 -56 143 -57 164 b 213 628 78 235 147 274 l 269 938 b 336 986 278 979 296 986 l 843 986 b 883 922 883 986 892 965 l 731 49 b 664 0 722 10 704 0 l 553 0 b 515 64 513 0 507 21 l 642 786 l 450 786 l 421 614 b 64 -15 349 192 224 54 "},"М":{"ha":1090,"x_min":0,"x_max":0,"o":"m 58 0 b 17 60 18 0 10 18 l 171 938 b 238 986 179 979 199 986 l 335 986 b 393 939 378 986 385 972 l 532 449 l 846 949 b 919 986 869 985 882 986 l 1032 986 b 1072 924 1074 986 1081 965 l 919 51 b 856 0 913 13 899 0 l 758 0 b 711 60 724 0 701 8 l 772 397 b 861 692 786 479 807 561 l 851 692 b 708 426 801 586 760 506 l 594 250 b 533 217 576 221 567 217 l 463 217 b 411 263 431 217 419 231 l 357 438 b 307 692 332 518 315 579 l 296 692 b 278 382 304 558 293 472 l 219 49 b 160 0 211 10 196 0 l 58 0 "},"Н":{"ha":914,"x_min":0,"x_max":0,"o":"m 63 0 b 17 64 22 0 8 11 l 171 935 b 235 986 178 978 197 986 l 340 986 b 386 925 388 986 393 967 l 329 599 l 622 599 l 682 936 b 750 986 689 978 710 986 l 854 986 b 897 925 896 986 904 967 l 744 57 b 685 0 738 17 724 0 l 574 0 b 528 60 529 0 519 14 l 588 400 l 294 400 l 232 49 b 175 0 225 17 214 0 l 63 0 "},"О":{"ha":893,"x_min":0,"x_max":0,"o":"m 369 -21 b 42 357 115 -21 1 128 l 93 643 b 521 1007 133 872 274 1007 b 850 629 761 1007 890 860 l 799 343 b 369 -21 760 114 611 -21 m 389 179 b 585 354 499 179 565 242 l 636 647 b 501 807 656 757 599 807 b 308 632 390 807 328 744 l 256 340 b 389 179 238 236 283 179 "},"П":{"ha":907,"x_min":0,"x_max":0,"o":"m 56 0 b 17 64 17 0 10 21 l 171 938 b 238 986 179 979 199 986 l 850 986 b 890 922 889 986 897 965 l 736 50 b 669 0 729 8 710 0 l 558 0 b 521 64 518 0 514 21 l 649 786 l 361 786 l 232 50 b 168 0 224 8 207 0 l 56 0 "},"Р":{"ha":843,"x_min":0,"x_max":0,"o":"m 61 0 b 17 60 14 0 11 19 l 172 939 b 240 986 179 976 194 986 l 528 986 b 836 701 733 986 836 885 b 458 325 836 474 688 325 l 282 325 l 232 51 b 172 0 225 13 208 0 l 61 0 m 451 525 b 618 678 557 525 618 578 b 501 786 618 751 583 786 l 361 786 l 317 525 "},"С":{"ha":849,"x_min":0,"x_max":0,"o":"m 367 -21 b 42 357 119 -21 1 126 l 93 643 b 513 1007 133 872 275 1007 b 849 761 708 1007 813 915 b 814 703 856 729 849 713 l 706 672 b 647 715 669 661 657 679 b 499 807 631 781 575 807 b 307 631 385 807 328 744 l 256 340 b 388 179 236 228 286 181 b 560 293 471 178 521 219 b 629 314 576 324 594 326 l 728 278 b 751 199 760 265 772 242 b 367 -21 681 53 551 -21 "},"Т":{"ha":756,"x_min":0,"x_max":0,"o":"m 238 0 b 193 61 193 0 186 21 l 321 786 l 133 786 b 88 850 92 786 79 804 l 103 938 b 169 986 111 979 129 986 l 765 986 b 807 922 807 986 815 967 l 792 836 b 729 786 783 793 769 786 l 538 786 l 407 47 b 349 0 400 10 382 0 l 238 0 "},"У":{"ha":817,"x_min":0,"x_max":0,"o":"m 138 0 b 111 61 99 0 92 29 l 257 292 l 97 936 b 132 986 88 969 93 986 l 240 986 b 325 931 297 986 317 979 l 410 532 l 651 943 b 736 986 675 983 686 986 l 850 986 b 876 924 890 986 896 958 l 353 43 b 263 0 329 3 318 0 l 138 0 "},"Ф":{"ha":1114,"x_min":0,"x_max":0,"o":"m 421 -31 b 382 32 382 -31 375 -8 l 393 90 l 344 90 b 50 451 113 90 10 228 l 68 554 b 479 903 108 779 242 903 l 538 903 l 550 972 b 617 1021 557 1014 576 1021 l 722 1021 b 761 957 764 1021 768 1000 l 753 903 l 794 903 b 1096 540 1038 903 1135 764 l 1078 439 b 657 90 1040 215 893 90 l 610 90 l 597 18 b 531 -31 589 -24 569 -31 l 421 -31 m 428 283 l 506 710 l 447 710 b 283 549 349 710 301 651 l 264 431 b 379 283 246 326 281 283 m 694 283 b 863 444 794 283 843 340 l 883 563 b 768 710 901 667 865 710 l 718 710 l 642 283 "},"Х":{"ha":858,"x_min":0,"x_max":0,"o":"m -31 0 b -51 63 -69 0 -76 29 l 293 506 l 122 939 b 151 986 111 968 117 986 l 292 986 b 364 933 342 986 350 978 l 456 672 l 646 946 b 726 986 674 988 686 986 l 871 986 b 899 926 910 986 918 956 l 567 507 l 750 50 b 708 0 763 21 747 0 l 576 0 b 503 56 528 0 517 10 l 401 342 l 203 44 b 114 0 179 6 154 0 l -31 0 "},"Ч":{"ha":860,"x_min":0,"x_max":0,"o":"m 510 0 b 468 63 469 0 461 18 l 521 361 b 381 349 493 356 447 349 b 89 704 128 349 50 481 l 131 938 b 193 986 139 979 158 986 l 306 986 b 346 922 344 986 353 965 l 304 688 b 421 550 286 585 322 550 b 558 569 486 550 535 563 l 622 936 b 685 986 629 978 651 986 l 794 986 b 838 926 835 986 844 968 l 685 54 b 619 0 678 13 664 0 l 510 0 "},"Ц":{"ha":953,"x_min":0,"x_max":0,"o":"m 639 -212 b 597 -154 600 -212 590 -196 l 624 0 l 57 0 b 17 64 15 0 10 21 l 171 938 b 238 986 179 979 197 986 l 347 986 b 386 922 388 986 393 965 l 258 200 l 549 200 l 678 938 b 743 986 686 979 708 986 l 854 986 b 893 922 893 986 900 965 l 765 200 l 811 200 b 858 136 851 200 865 179 l 806 -161 b 739 -212 797 -200 781 -212 l 639 -212 "},"Ш":{"ha":1256,"x_min":0,"x_max":0,"o":"m 58 0 b 17 63 17 0 10 21 l 171 938 b 236 986 178 979 200 986 l 344 986 b 386 922 386 986 393 965 l 258 200 l 469 200 l 599 938 b 667 986 607 979 626 986 l 774 986 b 814 922 814 986 821 965 l 685 200 l 894 200 l 1024 938 b 1089 986 1032 979 1051 986 l 1197 986 b 1239 922 1239 986 1246 965 l 1085 50 b 1024 0 1078 11 1058 0 l 58 0 "},"Щ":{"ha":1304,"x_min":0,"x_max":0,"o":"m 992 -212 b 949 -154 951 -212 940 -196 l 975 0 l 68 0 b 22 57 28 0 15 15 l 176 938 b 242 986 185 979 206 986 l 350 986 b 392 922 392 986 400 965 l 265 200 l 475 200 l 604 938 b 669 986 611 979 635 986 l 779 986 b 819 922 819 986 826 965 l 690 200 l 900 200 l 1029 938 b 1093 986 1038 979 1057 986 l 1203 986 b 1244 922 1243 986 1251 965 l 1117 200 l 1163 200 b 1208 136 1201 200 1215 179 l 1156 -162 b 1090 -212 1149 -201 1131 -212 l 992 -212 "},"Ь":{"ha":843,"x_min":0,"x_max":0,"o":"m 56 0 b 17 64 11 0 10 26 l 171 936 b 238 986 178 978 199 986 l 346 986 b 386 922 392 986 392 960 l 339 660 l 486 660 b 779 389 686 660 779 554 b 401 0 779 161 631 0 l 56 0 m 399 200 b 563 357 508 200 561 265 b 444 461 563 425 526 461 l 304 461 l 258 200 "},"Ъ":{"ha":989,"x_min":0,"x_max":0,"o":"m 190 0 b 151 64 146 0 144 26 l 279 786 l 132 786 b 88 849 90 786 81 806 l 104 938 b 169 986 111 979 129 986 l 481 986 b 521 922 526 986 526 960 l 474 660 l 621 660 b 914 389 819 660 914 554 b 536 0 914 161 765 0 l 190 0 m 533 200 b 697 357 643 200 697 265 b 582 461 697 425 664 461 l 439 461 l 393 200 "},"Ы":{"ha":1235,"x_min":0,"x_max":0,"o":"m 56 0 b 17 64 11 0 10 26 l 171 936 b 236 986 178 978 199 986 l 346 986 b 386 922 392 986 392 960 l 339 660 l 486 660 b 779 389 685 660 779 554 b 401 0 779 161 631 0 l 56 0 m 890 0 b 849 61 851 0 840 14 l 1004 940 b 1067 986 1011 982 1038 986 l 1175 986 b 1218 926 1213 986 1226 972 l 1063 46 b 1008 0 1057 11 1039 0 l 890 0 m 399 200 b 563 357 508 200 563 265 b 446 461 563 425 529 461 l 304 461 l 258 200 "},"Э":{"ha":854,"x_min":0,"x_max":0,"o":"m 335 -21 b 4 224 139 -21 26 68 b 40 285 0 254 7 275 l 151 318 b 208 282 181 328 199 322 b 349 179 224 218 264 179 b 546 354 461 179 526 243 l 556 400 l 317 400 b 271 463 276 400 264 421 l 286 549 b 344 599 293 592 304 599 l 589 599 l 599 646 b 464 807 618 760 557 807 b 285 693 372 807 321 768 b 218 674 269 660 251 661 l 126 708 b 104 785 94 721 83 740 b 483 1007 172 924 297 1007 b 813 631 726 1007 853 860 l 761 343 b 335 -21 719 115 575 -21 "},"Ю":{"ha":1269,"x_min":0,"x_max":0,"o":"m 746 -21 b 422 356 499 -21 385 121 l 429 400 l 294 400 l 232 49 b 168 0 224 7 207 0 l 54 0 b 17 64 15 0 10 21 l 171 938 b 236 986 179 979 199 986 l 347 986 b 386 922 386 986 393 964 l 329 599 l 465 599 l 474 643 b 899 1007 517 882 664 1007 b 1231 626 1149 1007 1271 854 l 1179 343 b 746 -21 1138 110 990 -21 m 768 179 b 965 354 879 179 944 243 l 1017 647 b 881 807 1036 754 983 807 b 688 632 768 807 707 744 l 635 339 b 768 179 615 231 668 179 "},"Я":{"ha":867,"x_min":0,"x_max":0,"o":"m 4 0 b -22 64 -36 0 -47 26 l 156 343 b 218 424 171 367 192 401 b 103 636 153 469 103 533 b 465 986 106 853 235 986 l 808 986 b 849 922 854 986 854 958 l 694 51 b 633 0 688 11 672 0 l 519 0 b 479 63 476 0 474 24 l 532 354 l 465 354 b 347 264 407 354 388 331 l 213 44 b 122 0 188 3 172 0 l 4 0 m 567 553 l 607 786 l 464 786 b 321 649 360 786 321 722 b 422 553 321 597 344 553 "},"а":{"ha":686,"x_min":0,"x_max":0,"o":"m 274 -21 b -3 185 50 -21 -4 72 b 322 436 0 372 128 436 b 418 429 361 436 392 433 l 426 469 b 356 569 440 539 411 569 b 246 514 307 569 274 550 b 185 494 225 486 214 482 l 110 528 b 93 601 76 543 69 565 b 392 743 156 692 242 743 b 624 451 565 743 657 643 l 561 101 b 497 18 553 51 540 35 b 274 -21 440 -4 368 -21 m 285 140 b 358 150 317 140 342 146 b 372 163 364 151 371 156 l 392 272 b 303 282 367 279 343 282 b 200 197 217 282 200 236 b 285 140 200 165 215 140 "},"б":{"ha":732,"x_min":0,"x_max":0,"o":"m 294 -21 b 32 276 86 -21 0 96 l 90 600 b 511 1013 139 876 253 1013 l 550 1013 b 656 1028 590 1013 629 1019 b 707 993 686 1038 700 1031 l 721 917 b 690 851 729 878 722 863 b 543 829 647 835 603 829 l 497 829 b 290 651 385 829 311 783 l 289 644 b 464 701 319 671 392 701 b 663 413 631 701 694 592 l 636 261 b 294 -21 604 81 490 -21 m 314 160 b 438 275 392 160 426 206 l 464 419 b 383 521 476 490 447 521 b 257 406 306 521 271 476 l 232 261 b 314 160 219 192 251 160 "},"в":{"ha":704,"x_min":0,"x_max":0,"o":"m 300 -21 b 53 22 208 -21 107 -4 b 13 110 15 40 6 63 l 101 607 b 169 699 111 661 121 676 b 410 743 236 725 328 743 b 663 556 581 743 663 672 b 546 372 663 474 617 404 b 638 219 603 350 639 301 b 300 -21 635 67 515 -21 m 361 433 b 478 528 440 433 478 471 b 392 592 478 572 444 592 b 308 575 361 592 335 586 b 283 540 292 567 286 558 l 265 433 m 314 124 b 447 231 393 124 447 161 b 349 303 447 283 415 303 l 242 303 l 217 161 b 232 131 213 142 215 135 b 314 124 246 126 286 124 "},"г":{"ha":700,"x_min":0,"x_max":0,"o":"m 260 -21 b 6 186 93 -21 1 53 b 296 424 10 346 111 404 b 453 522 392 435 453 453 b 371 581 454 561 426 581 b 229 506 296 581 264 553 b 172 496 213 485 199 481 l 100 536 b 86 596 69 553 69 571 b 390 740 147 688 239 740 b 635 542 551 740 636 664 b 349 299 633 378 524 322 b 186 201 256 285 186 272 b 272 140 186 153 225 140 b 425 224 343 140 393 172 b 482 229 440 247 454 240 l 558 197 b 572 133 592 183 586 160 b 260 -21 515 26 410 -21 "},"д":{"ha":736,"x_min":0,"x_max":0,"o":"m 276 -21 b 7 278 65 -21 -25 97 l 32 419 b 335 689 64 599 164 689 b 514 622 422 689 488 658 b 250 869 544 829 438 867 b 207 918 211 871 200 886 l 219 994 b 260 1032 225 1028 233 1032 b 681 554 625 1032 740 897 l 629 264 b 276 -21 597 82 478 -21 m 296 150 b 432 274 376 150 419 199 l 458 422 b 364 531 471 497 433 531 b 228 407 279 531 240 482 l 203 261 b 296 150 190 188 225 150 "},"е":{"ha":657,"x_min":0,"x_max":0,"o":"m 388 743 b 649 539 554 743 650 665 b 351 285 649 376 532 285 b 221 290 303 285 260 286 l 210 222 b 283 128 199 156 228 128 b 415 211 346 128 388 164 b 471 221 429 233 446 233 l 543 182 b 556 115 576 164 575 143 b 269 -21 496 25 418 -21 b 13 224 78 -21 7 81 b 49 451 15 265 22 310 b 388 743 85 642 181 743 m 318 421 b 453 528 407 421 453 460 b 378 596 453 578 424 596 b 253 469 310 596 268 560 l 244 425 b 318 421 268 422 290 421 "},"ё":{"ha":657,"x_min":0,"x_max":0,"o":"m 257 814 b 183 907 192 814 172 843 l 185 922 b 279 1001 196 988 213 1001 l 289 1001 b 367 908 356 1001 379 972 l 364 893 b 268 814 353 829 333 814 l 257 814 m 532 814 b 456 907 465 814 443 843 l 457 922 b 553 1001 468 988 488 1001 l 563 1001 b 639 908 629 1001 651 972 l 636 893 b 542 814 625 829 607 814 l 532 814 m 388 743 b 649 539 554 743 650 665 b 351 285 649 376 532 285 b 221 290 303 285 260 286 l 210 222 b 283 128 199 156 228 128 b 415 211 346 128 388 164 b 471 221 429 233 446 233 l 543 182 b 556 115 576 164 575 143 b 269 -21 496 25 418 -21 b 13 224 78 -21 7 81 b 49 451 15 265 22 310 b 388 743 85 642 181 743 m 318 421 b 453 528 407 421 453 460 b 378 596 453 578 424 596 b 253 469 310 596 268 560 l 244 425 b 318 421 268 422 290 421 "},"ж":{"ha":990,"x_min":0,"x_max":0,"o":"m -17 0 b -39 68 -60 0 -67 24 l 113 311 b 181 404 139 351 157 382 l 83 668 b 121 722 69 710 72 722 l 204 722 b 289 676 258 722 278 713 l 364 457 l 372 457 l 388 457 l 428 678 b 488 722 435 717 454 722 l 588 722 b 625 664 625 722 632 703 l 589 457 l 599 457 l 610 457 l 763 689 b 833 722 786 725 800 722 l 947 722 b 972 656 994 722 1001 694 l 772 392 b 804 299 788 369 794 339 l 867 54 b 828 0 876 13 878 0 l 729 0 b 661 53 674 0 669 13 l 626 225 b 579 276 618 264 610 276 l 556 276 l 515 46 b 454 0 508 8 488 0 l 354 0 b 317 60 315 0 310 19 l 356 276 l 329 276 b 263 213 300 276 285 253 l 171 42 b 93 0 150 0 138 0 l -17 0 "},"з":{"ha":679,"x_min":0,"x_max":0,"o":"m 264 -21 b -12 175 94 -21 8 64 b 19 236 -21 211 -14 226 l 101 258 b 156 240 135 268 147 265 b 269 151 172 182 199 151 b 385 233 343 151 385 179 b 324 283 385 260 372 283 l 243 283 b 211 340 207 283 206 311 l 222 400 b 267 443 229 438 238 443 l 339 443 b 428 519 389 443 428 468 b 353 572 428 553 404 572 b 218 489 281 572 246 538 b 158 469 201 457 186 460 l 85 497 b 65 569 47 511 49 535 b 364 743 108 668 206 743 b 621 558 532 743 621 676 b 510 372 621 471 578 403 l 510 368 b 579 232 558 340 579 290 b 264 -21 579 61 454 -21 "},"и":{"ha":731,"x_min":0,"x_max":0,"o":"m 275 -21 b 32 272 82 -21 0 90 l 104 678 b 164 722 110 714 133 722 l 267 722 b 304 664 303 722 311 703 l 232 264 b 306 161 219 189 240 161 b 386 174 335 161 367 167 b 403 196 394 176 400 181 l 488 679 b 542 722 493 710 511 722 l 646 722 b 688 664 688 722 694 703 l 589 103 b 532 22 581 58 575 40 b 275 -21 476 -4 397 -21 "},"й":{"ha":731,"x_min":0,"x_max":0,"o":"m 432 808 b 232 953 328 808 257 861 b 249 999 225 982 228 992 l 322 1024 b 368 1001 347 1031 358 1025 b 438 950 382 968 404 950 b 526 1010 478 950 508 972 b 574 1021 540 1031 547 1032 l 650 990 b 664 940 674 981 678 971 b 432 808 624 858 536 808 m 275 -21 b 32 272 82 -21 0 90 l 104 678 b 164 722 110 714 133 722 l 267 722 b 304 664 303 722 311 703 l 232 264 b 306 161 219 189 240 161 b 386 174 335 161 367 167 b 403 196 394 176 400 181 l 488 679 b 542 722 493 710 511 722 l 646 722 b 688 664 688 722 694 703 l 589 103 b 532 22 581 58 575 40 b 275 -21 476 -4 397 -21 "},"к":{"ha":699,"x_min":0,"x_max":0,"o":"m 38 0 b 3 60 3 0 -4 19 l 111 678 b 171 722 118 715 142 722 l 275 722 b 311 663 307 722 318 703 l 274 457 l 288 457 l 310 457 l 475 689 b 558 722 501 724 513 722 l 663 722 b 688 658 707 722 717 693 l 485 407 b 524 300 501 383 511 349 l 586 56 b 544 0 597 11 593 0 l 443 0 b 381 53 394 0 388 14 l 344 224 b 296 276 335 265 326 276 l 242 276 l 201 46 b 140 0 194 8 175 0 l 38 0 "},"л":{"ha":722,"x_min":0,"x_max":0,"o":"m 46 -17 b -10 10 14 -29 0 -14 l -50 110 b -35 168 -61 136 -61 154 b 122 468 21 194 76 215 l 160 676 b 217 722 165 711 185 722 l 639 722 b 675 665 674 722 681 700 l 564 46 b 510 0 557 8 536 0 l 400 0 b 365 58 365 0 358 19 l 450 538 l 326 538 l 308 435 b 46 -17 246 97 143 24 "},"м":{"ha":882,"x_min":0,"x_max":0,"o":"m 36 0 b 0 58 3 0 -7 17 l 110 675 b 168 722 117 714 136 722 l 275 722 b 331 675 313 722 324 708 l 414 367 l 611 686 b 682 722 631 718 642 722 l 797 722 b 833 660 838 722 840 701 l 725 44 b 671 0 718 10 697 0 l 574 0 b 539 60 542 0 532 18 l 571 240 b 642 460 581 297 600 374 l 633 460 b 542 299 599 392 572 346 l 469 189 b 411 158 451 161 443 158 l 354 158 b 310 203 324 158 318 172 l 276 311 b 239 460 261 360 251 393 l 231 460 b 218 225 242 369 233 304 l 186 46 b 129 0 179 6 154 0 l 36 0 "},"н":{"ha":733,"x_min":0,"x_max":0,"o":"m 36 0 b 0 56 3 0 -7 18 l 110 679 b 169 722 117 717 140 722 l 272 722 b 310 664 307 722 317 703 l 272 458 l 449 458 l 488 675 b 546 722 494 713 510 722 l 651 722 b 688 664 686 722 694 703 l 576 46 b 518 0 571 10 551 0 l 414 0 b 378 58 379 0 371 19 l 417 275 l 239 275 l 199 44 b 144 0 193 8 171 0 l 36 0 "},"о":{"ha":718,"x_min":0,"x_max":0,"o":"m 276 -21 b 18 276 72 -21 -12 99 l 50 460 b 388 743 82 646 194 743 b 653 446 593 743 685 622 l 621 261 b 276 -21 589 79 472 -21 m 299 160 b 422 275 372 160 410 206 l 456 461 b 372 563 468 532 435 563 b 249 447 301 563 263 518 l 215 261 b 299 160 204 193 238 160 "},"п":{"ha":731,"x_min":0,"x_max":0,"o":"m 35 0 b 0 58 3 0 -7 17 l 99 621 b 158 694 106 663 121 679 b 406 743 221 721 314 743 b 651 450 607 743 686 643 l 581 43 b 521 0 575 13 558 0 l 417 0 b 382 58 383 0 374 17 l 451 458 b 379 560 464 528 440 560 b 301 549 347 560 321 554 b 286 535 290 544 286 542 l 199 43 b 140 0 193 13 176 0 l 35 0 "},"р":{"ha":722,"x_min":0,"x_max":0,"o":"m -18 -306 b -54 -247 -53 -306 -61 -286 l 96 614 b 143 690 104 660 111 674 b 399 743 192 715 296 743 b 654 438 621 743 689 633 l 624 258 b 301 -21 593 86 482 -21 b 189 -4 261 -21 217 -12 l 144 -262 b 89 -306 139 -289 121 -306 l -18 -306 m 297 160 b 425 275 374 160 413 201 l 456 450 b 379 563 471 532 449 563 b 294 549 344 563 314 557 b 283 531 288 546 285 540 l 221 171 b 297 160 244 163 274 160 "},"с":{"ha":679,"x_min":0,"x_max":0,"o":"m 271 -21 b 17 272 69 -21 -18 85 l 51 464 b 371 743 83 650 186 743 b 643 544 531 743 626 664 b 606 488 647 510 640 499 l 518 463 b 463 497 486 453 471 460 b 371 568 451 544 424 568 b 250 453 301 568 264 529 l 215 256 b 292 154 203 189 228 154 b 392 222 357 154 378 192 b 467 260 414 269 428 272 l 556 232 b 568 142 589 221 593 193 b 271 -21 514 32 417 -21 "},"т":{"ha":1106,"x_min":0,"x_max":0,"o":"m 36 0 b 0 58 0 0 -7 19 l 99 621 b 153 693 104 657 115 676 b 410 743 214 721 306 743 b 574 701 479 743 540 724 b 789 743 633 725 701 743 b 1026 450 981 743 1060 638 l 956 43 b 890 0 949 6 928 0 l 792 0 b 756 58 756 0 749 18 l 826 458 b 757 560 838 529 815 560 b 661 535 718 560 690 550 b 647 450 660 511 653 482 l 576 43 b 515 0 571 10 549 0 l 413 0 b 378 57 376 0 372 22 l 449 460 b 381 560 460 529 436 560 b 294 546 344 560 314 556 b 285 531 286 542 286 538 l 199 43 b 135 0 192 7 169 0 l 36 0 "},"у":{"ha":733,"x_min":0,"x_max":0,"o":"m 239 -319 b -22 -176 97 -319 17 -265 b -6 -112 -36 -144 -32 -125 l 89 -67 b 138 -78 106 -58 121 -53 b 236 -143 160 -112 172 -143 b 365 -25 308 -143 346 -104 l 378 33 b 265 19 349 26 311 19 b 38 314 85 19 6 132 l 103 678 b 167 722 110 715 133 722 l 264 722 b 303 664 300 722 310 703 l 238 306 b 311 201 225 231 244 201 b 404 214 351 201 382 207 l 486 679 b 547 722 493 717 517 722 l 647 722 b 686 664 683 722 693 703 l 564 -21 b 239 -319 532 -204 443 -319 "},"ф":{"ha":989,"x_min":0,"x_max":0,"o":"m 303 -306 b 264 -251 268 -306 257 -290 l 304 -18 b 261 -21 289 -19 274 -21 b 22 303 60 -21 -15 96 l 46 435 b 367 743 85 656 179 743 b 436 739 390 743 421 740 l 479 983 b 539 1028 485 1017 504 1028 l 642 1028 b 679 968 675 1028 686 1010 l 638 740 b 678 743 651 742 665 743 b 922 432 871 743 954 622 l 897 288 b 564 -21 863 86 749 -21 b 506 -18 538 -21 519 -18 l 463 -261 b 407 -306 457 -292 438 -306 l 303 -306 m 296 160 b 336 163 308 160 324 161 l 406 558 b 361 563 389 561 374 563 b 243 426 292 563 258 519 l 218 278 b 296 160 204 197 226 160 m 578 160 b 700 299 647 160 682 201 l 725 443 b 647 563 739 525 714 563 b 606 560 631 563 618 561 l 536 163 b 578 160 543 161 564 160 "},"х":{"ha":683,"x_min":0,"x_max":0,"o":"m -12 0 b -44 67 -68 0 -75 26 l 188 371 l 76 668 b 114 722 63 703 60 722 l 213 722 b 288 672 264 722 279 710 l 342 506 l 456 685 b 536 722 482 724 488 722 l 642 722 b 672 656 690 722 700 694 l 456 372 l 571 54 b 533 0 586 13 585 0 l 431 0 b 358 50 379 0 369 11 l 301 236 l 174 38 b 89 0 149 -3 138 0 l -12 0 "},"ч":{"ha":686,"x_min":0,"x_max":0,"o":"m 365 0 b 329 56 331 0 322 18 l 361 236 b 250 228 336 232 306 228 b 46 515 75 229 13 326 l 75 678 b 136 722 82 714 103 722 l 239 722 b 275 664 275 722 282 703 l 247 510 b 307 410 233 438 242 410 b 394 426 344 410 368 415 l 440 681 b 494 722 446 714 465 722 l 601 722 b 639 664 638 722 646 703 l 528 43 b 472 0 522 13 506 0 l 365 0 "},"ц":{"ha":771,"x_min":0,"x_max":0,"o":"m 501 -193 b 468 -139 471 -193 464 -169 l 488 -33 b 447 1 494 7 482 8 b 275 -21 394 -8 357 -21 b 33 281 69 -21 1 96 l 104 678 b 161 722 110 708 126 722 l 269 722 b 304 667 303 722 310 701 l 233 275 b 307 161 219 194 233 161 b 400 178 346 161 374 169 l 486 674 b 539 722 490 704 506 722 l 650 722 b 688 672 682 722 694 704 l 603 182 b 701 89 676 182 715 175 l 660 -149 b 607 -193 656 -179 636 -193 l 501 -193 "},"ш":{"ha":1100,"x_min":0,"x_max":0,"o":"m 269 -21 b 35 282 83 -21 1 90 l 106 678 b 161 722 111 710 131 722 l 271 722 b 307 674 301 722 311 701 l 235 272 b 306 161 221 193 238 161 b 404 186 351 161 388 175 b 410 265 403 203 403 232 l 482 679 b 533 722 486 708 504 722 l 640 722 b 679 665 678 722 686 703 l 611 274 b 679 161 597 196 607 161 b 756 174 707 161 739 168 b 775 213 774 179 772 196 l 857 678 b 908 722 863 710 879 722 l 1021 722 b 1057 671 1051 722 1064 701 l 958 108 b 899 19 951 68 950 43 b 642 -21 840 -7 744 -21 b 483 21 581 -21 524 -6 b 269 -21 436 -1 367 -21 "},"щ":{"ha":1139,"x_min":0,"x_max":0,"o":"m 872 -193 b 839 -142 842 -193 833 -171 l 857 -32 b 825 3 863 -6 860 10 b 646 -21 781 -6 731 -21 b 482 21 579 -21 528 -7 b 272 -21 436 0 371 -21 b 33 281 72 -21 1 99 l 104 676 b 160 722 108 704 124 722 l 267 722 b 306 674 299 722 311 703 l 233 272 b 301 161 218 183 246 161 b 403 185 346 161 376 171 b 408 269 401 204 401 235 l 481 679 b 531 722 486 710 506 722 l 643 722 b 679 672 674 722 685 703 l 608 271 b 672 161 594 192 613 161 b 768 178 704 161 735 165 l 856 681 b 910 722 860 708 879 722 l 1019 722 b 1057 674 1049 722 1063 704 l 971 182 b 1072 99 1036 182 1086 176 l 1029 -150 b 976 -193 1022 -183 1001 -193 l 872 -193 "},"ь":{"ha":685,"x_min":0,"x_max":0,"o":"m 254 -21 b 43 25 174 -21 86 4 b -4 104 0 47 -12 58 l 97 678 b 151 722 103 707 121 722 l 263 722 b 299 676 290 722 303 703 l 268 503 b 397 524 306 515 354 524 b 622 315 533 524 624 450 b 254 -21 622 99 478 -21 m 289 149 b 426 292 378 149 426 211 b 346 371 426 344 399 371 b 240 347 307 371 271 360 l 214 192 b 224 158 211 178 211 164 b 289 149 240 151 264 149 "},"ъ":{"ha":797,"x_min":0,"x_max":0,"o":"m 375 -21 b 163 25 294 -21 206 4 b 115 104 119 47 107 58 l 196 554 l 64 554 b 26 603 32 554 21 572 l 42 688 b 92 722 46 717 61 722 l 383 722 b 418 675 414 722 422 700 l 389 503 b 517 524 426 515 474 524 b 742 315 653 524 743 450 b 375 -21 742 99 597 -21 m 408 149 b 546 292 496 149 546 211 b 465 371 546 344 518 371 b 361 347 426 371 390 360 l 332 192 b 343 158 329 178 331 164 b 408 149 361 151 383 149 "},"ы":{"ha":983,"x_min":0,"x_max":0,"o":"m 254 -21 b 43 25 174 -21 86 4 b -4 104 0 47 -12 58 l 97 678 b 151 722 103 707 121 722 l 263 722 b 299 676 290 722 303 701 l 269 503 b 397 524 307 515 354 524 b 622 315 533 524 624 450 b 254 -21 622 99 478 -21 m 663 0 b 632 57 635 0 625 19 l 742 678 b 799 722 749 715 772 722 l 906 722 b 940 664 936 722 947 704 l 831 46 b 775 0 824 8 804 0 l 663 0 m 289 149 b 426 292 378 149 426 211 b 346 371 426 344 399 371 b 240 347 307 371 271 360 l 214 192 b 224 158 211 178 211 164 b 289 149 240 151 264 149 "},"э":{"ha":672,"x_min":0,"x_max":0,"o":"m 242 -21 b -8 175 85 -21 10 79 b 22 238 -15 208 -10 229 l 113 260 b 164 232 142 267 156 264 b 254 157 172 197 183 157 b 375 261 319 157 364 194 b 378 279 376 267 376 272 l 254 279 b 217 335 218 279 210 297 l 229 406 b 285 449 236 443 253 449 l 407 449 l 410 465 b 339 565 419 531 393 565 b 222 488 281 565 247 539 b 157 467 207 456 192 456 l 85 489 b 57 563 51 500 38 518 b 347 743 103 664 194 743 b 608 446 547 743 639 626 l 576 261 b 242 -21 546 81 426 -21 "},"ю":{"ha":1021,"x_min":0,"x_max":0,"o":"m 581 -21 b 322 268 381 -21 294 94 l 324 275 l 239 275 l 200 47 b 138 0 193 8 172 0 l 36 0 b 1 58 1 0 -6 19 l 110 679 b 169 722 117 717 140 722 l 274 722 b 310 664 304 722 317 703 l 272 458 l 356 458 l 357 468 b 693 743 390 649 503 743 b 958 446 899 743 989 622 l 926 261 b 581 -21 893 79 776 -21 m 604 160 b 728 275 678 160 715 206 l 760 461 b 678 563 772 532 739 563 b 554 447 606 563 567 518 l 521 261 b 604 160 510 193 543 160 "},"я":{"ha":707,"x_min":0,"x_max":0,"o":"m 7 0 b -22 64 -42 0 -51 24 l 125 271 b 51 446 78 310 51 361 b 350 722 51 617 160 722 l 624 722 b 660 664 657 722 667 704 l 550 46 b 493 0 544 14 528 0 l 386 0 b 351 58 353 0 344 18 l 381 221 l 300 221 l 193 39 b 110 0 169 -1 158 0 l 7 0 m 410 394 l 438 547 l 344 547 b 251 463 286 547 251 517 b 315 394 251 418 269 394 "},"π":{"ha":871,"x_min":0,"x_max":0,"o":"m 656 -1 b 588 28 619 -15 603 -10 b 553 221 558 100 553 149 l 553 539 l 372 539 l 372 50 b 325 0 372 13 360 0 l 218 0 b 169 50 182 0 169 13 l 169 539 b 114 521 151 538 144 535 b 50 543 83 507 67 510 l 14 621 b 38 686 -1 654 4 671 b 226 722 99 714 146 722 l 781 722 b 828 672 815 722 828 710 l 828 592 b 781 539 828 553 815 539 l 754 539 l 754 217 b 774 110 754 169 756 151 b 749 36 789 74 783 50 l 656 -1 "},"⁄":{"ha":271,"x_min":0,"x_max":0,"o":"m -271 0 b -297 63 -310 0 -318 32 l 393 946 b 486 986 425 988 429 986 l 554 986 b 576 926 589 986 597 956 l -110 43 b -206 0 -144 0 -153 0 l -271 0 "},"½":{"ha":1122,"x_min":0,"x_max":0,"o":"m 214 443 b 175 506 172 443 167 464 l 226 788 l 199 772 b 136 797 168 754 150 771 l 115 840 b 143 910 100 874 111 892 l 265 976 b 333 990 288 989 307 990 l 372 990 b 415 932 417 992 422 972 l 336 490 b 268 443 329 449 310 443 l 214 443 m 118 0 b 92 63 79 0 71 32 l 782 946 b 875 986 814 988 818 986 l 942 986 b 965 926 978 986 986 956 l 279 43 b 183 0 244 0 236 0 l 118 0 m 633 0 b 594 54 596 0 590 26 l 601 93 b 744 283 618 185 653 242 l 815 315 b 881 385 853 333 879 349 b 856 407 881 399 872 407 b 800 361 831 407 814 388 b 743 349 786 339 775 338 l 685 371 b 667 439 651 385 651 407 b 876 560 706 513 768 560 b 1046 408 985 560 1046 497 b 897 203 1046 299 992 243 l 835 176 b 796 151 818 169 800 161 l 794 147 l 956 147 b 989 96 993 147 993 128 l 979 42 b 932 0 974 8 960 0 l 633 0 "},"⅓":{"ha":1142,"x_min":0,"x_max":0,"o":"m 214 444 b 175 507 172 444 168 465 l 226 788 l 200 772 b 136 797 171 753 150 769 l 115 842 b 140 913 99 876 107 893 l 263 978 b 331 992 285 990 303 992 l 372 992 b 415 932 417 992 422 974 l 336 492 b 268 444 329 450 310 444 l 214 444 m 129 0 b 103 63 90 0 82 32 l 793 946 b 888 986 825 988 831 986 l 954 986 b 978 926 990 986 997 956 l 292 43 b 194 0 257 0 247 0 l 129 0 m 814 -11 b 622 149 701 -11 636 44 b 647 185 621 165 628 179 l 708 201 b 756 183 735 208 749 207 b 819 132 765 151 779 132 b 878 181 860 132 878 151 b 843 210 879 196 865 210 l 810 210 b 785 257 782 210 779 229 l 794 307 b 836 344 801 339 808 344 l 860 344 b 908 390 892 344 908 361 b 872 418 908 408 893 418 b 799 369 836 418 817 403 b 744 356 785 344 772 342 l 697 374 b 681 439 667 388 664 410 b 892 560 722 514 786 560 b 1063 418 1000 560 1063 501 b 988 281 1063 351 1035 310 b 1035 181 1017 258 1035 224 b 814 -11 1033 56 950 -11 "},"⅔":{"ha":1219,"x_min":0,"x_max":0,"o":"m 93 444 b 54 499 54 444 49 471 l 61 538 b 204 728 78 629 111 686 l 274 760 b 339 829 313 776 339 793 b 317 851 340 843 332 851 b 258 806 289 851 272 832 b 203 793 246 783 233 782 l 144 815 b 126 883 110 829 110 851 b 335 1004 163 957 226 1004 b 506 853 444 1004 506 942 b 357 647 506 743 451 688 l 293 621 b 263 604 282 615 269 611 b 254 592 258 600 256 597 l 414 592 b 449 540 453 592 453 572 l 439 486 b 390 444 433 453 418 444 l 93 444 m 221 0 b 194 63 182 0 174 32 l 883 946 b 978 986 917 988 921 986 l 1044 986 b 1068 926 1081 986 1089 956 l 382 43 b 286 0 347 0 339 0 l 221 0 m 899 -11 b 707 149 786 -11 721 44 b 732 185 704 165 711 179 l 792 201 b 839 183 818 208 832 207 b 903 132 850 151 864 132 b 963 181 943 132 963 151 b 926 210 963 196 949 210 l 894 210 b 868 257 865 210 863 229 l 879 307 b 919 344 885 339 892 344 l 944 344 b 993 390 975 344 993 361 b 956 418 993 408 976 418 b 882 369 921 418 901 403 b 828 356 868 344 857 342 l 781 374 b 765 439 751 388 749 410 b 975 560 806 514 871 560 b 1146 418 1083 560 1146 501 b 1071 281 1146 351 1119 310 b 1118 181 1100 258 1118 224 b 899 -11 1118 56 1033 -11 "},"¼":{"ha":1079,"x_min":0,"x_max":0,"o":"m 136 0 b 110 63 97 0 89 32 l 800 946 b 893 986 832 988 836 986 l 960 986 b 983 926 996 986 1004 956 l 297 43 b 201 0 263 0 254 0 l 136 0 m 213 438 b 174 500 171 438 165 458 l 225 782 l 199 767 b 135 792 169 747 149 764 l 114 836 b 139 907 97 871 106 888 l 261 972 b 329 986 283 985 301 986 l 371 986 b 414 926 415 986 421 968 l 335 485 b 267 438 328 443 308 438 l 213 438 m 778 0 b 744 53 747 0 739 18 l 754 103 l 561 103 b 524 154 526 103 517 117 l 531 197 b 551 250 535 224 535 233 l 794 524 b 864 549 818 551 829 549 l 936 549 b 974 489 974 549 981 532 l 928 238 l 942 238 b 975 190 976 238 981 225 l 965 139 b 924 103 960 110 954 103 l 906 103 l 893 42 b 842 0 886 8 869 0 l 778 0 m 778 238 l 800 349 l 707 238 "},"¾":{"ha":1119,"x_min":0,"x_max":0,"o":"m 256 433 b 67 593 140 433 76 489 b 92 629 64 610 71 624 l 150 646 b 196 628 175 653 189 651 b 260 576 207 596 221 576 b 319 625 301 576 319 596 b 283 654 319 640 307 654 l 251 654 b 226 701 222 654 221 674 l 236 751 b 275 789 243 785 251 789 l 301 789 b 350 833 332 789 350 806 b 314 863 350 851 335 863 b 239 814 279 863 258 849 b 185 800 225 789 214 786 l 139 818 b 122 883 110 831 107 853 b 332 1004 164 964 225 1004 b 504 863 440 1004 504 946 b 429 725 504 796 476 754 b 475 625 458 703 476 667 b 256 433 475 500 390 433 m 179 0 b 153 63 140 0 132 32 l 843 946 b 938 986 875 988 881 986 l 1004 986 b 1026 926 1040 986 1047 956 l 342 43 b 244 0 307 0 297 0 l 179 0 m 824 0 b 790 53 793 0 785 18 l 800 103 l 607 103 b 569 154 572 103 563 117 l 576 197 b 596 250 581 224 581 233 l 839 524 b 910 549 864 551 875 549 l 982 549 b 1018 489 1019 549 1026 532 l 974 238 l 988 238 b 1019 190 1022 238 1025 225 l 1011 139 b 968 103 1006 110 1000 103 l 950 103 l 939 42 b 888 0 932 8 915 0 l 824 0 m 822 238 l 846 349 l 753 238 "},"⅛":{"ha":1169,"x_min":0,"x_max":0,"o":"m 213 443 b 174 506 171 443 165 464 l 225 788 l 199 772 b 135 797 169 753 149 769 l 114 842 b 139 913 97 876 106 893 l 261 978 b 329 992 283 990 301 992 l 371 992 b 414 932 415 992 421 974 l 335 490 b 267 443 328 449 308 443 l 213 443 m 133 0 b 108 63 96 0 86 32 l 797 946 b 892 986 831 988 835 986 l 958 986 b 982 926 994 986 1001 956 l 296 43 b 200 0 261 0 251 0 l 133 0 m 825 -11 b 633 125 701 -11 632 38 b 729 281 633 190 668 244 b 692 382 704 306 692 340 b 913 560 692 489 775 560 b 1090 426 1025 560 1089 511 b 1014 290 1092 369 1063 321 b 1063 175 1046 267 1063 226 b 825 -11 1061 57 974 -11 m 883 347 b 933 404 918 365 933 383 b 899 433 933 425 921 433 b 846 389 867 433 846 415 b 883 347 846 369 858 356 m 838 115 b 897 165 872 115 897 136 b 856 210 897 186 883 201 b 797 147 815 194 797 172 b 838 115 797 126 810 115 "},"⅜":{"ha":1192,"x_min":0,"x_max":0,"o":"m 253 433 b 63 593 138 433 74 489 b 89 629 61 610 68 624 l 147 646 b 193 628 172 653 186 651 b 257 576 204 596 218 576 b 317 625 297 576 317 596 b 281 654 317 640 304 654 l 249 654 b 224 701 219 654 218 674 l 233 751 b 272 789 239 785 247 789 l 299 789 b 347 833 329 789 347 806 b 311 863 347 851 332 863 b 236 814 276 863 256 849 b 182 800 222 789 211 786 l 135 818 b 119 883 107 831 104 853 b 329 1004 161 964 222 1004 b 501 863 438 1004 501 946 b 425 725 501 796 474 754 b 472 625 456 703 474 667 b 253 433 472 500 388 433 m 193 0 b 167 63 154 0 146 32 l 856 946 b 950 986 889 988 893 986 l 1017 986 b 1040 926 1053 986 1061 956 l 354 43 b 258 0 319 0 310 0 l 193 0 m 853 -11 b 661 125 729 -11 660 38 b 757 281 661 190 696 244 b 719 382 732 306 719 340 b 940 560 719 489 803 560 b 1118 426 1053 560 1117 511 b 1042 290 1119 369 1092 321 b 1090 175 1074 267 1090 226 b 853 -11 1089 57 1001 -11 m 911 347 b 961 404 946 365 961 383 b 926 433 961 425 949 433 b 874 389 894 433 874 415 b 911 347 874 369 886 356 m 865 115 b 925 165 900 115 925 136 b 883 210 925 186 911 201 b 825 147 844 194 825 172 b 865 115 825 126 839 115 "},"⅝":{"ha":1210,"x_min":0,"x_max":0,"o":"m 246 433 b 65 579 129 433 86 489 b 88 632 58 613 63 624 l 147 650 b 196 628 172 658 190 654 b 250 574 201 599 210 574 b 319 640 290 574 319 600 b 267 682 319 667 304 682 l 135 682 b 103 733 97 682 96 703 l 161 957 b 211 992 169 992 185 992 l 478 992 b 508 951 508 992 514 974 l 497 889 b 454 857 493 863 485 857 l 281 857 l 269 810 l 307 810 b 471 664 417 810 472 751 b 246 433 471 531 393 433 m 189 0 b 163 63 150 0 142 32 l 853 946 b 947 986 885 988 890 986 l 1014 986 b 1036 926 1050 986 1057 956 l 351 43 b 254 0 317 0 307 0 l 189 0 m 872 -11 b 679 125 749 -11 679 38 b 775 281 681 190 714 244 b 739 382 751 306 739 340 b 958 560 739 489 822 560 b 1138 426 1072 560 1136 511 b 1061 290 1138 369 1110 321 b 1110 175 1093 267 1110 226 b 872 -11 1108 57 1021 -11 m 931 347 b 981 404 965 365 981 383 b 946 433 981 425 968 433 b 893 389 914 433 893 415 b 931 347 893 369 906 356 m 885 115 b 944 165 918 115 944 136 b 903 210 944 186 931 201 b 844 147 863 194 844 172 b 885 115 844 126 857 115 "},"⅞":{"ha":1136,"x_min":0,"x_max":0,"o":"m 124 444 b 106 507 82 444 81 464 l 304 843 l 149 843 b 117 894 115 843 111 863 l 128 957 b 175 993 133 992 144 993 l 475 993 b 508 943 507 993 514 976 l 501 903 b 486 850 497 879 496 867 l 267 472 b 201 444 251 446 238 444 l 124 444 m 97 0 b 71 63 58 0 50 32 l 761 946 b 856 986 793 988 799 986 l 922 986 b 944 926 958 986 965 956 l 260 43 b 163 0 225 0 215 0 l 97 0 m 794 -11 b 601 125 669 -11 601 38 b 697 281 601 190 636 244 b 660 382 674 306 660 340 b 881 560 660 489 744 560 b 1058 426 993 560 1057 511 b 983 290 1060 369 1032 321 b 1031 175 1014 267 1031 226 b 794 -11 1031 57 943 -11 m 853 347 b 903 404 888 365 903 383 b 867 433 903 425 890 433 b 815 389 836 433 815 415 b 853 347 815 369 826 356 m 806 115 b 867 165 840 115 867 136 b 825 210 867 186 853 201 b 765 147 785 194 765 172 b 806 115 765 126 779 115 "},".":{"ha":356,"x_min":0,"x_max":0,"o":"m 85 -11 b -6 100 6 -11 -19 21 l -1 121 b 114 218 14 200 36 218 l 133 218 b 224 107 211 218 238 186 l 219 86 b 104 -11 206 7 182 -11 l 85 -11 "},",":{"ha":346,"x_min":0,"x_max":0,"o":"m -31 -168 b -64 -124 -62 -168 -72 -153 l 17 150 b 90 204 31 197 46 204 l 179 204 b 219 136 231 204 239 176 l 83 -125 b 17 -168 65 -160 53 -168 l -31 -168 "},":":{"ha":385,"x_min":0,"x_max":0,"o":"m 185 465 b 94 576 106 465 81 497 l 99 597 b 214 694 113 676 135 694 l 232 694 b 322 583 311 694 336 661 l 318 561 b 203 465 304 483 282 465 l 185 465 m 100 -11 b 10 100 21 -11 -4 21 l 14 121 b 129 218 28 200 51 218 l 149 218 b 238 107 226 218 251 186 l 235 86 b 118 -11 219 7 197 -11 l 100 -11 "},";":{"ha":392,"x_min":0,"x_max":0,"o":"m 183 465 b 94 576 106 465 79 497 l 99 597 b 214 694 113 676 135 694 l 232 694 b 322 583 311 694 336 661 l 318 561 b 203 465 304 483 281 465 l 183 465 m -15 -168 b -50 -124 -49 -168 -58 -153 l 31 150 b 104 204 44 197 60 204 l 193 204 b 233 136 244 204 253 176 l 97 -125 b 31 -168 79 -160 67 -168 l -15 -168 "},"…":{"ha":1058,"x_min":0,"x_max":0,"o":"m 85 -11 b -6 100 6 -11 -19 21 l -1 121 b 114 218 14 200 36 218 l 133 218 b 224 107 211 218 238 186 l 219 86 b 104 -11 206 7 182 -11 l 85 -11 m 436 -11 b 347 100 358 -11 333 21 l 351 121 b 467 218 365 200 388 218 l 485 218 b 575 107 564 218 589 186 l 571 86 b 456 -11 557 7 533 -11 l 436 -11 m 789 -11 b 699 100 710 -11 685 21 l 703 121 b 818 218 717 200 739 218 l 836 218 b 926 107 915 218 940 186 l 922 86 b 807 -11 908 7 886 -11 l 789 -11 "},"!":{"ha":372,"x_min":0,"x_max":0,"o":"m 126 307 b 82 364 89 307 76 326 l 171 985 b 222 1028 175 1022 185 1028 l 329 1028 b 375 969 367 1028 383 1008 l 242 350 b 189 307 235 313 228 307 l 126 307 m 92 -11 b 1 100 13 -11 -12 21 l 6 119 b 121 217 19 199 42 217 l 142 217 b 232 106 221 217 246 185 l 229 86 b 114 -11 214 7 192 -11 l 92 -11 "},"¡":{"ha":363,"x_min":0,"x_max":0,"o":"m 176 506 b 88 617 99 506 74 538 l 90 636 b 207 733 104 715 128 733 l 229 733 b 318 622 307 733 332 700 l 315 601 b 199 506 301 524 276 506 l 176 506 m -7 -306 b -53 -249 -44 -306 -61 -286 l 78 372 b 131 415 86 410 93 415 l 193 415 b 239 358 232 415 244 396 l 151 -262 b 99 -306 146 -300 136 -306 l -7 -306 "},"?":{"ha":753,"x_min":0,"x_max":0,"o":"m 258 279 b 221 346 221 279 213 300 b 361 564 242 468 297 519 b 531 746 432 613 515 640 b 449 842 542 808 514 842 b 278 718 372 842 322 797 b 208 697 254 685 243 685 l 121 731 b 99 810 85 743 79 767 b 464 1028 174 940 285 1028 b 750 738 676 1028 774 900 b 485 426 725 561 603 504 b 407 318 444 399 415 365 b 351 279 401 283 388 279 l 258 279 m 246 -11 b 160 92 171 -11 149 18 l 165 119 b 276 217 179 199 201 217 l 304 217 b 390 113 379 217 403 186 b 386 79 389 106 388 90 b 274 -11 374 6 351 -11 l 246 -11 "},"¿":{"ha":792,"x_min":0,"x_max":0,"o":"m 439 504 b 353 608 364 504 340 533 b 357 642 354 615 356 631 b 469 732 369 715 392 732 l 497 732 b 583 629 572 732 594 703 l 578 600 b 467 504 564 522 542 504 l 439 504 m 279 -307 b -7 -18 67 -307 -31 -179 b 258 294 18 160 140 217 b 336 403 299 322 328 354 b 392 442 342 438 356 442 l 483 442 b 522 375 522 442 531 421 b 382 157 501 253 446 201 b 213 -25 311 108 226 81 b 294 -121 201 -87 229 -121 b 465 3 371 -121 421 -76 b 535 24 489 36 500 36 l 622 -10 b 644 -89 658 -22 664 -46 b 279 -307 569 -219 458 -307 "},"·":{"ha":388,"x_min":0,"x_max":0,"o":"m 144 292 b 56 403 67 292 42 324 l 60 424 b 175 521 74 503 96 521 l 193 521 b 283 410 272 521 297 489 l 279 389 b 164 292 265 310 242 292 l 144 292 "},"•":{"ha":557,"x_min":0,"x_max":0,"o":"m 233 178 b 72 381 117 178 53 268 b 281 554 89 481 165 554 b 439 353 393 554 460 467 b 233 178 421 253 340 178 "},"*":{"ha":469,"x_min":0,"x_max":0,"o":"m 338 572 b 297 592 317 560 306 574 l 269 661 l 215 579 b 175 576 203 558 190 564 l 136 611 b 133 656 118 628 117 636 l 208 725 l 136 742 b 111 785 111 746 101 764 l 135 836 b 178 843 146 857 160 853 l 249 806 l 257 911 b 293 938 258 935 268 938 l 335 938 b 361 897 361 938 367 921 l 333 807 l 413 850 b 451 828 433 861 447 853 l 458 774 b 433 739 461 754 458 743 l 340 724 l 388 644 b 385 600 400 628 404 613 l 338 572 "},"#":{"ha":949,"x_min":0,"x_max":0,"o":"m 69 0 b 39 56 38 0 25 19 l 111 219 l 35 219 b 3 272 1 219 -11 239 l 46 354 b 108 390 63 388 74 390 l 192 390 l 257 542 l 182 542 b 150 594 149 542 135 561 l 193 675 b 254 713 210 710 221 713 l 339 713 l 411 892 b 471 932 425 926 438 932 l 564 932 b 594 876 597 932 608 913 l 524 713 l 644 713 l 718 892 b 778 932 732 926 744 932 l 871 932 b 901 876 904 932 915 913 l 831 713 l 904 713 b 936 660 939 713 951 692 l 896 578 b 833 542 879 546 867 542 l 749 542 l 683 390 l 760 390 b 792 338 793 390 807 371 l 747 258 b 685 219 731 225 721 219 l 600 219 l 529 42 b 469 0 515 6 503 0 l 376 0 b 347 56 343 0 333 21 l 417 219 l 294 219 l 222 42 b 164 0 208 6 197 0 l 69 0 m 497 390 l 563 542 l 442 542 l 376 390 "},"/":{"ha":650,"x_min":0,"x_max":0,"o":"m -24 -83 b -56 -29 -61 -83 -71 -62 l 483 947 b 553 988 504 983 514 988 l 656 988 b 690 933 693 988 706 967 l 153 -43 b 79 -83 132 -79 118 -83 l -24 -83 "},"\\":{"ha":564,"x_min":0,"x_max":0,"o":"m 275 -83 b 235 -35 246 -83 239 -67 l 119 950 b 153 986 117 979 124 986 l 272 986 b 317 938 304 986 313 971 l 431 -46 b 397 -83 433 -74 428 -83 l 275 -83 "},"(":{"ha":418,"x_min":0,"x_max":0,"o":"m 110 -362 b -15 -19 0 -304 -49 -208 l 114 704 b 343 1038 147 894 211 983 b 403 1000 379 1051 388 1031 l 438 925 b 411 854 454 892 443 872 b 307 689 363 825 322 776 l 179 -36 b 211 -207 164 -124 174 -182 b 231 -268 242 -226 249 -243 l 174 -346 b 110 -362 153 -372 132 -374 "},")":{"ha":411,"x_min":0,"x_max":0,"o":"m 11 -364 b -47 -326 -25 -379 -33 -357 l -83 -251 b -57 -181 -99 -219 -89 -200 b 49 -15 -7 -151 32 -103 l 175 708 b 143 879 192 797 182 856 b 125 942 113 899 106 917 l 182 1018 b 246 1035 203 1046 222 1047 b 369 692 356 978 403 882 l 242 -32 b 11 -364 208 -221 143 -310 "},"{":{"ha":482,"x_min":0,"x_max":0,"o":"m 196 -357 b 22 -160 43 -357 -1 -293 l 74 131 b 29 235 85 188 93 235 l 8 235 b -18 283 -22 235 -22 256 l 1 393 b 42 438 7 428 14 438 l 54 438 b 149 556 117 438 139 499 l 201 853 b 431 1036 225 985 281 1036 l 488 1036 b 532 979 525 1036 539 1017 l 518 901 b 464 856 511 864 501 856 l 426 856 b 386 821 403 856 390 846 l 331 508 b 199 331 315 421 267 367 b 268 147 263 303 283 236 l 215 -150 b 236 -176 213 -168 217 -176 l 282 -176 b 318 -232 315 -176 325 -194 l 304 -311 b 254 -357 297 -349 293 -357 l 196 -357 "},"}":{"ha":482,"x_min":0,"x_max":0,"o":"m -60 -357 b -104 -299 -97 -357 -111 -337 l -90 -219 b -37 -176 -83 -182 -75 -176 l 1 -176 b 42 -142 17 -176 39 -157 l 94 163 b 229 342 110 251 143 308 b 158 524 179 374 143 435 l 213 831 b 190 856 215 849 208 856 l 154 856 b 108 914 117 856 101 876 l 124 993 b 176 1036 131 1031 139 1036 l 233 1036 b 404 838 382 1036 428 971 l 351 540 b 397 438 342 485 339 438 l 408 438 b 442 379 442 438 447 414 l 425 278 b 381 235 419 242 411 235 l 372 235 b 276 117 314 235 286 174 l 225 -175 b -6 -357 201 -307 147 -357 l -60 -357 "},"[":{"ha":431,"x_min":0,"x_max":0,"o":"m -11 -356 b -53 -299 -53 -356 -61 -340 l 175 993 b 229 1036 182 1035 188 1036 l 436 1036 b 479 981 478 1036 486 1022 l 465 904 b 415 863 458 863 457 863 l 343 863 l 158 -181 l 222 -181 b 264 -237 265 -181 271 -194 l 251 -314 b 197 -356 244 -356 239 -356 l -11 -356 "},"]":{"ha":431,"x_min":0,"x_max":0,"o":"m -60 -356 b -103 -300 -101 -356 -110 -342 l -89 -222 b -36 -181 -82 -181 -79 -181 l 33 -181 l 218 863 l 156 863 b 111 919 114 863 104 876 l 125 994 b 178 1036 132 1036 136 1036 l 386 1036 b 429 979 428 1036 436 1021 l 201 -312 b 147 -356 194 -354 190 -356 l -60 -356 "},"-":{"ha":540,"x_min":0,"x_max":0,"o":"m 97 274 b 51 338 58 274 44 296 l 65 417 b 121 465 74 458 82 465 l 400 465 b 446 403 438 465 453 444 l 431 324 b 376 274 422 281 414 274 l 97 274 "},"–":{"ha":746,"x_min":0,"x_max":0,"o":"m 99 275 b 53 338 60 275 44 296 l 67 417 b 122 465 75 460 83 465 l 603 465 b 649 403 642 465 656 444 l 635 324 b 579 275 628 281 618 275 l 99 275 "},"—":{"ha":1024,"x_min":0,"x_max":0,"o":"m 99 274 b 53 336 58 274 44 294 l 67 417 b 122 467 74 460 82 467 l 881 467 b 928 403 921 467 935 444 l 914 322 b 857 274 907 279 897 274 l 99 274 "},"_":{"ha":671,"x_min":0,"x_max":0,"o":"m -31 -192 b -78 -128 -72 -192 -85 -171 l -64 -49 b 1 0 -57 -7 -42 0 l 496 0 b 542 -64 538 0 549 -21 l 528 -143 b 465 -192 519 -185 507 -192 l -31 -192 "},"‚":{"ha":346,"x_min":0,"x_max":0,"o":"m -31 -168 b -64 -124 -62 -168 -72 -153 l 17 150 b 90 204 31 197 46 204 l 179 204 b 219 136 231 204 239 176 l 83 -125 b 17 -168 65 -160 53 -168 l -31 -168 "},"„":{"ha":586,"x_min":0,"x_max":0,"o":"m -31 -168 b -64 -124 -62 -168 -72 -153 l 17 150 b 90 204 31 197 46 204 l 179 204 b 219 136 231 204 239 176 l 83 -125 b 17 -168 65 -160 53 -168 l -31 -168 m 211 -168 b 178 -124 179 -168 168 -153 l 257 150 b 332 204 271 197 286 204 l 421 204 b 460 136 472 204 481 176 l 325 -125 b 258 -168 307 -160 293 -168 l 211 -168 "},"“":{"ha":586,"x_min":0,"x_max":0,"o":"m 361 986 b 396 940 394 986 404 971 l 315 667 b 242 614 301 621 286 614 l 153 614 b 113 682 101 614 93 642 l 249 943 b 315 986 267 978 279 986 l 361 986 m 603 986 b 638 940 635 986 646 971 l 557 667 b 482 614 543 621 528 614 l 393 614 b 354 682 342 614 333 642 l 489 943 b 556 986 508 978 521 986 l 603 986 "},"”":{"ha":578,"x_min":0,"x_max":0,"o":"m 113 614 b 78 658 79 614 69 629 l 158 933 b 233 986 172 979 188 986 l 322 986 b 361 918 374 986 381 958 l 225 657 b 160 614 207 622 194 614 l 113 614 m 353 614 b 319 658 321 614 311 629 l 399 933 b 474 986 414 979 429 986 l 563 986 b 603 918 614 986 622 958 l 467 657 b 400 614 449 622 435 614 l 353 614 "},"‘":{"ha":346,"x_min":0,"x_max":0,"o":"m 363 986 b 397 940 396 986 406 971 l 317 667 b 242 614 303 621 288 614 l 153 614 b 114 682 101 614 94 642 l 250 943 b 315 986 268 978 281 986 l 363 986 "},"’":{"ha":336,"x_min":0,"x_max":0,"o":"m 114 614 b 79 658 81 614 71 629 l 160 933 b 233 986 174 979 189 986 l 324 986 b 363 918 374 986 382 958 l 226 657 b 161 614 208 622 196 614 l 114 614 "},"«":{"ha":806,"x_min":0,"x_max":0,"o":"m 288 86 b 235 94 265 68 249 74 l 54 338 b 58 404 38 360 35 383 l 325 644 b 382 643 349 667 360 665 l 428 594 b 428 535 447 574 451 557 l 236 368 l 357 194 b 357 139 372 172 381 157 l 288 86 m 582 86 b 529 94 560 68 544 74 l 349 338 b 353 404 332 360 329 383 l 619 644 b 676 643 643 667 654 665 l 721 594 b 721 535 740 574 746 557 l 531 368 l 651 194 b 651 139 667 172 675 157 l 582 86 "},"»":{"ha":806,"x_min":0,"x_max":0,"o":"m 21 142 b 22 201 1 163 -3 181 l 213 368 l 89 542 b 89 597 74 563 67 579 l 160 650 b 213 640 181 667 197 663 l 393 396 b 389 329 410 374 414 351 l 124 92 b 68 92 100 69 89 69 m 338 142 b 338 201 318 163 314 181 l 529 368 l 404 542 b 406 597 390 564 382 579 l 475 650 b 528 640 497 667 513 663 l 708 396 b 706 329 726 374 729 351 l 440 92 b 385 93 417 69 406 71 "},"‹":{"ha":463,"x_min":0,"x_max":0,"o":"m 264 89 b 211 96 242 71 225 75 l 32 338 b 35 404 14 361 11 382 l 300 643 b 357 642 325 667 338 665 l 401 593 b 400 536 421 571 425 557 l 210 368 l 331 194 b 331 142 346 172 354 160 l 264 89 "},"›":{"ha":460,"x_min":0,"x_max":0,"o":"m 21 144 b 22 201 1 167 -1 181 l 214 369 l 89 542 b 92 596 74 563 68 578 l 158 649 b 210 640 181 665 194 661 l 388 397 b 382 326 406 375 407 347 l 122 93 b 65 94 97 71 85 69 "},"\"":{"ha":535,"x_min":0,"x_max":0,"o":"m 140 619 b 106 669 103 619 99 631 l 156 949 b 213 986 163 986 174 986 l 296 986 b 331 933 333 986 340 972 l 260 656 b 200 619 250 619 233 619 l 140 619 m 361 619 b 326 669 324 619 319 631 l 376 949 b 433 986 383 986 394 986 l 517 986 b 550 933 554 986 561 972 l 479 656 b 421 619 469 619 454 619 l 361 619 "},"'":{"ha":319,"x_min":0,"x_max":0,"o":"m 143 619 b 108 669 104 619 101 631 l 158 949 b 214 986 165 986 176 986 l 297 986 b 332 933 336 986 342 972 l 261 656 b 203 619 251 619 236 619 l 143 619 "}," ":{"ha":286,"x_min":0,"x_max":0,"o":""}," ":{"ha":286,"x_min":0,"x_max":0,"o":""}}}
